<ttFont>
    <TTGlyph name=".notdef" xMin="68" yMin="0" xMax="612" yMax="1365">
      <contour>
        <pt x="68" y="0" on="1"/>
        <pt x="68" y="1365" on="1"/>
        <pt x="612" y="1365" on="1"/>
        <pt x="612" y="0" on="1"/>
      </contour>
      <contour>
        <pt x="136" y="68" on="1"/>
        <pt x="544" y="68" on="1"/>
        <pt x="544" y="1297" on="1"/>
        <pt x="136" y="1297" on="1"/>
      </contour>
    </TTGlyph>
    <TTGlyph name="A" xMin="-139" yMin="-9" xMax="1298" yMax="1470">
      <contour>
        <pt x="-138" y="25" on="1"/>
        <pt x="-134" y="53" on="0"/>
        <pt x="-124" y="71" on="1"/>
        <pt x="-101" y="71" on="0"/>
        <pt x="15" y="118" on="0"/>
        <pt x="33" y="142" on="1"/>
        <pt x="74" y="196" on="0"/>
        <pt x="135" y="297" on="1"/>
        <pt x="788" y="1385" on="1"/>
        <pt x="803" y="1410" on="0"/>
        <pt x="864" y="1470" on="0"/>
        <pt x="879" y="1470" on="1"/>
        <pt x="892" y="1470" on="0"/>
        <pt x="917" y="1459" on="0"/>
        <pt x="919" y="1454" on="1"/>
        <pt x="1126" y="329" on="1"/>
        <pt x="1133" y="291" on="0"/>
        <pt x="1148" y="189" on="0"/>
        <pt x="1152" y="169" on="1"/>
        <pt x="1157" y="143" on="0"/>
        <pt x="1189" y="105" on="0"/>
        <pt x="1223" y="86" on="0"/>
        <pt x="1266" y="75" on="0"/>
        <pt x="1288" y="73" on="0"/>
        <pt x="1296" y="73" on="1"/>
        <pt x="1298" y="66" on="0"/>
        <pt x="1298" y="56" on="1"/>
        <pt x="1298" y="44" on="0"/>
        <pt x="1296" y="28" on="1"/>
        <pt x="1290" y="-2" on="0"/>
        <pt x="1283" y="-9" on="1"/>
        <pt x="1264" y="-8" on="0"/>
        <pt x="1063" y="9" on="0"/>
        <pt x="1010" y="9" on="1"/>
        <pt x="968" y="9" on="0"/>
        <pt x="851" y="2" on="0"/>
        <pt x="715" y="-8" on="0"/>
        <pt x="695" y="-9" on="1"/>
        <pt x="688" y="-1" on="0"/>
        <pt x="704" y="73" on="0"/>
        <pt x="713" y="73" on="1"/>
        <pt x="742" y="73" on="0"/>
        <pt x="818" y="95" on="0"/>
        <pt x="841" y="113" on="1"/>
        <pt x="868" y="132" on="0"/>
        <pt x="868" y="154" on="1"/>
        <pt x="868" y="170" on="0"/>
        <pt x="855" y="244" on="1"/>
        <pt x="840" y="328" on="0"/>
        <pt x="824" y="408" on="1"/>
        <pt x="808" y="488" on="1"/>
        <pt x="804" y="497" on="0"/>
        <pt x="797" y="497" on="1"/>
        <pt x="758" y="500" on="0"/>
        <pt x="599" y="500" on="1"/>
        <pt x="457" y="500" on="0"/>
        <pt x="384" y="497" on="1"/>
        <pt x="379" y="497" on="0"/>
        <pt x="368" y="490" on="0"/>
        <pt x="366" y="486" on="1"/>
        <pt x="291" y="362" on="0"/>
        <pt x="255" y="300" on="1"/>
        <pt x="230" y="255" on="0"/>
        <pt x="184" y="160" on="0"/>
        <pt x="182" y="149" on="1"/>
        <pt x="178" y="129" on="0"/>
        <pt x="216" y="97" on="0"/>
        <pt x="273" y="81" on="0"/>
        <pt x="317" y="73" on="0"/>
        <pt x="326" y="73" on="1"/>
        <pt x="330" y="64" on="0"/>
        <pt x="326" y="30" on="0"/>
        <pt x="315" y="-4" on="0"/>
        <pt x="311" y="-9" on="1"/>
        <pt x="169" y="9" on="0"/>
        <pt x="91" y="9" on="1"/>
        <pt x="68" y="9" on="0"/>
        <pt x="22" y="7" on="0"/>
        <pt x="-7" y="6" on="0"/>
        <pt x="-56" y="1" on="0"/>
        <pt x="-73" y="-1" on="0"/>
        <pt x="-129" y="-8" on="0"/>
        <pt x="-135" y="-9" on="1"/>
        <pt x="-139" y="-5" on="0"/>
        <pt x="-139" y="7" on="1"/>
        <pt x="-139" y="15" on="0"/>
      </contour>
      <contour>
        <pt x="437" y="622" on="1"/>
        <pt x="437" y="613" on="0"/>
        <pt x="442" y="613" on="1"/>
        <pt x="502" y="606" on="0"/>
        <pt x="610" y="606" on="1"/>
        <pt x="713" y="606" on="0"/>
        <pt x="777" y="610" on="1"/>
        <pt x="779" y="610" on="0"/>
        <pt x="783" y="616" on="0"/>
        <pt x="785" y="619" on="1"/>
        <pt x="786" y="622" on="1"/>
        <pt x="699" y="1057" on="1"/>
      </contour>
    </TTGlyph>
    <TTGlyph name="AE" xMin="-146" yMin="-9" xMax="1840" yMax="1474">
      <contour>
        <pt x="-144" y="0" on="0"/>
        <pt x="-146" y="51" on="0"/>
        <pt x="-135" y="71" on="1"/>
        <pt x="-112" y="71" on="0"/>
        <pt x="9" y="118" on="0"/>
        <pt x="29" y="142" on="1"/>
        <pt x="48" y="164" on="0"/>
        <pt x="80" y="205" on="0"/>
        <pt x="99" y="232" on="0"/>
        <pt x="133" y="281" on="0"/>
        <pt x="144" y="297" on="1"/>
        <pt x="846" y="1310" on="1"/>
        <pt x="864" y="1339" on="0"/>
        <pt x="864" y="1350" on="1"/>
        <pt x="864" y="1364" on="0"/>
        <pt x="823" y="1383" on="0"/>
        <pt x="808" y="1383" on="1"/>
        <pt x="802" y="1396" on="0"/>
        <pt x="812" y="1454" on="0"/>
        <pt x="819" y="1465" on="1"/>
        <pt x="910" y="1459" on="0"/>
        <pt x="1126" y="1459" on="1"/>
        <pt x="1175" y="1459" on="0"/>
        <pt x="1763" y="1473" on="0"/>
        <pt x="1800" y="1474" on="1"/>
        <pt x="1804" y="1376" on="0"/>
        <pt x="1825" y="1146" on="1"/>
        <pt x="1820" y="1141" on="0"/>
        <pt x="1789" y="1134" on="0"/>
        <pt x="1776" y="1134" on="1"/>
        <pt x="1748" y="1134" on="0"/>
        <pt x="1745" y="1152" on="1"/>
        <pt x="1734" y="1193" on="0"/>
        <pt x="1714" y="1253" on="0"/>
        <pt x="1681" y="1314" on="0"/>
        <pt x="1641" y="1352" on="0"/>
        <pt x="1582" y="1376" on="0"/>
        <pt x="1545" y="1376" on="1"/>
        <pt x="1374" y="1376" on="1"/>
        <pt x="1331" y="1376" on="0"/>
        <pt x="1277" y="1366" on="0"/>
        <pt x="1268" y="1350" on="1"/>
        <pt x="1254" y="1324" on="0"/>
        <pt x="1243" y="1214" on="1"/>
        <pt x="1203" y="799" on="1"/>
        <pt x="1203" y="793" on="0"/>
        <pt x="1228" y="781" on="0"/>
        <pt x="1268" y="775" on="0"/>
        <pt x="1290" y="775" on="1"/>
        <pt x="1399" y="775" on="1"/>
        <pt x="1462" y="775" on="0"/>
        <pt x="1530" y="800" on="0"/>
        <pt x="1574" y="863" on="0"/>
        <pt x="1598" y="930" on="1"/>
        <pt x="1600" y="935" on="0"/>
        <pt x="1604" y="941" on="0"/>
        <pt x="1609" y="946" on="0"/>
        <pt x="1617" y="948" on="0"/>
        <pt x="1623" y="948" on="1"/>
        <pt x="1653" y="948" on="0"/>
        <pt x="1661" y="937" on="1"/>
        <pt x="1618" y="511" on="1"/>
        <pt x="1610" y="502" on="0"/>
        <pt x="1581" y="502" on="1"/>
        <pt x="1554" y="502" on="0"/>
        <pt x="1554" y="519" on="1"/>
        <pt x="1548" y="569" on="0"/>
        <pt x="1524" y="631" on="0"/>
        <pt x="1506" y="649" on="0"/>
        <pt x="1494" y="655" on="1"/>
        <pt x="1463" y="670" on="0"/>
        <pt x="1341" y="670" on="1"/>
        <pt x="1190" y="670" on="0"/>
        <pt x="1188" y="639" on="1"/>
        <pt x="1152" y="313" on="1"/>
        <pt x="1150" y="302" on="0"/>
        <pt x="1146" y="241" on="0"/>
        <pt x="1146" y="158" on="0"/>
        <pt x="1152" y="138" on="1"/>
        <pt x="1158" y="116" on="0"/>
        <pt x="1236" y="93" on="0"/>
        <pt x="1281" y="93" on="1"/>
        <pt x="1419" y="93" on="1"/>
        <pt x="1542" y="93" on="0"/>
        <pt x="1618" y="166" on="1"/>
        <pt x="1653" y="200" on="0"/>
        <pt x="1712" y="296" on="0"/>
        <pt x="1749" y="377" on="1"/>
        <pt x="1756" y="391" on="0"/>
        <pt x="1780" y="391" on="1"/>
        <pt x="1796" y="391" on="0"/>
        <pt x="1837" y="382" on="0"/>
        <pt x="1840" y="377" on="1"/>
        <pt x="1835" y="364" on="0"/>
        <pt x="1793" y="268" on="0"/>
        <pt x="1774" y="223" on="0"/>
        <pt x="1739" y="137" on="0"/>
        <pt x="1719" y="83" on="0"/>
        <pt x="1698" y="19" on="0"/>
        <pt x="1692" y="-4" on="1"/>
        <pt x="968" y="-4" on="1"/>
        <pt x="919" y="-4" on="0"/>
        <pt x="816" y="-5" on="0"/>
        <pt x="748" y="-6" on="0"/>
        <pt x="691" y="-7" on="0"/>
        <pt x="684" y="-7" on="1"/>
        <pt x="677" y="3" on="0"/>
        <pt x="682" y="64" on="0"/>
        <pt x="690" y="75" on="1"/>
        <pt x="815" y="86" on="0"/>
        <pt x="828" y="113" on="1"/>
        <pt x="834" y="126" on="0"/>
        <pt x="843" y="161" on="0"/>
        <pt x="850" y="194" on="0"/>
        <pt x="856" y="248" on="0"/>
        <pt x="860" y="286" on="0"/>
        <pt x="864" y="322" on="1"/>
        <pt x="890" y="588" on="1"/>
        <pt x="890" y="589" on="0"/>
        <pt x="887" y="594" on="0"/>
        <pt x="883" y="597" on="0"/>
        <pt x="881" y="597" on="1"/>
        <pt x="842" y="599" on="0"/>
        <pt x="704" y="599" on="1"/>
        <pt x="586" y="599" on="0"/>
        <pt x="513" y="597" on="1"/>
        <pt x="508" y="597" on="0"/>
        <pt x="495" y="590" on="0"/>
        <pt x="493" y="586" on="1"/>
        <pt x="335" y="362" on="0"/>
        <pt x="293" y="300" on="1"/>
        <pt x="265" y="256" on="0"/>
        <pt x="210" y="160" on="0"/>
        <pt x="206" y="149" on="1"/>
        <pt x="203" y="135" on="0"/>
        <pt x="217" y="111" on="0"/>
        <pt x="246" y="96" on="0"/>
        <pt x="281" y="83" on="0"/>
        <pt x="315" y="77" on="0"/>
        <pt x="339" y="73" on="0"/>
        <pt x="344" y="73" on="1"/>
        <pt x="349" y="62" on="0"/>
        <pt x="344" y="-2" on="0"/>
        <pt x="337" y="-9" on="1"/>
        <pt x="195" y="9" on="0"/>
        <pt x="89" y="9" on="1"/>
        <pt x="66" y="9" on="0"/>
        <pt x="20" y="7" on="0"/>
        <pt x="-10" y="6" on="0"/>
        <pt x="-58" y="1" on="0"/>
        <pt x="-75" y="-1" on="0"/>
        <pt x="-132" y="-8" on="0"/>
        <pt x="-138" y="-9" on="1"/>
      </contour>
      <contour>
        <pt x="577" y="722" on="1"/>
        <pt x="577" y="713" on="0"/>
        <pt x="582" y="713" on="1"/>
        <pt x="642" y="706" on="0"/>
        <pt x="724" y="706" on="1"/>
        <pt x="828" y="706" on="0"/>
        <pt x="892" y="710" on="1"/>
        <pt x="894" y="710" on="0"/>
        <pt x="900" y="716" on="0"/>
        <pt x="902" y="719" on="1"/>
        <pt x="904" y="722" on="1"/>
        <pt x="948" y="1139" on="1"/>
        <pt x="951" y="1170" on="0"/>
        <pt x="957" y="1259" on="1"/>
      </contour>
    </TTGlyph>
    <TTGlyph name="Aacute" xMin="-141" yMin="-9" xMax="1308" yMax="1878">
      <contour>
        <pt x="-141" y="-3" on="0"/>
        <pt x="-134" y="53" on="0"/>
        <pt x="-124" y="71" on="1"/>
        <pt x="-101" y="71" on="0"/>
        <pt x="15" y="118" on="0"/>
        <pt x="33" y="142" on="1"/>
        <pt x="74" y="196" on="0"/>
        <pt x="135" y="297" on="1"/>
        <pt x="788" y="1385" on="1"/>
        <pt x="803" y="1410" on="0"/>
        <pt x="864" y="1470" on="0"/>
        <pt x="879" y="1470" on="1"/>
        <pt x="892" y="1470" on="0"/>
        <pt x="917" y="1459" on="0"/>
        <pt x="919" y="1454" on="1"/>
        <pt x="1126" y="329" on="1"/>
        <pt x="1133" y="291" on="0"/>
        <pt x="1148" y="189" on="0"/>
        <pt x="1152" y="169" on="1"/>
        <pt x="1157" y="143" on="0"/>
        <pt x="1189" y="105" on="0"/>
        <pt x="1223" y="86" on="0"/>
        <pt x="1266" y="75" on="0"/>
        <pt x="1288" y="73" on="0"/>
        <pt x="1296" y="73" on="1"/>
        <pt x="1301" y="59" on="0"/>
        <pt x="1290" y="-2" on="0"/>
        <pt x="1283" y="-9" on="1"/>
        <pt x="1264" y="-8" on="0"/>
        <pt x="1063" y="9" on="0"/>
        <pt x="1010" y="9" on="1"/>
        <pt x="968" y="9" on="0"/>
        <pt x="851" y="2" on="0"/>
        <pt x="715" y="-8" on="0"/>
        <pt x="695" y="-9" on="1"/>
        <pt x="688" y="-1" on="0"/>
        <pt x="704" y="73" on="0"/>
        <pt x="713" y="73" on="1"/>
        <pt x="742" y="73" on="0"/>
        <pt x="818" y="95" on="0"/>
        <pt x="841" y="113" on="1"/>
        <pt x="865" y="130" on="0"/>
        <pt x="868" y="151" on="1"/>
        <pt x="870" y="160" on="0"/>
        <pt x="840" y="329" on="0"/>
        <pt x="824" y="408" on="1"/>
        <pt x="808" y="488" on="1"/>
        <pt x="804" y="497" on="0"/>
        <pt x="797" y="497" on="1"/>
        <pt x="758" y="500" on="0"/>
        <pt x="599" y="500" on="1"/>
        <pt x="457" y="500" on="0"/>
        <pt x="384" y="497" on="1"/>
        <pt x="379" y="497" on="0"/>
        <pt x="368" y="490" on="0"/>
        <pt x="366" y="486" on="1"/>
        <pt x="291" y="362" on="0"/>
        <pt x="255" y="300" on="1"/>
        <pt x="230" y="255" on="0"/>
        <pt x="184" y="160" on="0"/>
        <pt x="182" y="149" on="1"/>
        <pt x="178" y="129" on="0"/>
        <pt x="216" y="97" on="0"/>
        <pt x="273" y="81" on="0"/>
        <pt x="317" y="73" on="0"/>
        <pt x="326" y="73" on="1"/>
        <pt x="330" y="64" on="0"/>
        <pt x="326" y="30" on="0"/>
        <pt x="315" y="-4" on="0"/>
        <pt x="311" y="-9" on="1"/>
        <pt x="169" y="9" on="0"/>
        <pt x="91" y="9" on="1"/>
        <pt x="68" y="9" on="0"/>
        <pt x="22" y="7" on="0"/>
        <pt x="-7" y="6" on="0"/>
        <pt x="-56" y="1" on="0"/>
        <pt x="-73" y="-1" on="0"/>
        <pt x="-129" y="-8" on="0"/>
        <pt x="-135" y="-9" on="1"/>
      </contour>
      <contour>
        <pt x="437" y="622" on="1"/>
        <pt x="437" y="613" on="0"/>
        <pt x="442" y="613" on="1"/>
        <pt x="502" y="606" on="0"/>
        <pt x="610" y="606" on="1"/>
        <pt x="713" y="606" on="0"/>
        <pt x="777" y="610" on="1"/>
        <pt x="779" y="610" on="0"/>
        <pt x="783" y="616" on="0"/>
        <pt x="785" y="619" on="1"/>
        <pt x="786" y="622" on="1"/>
        <pt x="699" y="1057" on="1"/>
      </contour>
      <contour>
        <pt x="846" y="1645" on="1"/>
        <pt x="860" y="1667" on="0"/>
        <pt x="1021" y="1824" on="0"/>
        <pt x="1081" y="1860" on="1"/>
        <pt x="1095" y="1868" on="0"/>
        <pt x="1158" y="1878" on="0"/>
        <pt x="1183" y="1878" on="1"/>
        <pt x="1212" y="1878" on="0"/>
        <pt x="1265" y="1866" on="0"/>
        <pt x="1308" y="1832" on="0"/>
        <pt x="1308" y="1807" on="1"/>
        <pt x="1308" y="1776" on="0"/>
        <pt x="1181" y="1706" on="0"/>
        <pt x="1015" y="1653" on="0"/>
        <pt x="885" y="1619" on="0"/>
        <pt x="866" y="1616" on="1"/>
        <pt x="846" y="1631" on="0"/>
      </contour>
    </TTGlyph>
    <TTGlyph name="Acircumflex" xMin="-141" yMin="-9" xMax="1301" yMax="1931">
      <contour>
        <pt x="-141" y="-3" on="0"/>
        <pt x="-134" y="53" on="0"/>
        <pt x="-124" y="71" on="1"/>
        <pt x="-101" y="71" on="0"/>
        <pt x="15" y="118" on="0"/>
        <pt x="33" y="142" on="1"/>
        <pt x="74" y="196" on="0"/>
        <pt x="135" y="297" on="1"/>
        <pt x="788" y="1385" on="1"/>
        <pt x="803" y="1410" on="0"/>
        <pt x="864" y="1470" on="0"/>
        <pt x="879" y="1470" on="1"/>
        <pt x="892" y="1470" on="0"/>
        <pt x="917" y="1459" on="0"/>
        <pt x="919" y="1454" on="1"/>
        <pt x="1126" y="329" on="1"/>
        <pt x="1133" y="291" on="0"/>
        <pt x="1148" y="189" on="0"/>
        <pt x="1152" y="169" on="1"/>
        <pt x="1157" y="143" on="0"/>
        <pt x="1189" y="105" on="0"/>
        <pt x="1223" y="86" on="0"/>
        <pt x="1266" y="75" on="0"/>
        <pt x="1288" y="73" on="0"/>
        <pt x="1296" y="73" on="1"/>
        <pt x="1301" y="59" on="0"/>
        <pt x="1290" y="-2" on="0"/>
        <pt x="1283" y="-9" on="1"/>
        <pt x="1264" y="-8" on="0"/>
        <pt x="1063" y="9" on="0"/>
        <pt x="1010" y="9" on="1"/>
        <pt x="968" y="9" on="0"/>
        <pt x="851" y="2" on="0"/>
        <pt x="715" y="-8" on="0"/>
        <pt x="695" y="-9" on="1"/>
        <pt x="688" y="-1" on="0"/>
        <pt x="704" y="73" on="0"/>
        <pt x="713" y="73" on="1"/>
        <pt x="742" y="73" on="0"/>
        <pt x="818" y="95" on="0"/>
        <pt x="841" y="113" on="1"/>
        <pt x="865" y="130" on="0"/>
        <pt x="868" y="151" on="1"/>
        <pt x="870" y="160" on="0"/>
        <pt x="840" y="329" on="0"/>
        <pt x="824" y="408" on="1"/>
        <pt x="808" y="488" on="1"/>
        <pt x="804" y="497" on="0"/>
        <pt x="797" y="497" on="1"/>
        <pt x="758" y="500" on="0"/>
        <pt x="599" y="500" on="1"/>
        <pt x="457" y="500" on="0"/>
        <pt x="384" y="497" on="1"/>
        <pt x="379" y="497" on="0"/>
        <pt x="368" y="490" on="0"/>
        <pt x="366" y="486" on="1"/>
        <pt x="291" y="362" on="0"/>
        <pt x="255" y="300" on="1"/>
        <pt x="230" y="255" on="0"/>
        <pt x="184" y="160" on="0"/>
        <pt x="182" y="149" on="1"/>
        <pt x="178" y="129" on="0"/>
        <pt x="216" y="97" on="0"/>
        <pt x="273" y="81" on="0"/>
        <pt x="317" y="73" on="0"/>
        <pt x="326" y="73" on="1"/>
        <pt x="330" y="64" on="0"/>
        <pt x="326" y="30" on="0"/>
        <pt x="315" y="-4" on="0"/>
        <pt x="311" y="-9" on="1"/>
        <pt x="169" y="9" on="0"/>
        <pt x="91" y="9" on="1"/>
        <pt x="68" y="9" on="0"/>
        <pt x="22" y="7" on="0"/>
        <pt x="-7" y="6" on="0"/>
        <pt x="-56" y="1" on="0"/>
        <pt x="-73" y="-1" on="0"/>
        <pt x="-129" y="-8" on="0"/>
        <pt x="-135" y="-9" on="1"/>
      </contour>
      <contour>
        <pt x="437" y="622" on="1"/>
        <pt x="437" y="613" on="0"/>
        <pt x="442" y="613" on="1"/>
        <pt x="502" y="606" on="0"/>
        <pt x="610" y="606" on="1"/>
        <pt x="713" y="606" on="0"/>
        <pt x="777" y="610" on="1"/>
        <pt x="779" y="610" on="0"/>
        <pt x="783" y="616" on="0"/>
        <pt x="785" y="619" on="1"/>
        <pt x="786" y="622" on="1"/>
        <pt x="699" y="1057" on="1"/>
      </contour>
      <contour>
        <pt x="622" y="1656" on="1"/>
        <pt x="666" y="1691" on="0"/>
        <pt x="764" y="1770" on="0"/>
        <pt x="847" y="1839" on="0"/>
        <pt x="913" y="1895" on="0"/>
        <pt x="928" y="1909" on="1"/>
        <pt x="950" y="1931" on="0"/>
        <pt x="959" y="1931" on="1"/>
        <pt x="962" y="1931" on="0"/>
        <pt x="966" y="1929" on="0"/>
        <pt x="972" y="1924" on="0"/>
        <pt x="975" y="1920" on="0"/>
        <pt x="982" y="1911" on="0"/>
        <pt x="983" y="1909" on="1"/>
        <pt x="1008" y="1877" on="0"/>
        <pt x="1089" y="1778" on="0"/>
        <pt x="1172" y="1682" on="0"/>
        <pt x="1197" y="1656" on="1"/>
        <pt x="1193" y="1628" on="0"/>
        <pt x="1170" y="1621" on="1"/>
        <pt x="1149" y="1626" on="0"/>
        <pt x="969" y="1723" on="0"/>
        <pt x="928" y="1754" on="1"/>
        <pt x="872" y="1722" on="0"/>
        <pt x="665" y="1628" on="0"/>
        <pt x="637" y="1621" on="1"/>
        <pt x="630" y="1624" on="0"/>
        <pt x="620" y="1646" on="0"/>
      </contour>
    </TTGlyph>
    <TTGlyph name="Adieresis" xMin="-141" yMin="-9" xMax="1321" yMax="1925">
      <contour>
        <pt x="-141" y="-3" on="0"/>
        <pt x="-134" y="53" on="0"/>
        <pt x="-124" y="71" on="1"/>
        <pt x="-101" y="71" on="0"/>
        <pt x="15" y="118" on="0"/>
        <pt x="33" y="142" on="1"/>
        <pt x="74" y="196" on="0"/>
        <pt x="135" y="297" on="1"/>
        <pt x="788" y="1385" on="1"/>
        <pt x="803" y="1410" on="0"/>
        <pt x="864" y="1470" on="0"/>
        <pt x="879" y="1470" on="1"/>
        <pt x="892" y="1470" on="0"/>
        <pt x="917" y="1459" on="0"/>
        <pt x="919" y="1454" on="1"/>
        <pt x="1126" y="329" on="1"/>
        <pt x="1133" y="291" on="0"/>
        <pt x="1148" y="189" on="0"/>
        <pt x="1152" y="169" on="1"/>
        <pt x="1157" y="143" on="0"/>
        <pt x="1189" y="105" on="0"/>
        <pt x="1223" y="86" on="0"/>
        <pt x="1266" y="75" on="0"/>
        <pt x="1288" y="73" on="0"/>
        <pt x="1296" y="73" on="1"/>
        <pt x="1301" y="59" on="0"/>
        <pt x="1290" y="-2" on="0"/>
        <pt x="1283" y="-9" on="1"/>
        <pt x="1264" y="-8" on="0"/>
        <pt x="1063" y="9" on="0"/>
        <pt x="1010" y="9" on="1"/>
        <pt x="968" y="9" on="0"/>
        <pt x="851" y="2" on="0"/>
        <pt x="715" y="-8" on="0"/>
        <pt x="695" y="-9" on="1"/>
        <pt x="688" y="-1" on="0"/>
        <pt x="704" y="73" on="0"/>
        <pt x="713" y="73" on="1"/>
        <pt x="742" y="73" on="0"/>
        <pt x="818" y="95" on="0"/>
        <pt x="841" y="113" on="1"/>
        <pt x="865" y="130" on="0"/>
        <pt x="868" y="151" on="1"/>
        <pt x="870" y="160" on="0"/>
        <pt x="840" y="329" on="0"/>
        <pt x="824" y="408" on="1"/>
        <pt x="808" y="488" on="1"/>
        <pt x="804" y="497" on="0"/>
        <pt x="797" y="497" on="1"/>
        <pt x="758" y="500" on="0"/>
        <pt x="599" y="500" on="1"/>
        <pt x="457" y="500" on="0"/>
        <pt x="384" y="497" on="1"/>
        <pt x="379" y="497" on="0"/>
        <pt x="368" y="490" on="0"/>
        <pt x="366" y="486" on="1"/>
        <pt x="291" y="362" on="0"/>
        <pt x="255" y="300" on="1"/>
        <pt x="230" y="255" on="0"/>
        <pt x="184" y="160" on="0"/>
        <pt x="182" y="149" on="1"/>
        <pt x="178" y="129" on="0"/>
        <pt x="216" y="97" on="0"/>
        <pt x="273" y="81" on="0"/>
        <pt x="317" y="73" on="0"/>
        <pt x="326" y="73" on="1"/>
        <pt x="330" y="64" on="0"/>
        <pt x="326" y="30" on="0"/>
        <pt x="315" y="-4" on="0"/>
        <pt x="311" y="-9" on="1"/>
        <pt x="169" y="9" on="0"/>
        <pt x="91" y="9" on="1"/>
        <pt x="68" y="9" on="0"/>
        <pt x="22" y="7" on="0"/>
        <pt x="-7" y="6" on="0"/>
        <pt x="-56" y="1" on="0"/>
        <pt x="-73" y="-1" on="0"/>
        <pt x="-129" y="-8" on="0"/>
        <pt x="-135" y="-9" on="1"/>
      </contour>
      <contour>
        <pt x="437" y="622" on="1"/>
        <pt x="437" y="613" on="0"/>
        <pt x="442" y="613" on="1"/>
        <pt x="502" y="606" on="0"/>
        <pt x="610" y="606" on="1"/>
        <pt x="713" y="606" on="0"/>
        <pt x="777" y="610" on="1"/>
        <pt x="779" y="610" on="0"/>
        <pt x="783" y="616" on="0"/>
        <pt x="785" y="619" on="1"/>
        <pt x="786" y="622" on="1"/>
        <pt x="699" y="1057" on="1"/>
      </contour>
      <contour>
        <pt x="599" y="1776" on="1"/>
        <pt x="611" y="1838" on="0"/>
        <pt x="710" y="1925" on="0"/>
        <pt x="768" y="1925" on="1"/>
        <pt x="825" y="1925" on="0"/>
        <pt x="891" y="1837" on="0"/>
        <pt x="879" y="1776" on="1"/>
        <pt x="867" y="1713" on="0"/>
        <pt x="770" y="1618" on="0"/>
        <pt x="713" y="1618" on="1"/>
        <pt x="654" y="1618" on="0"/>
        <pt x="588" y="1713" on="0"/>
      </contour>
      <contour>
        <pt x="1030" y="1776" on="1"/>
        <pt x="1038" y="1816" on="0"/>
        <pt x="1088" y="1885" on="0"/>
        <pt x="1161" y="1925" on="0"/>
        <pt x="1199" y="1925" on="1"/>
        <pt x="1256" y="1925" on="0"/>
        <pt x="1321" y="1837" on="0"/>
        <pt x="1310" y="1776" on="1"/>
        <pt x="1298" y="1713" on="0"/>
        <pt x="1200" y="1618" on="0"/>
        <pt x="1143" y="1618" on="1"/>
        <pt x="1084" y="1618" on="0"/>
        <pt x="1018" y="1713" on="0"/>
      </contour>
    </TTGlyph>
    <TTGlyph name="Agrave" xMin="-141" yMin="-9" xMax="1301" yMax="1878">
      <contour>
        <pt x="-141" y="-3" on="0"/>
        <pt x="-134" y="53" on="0"/>
        <pt x="-124" y="71" on="1"/>
        <pt x="-101" y="71" on="0"/>
        <pt x="15" y="118" on="0"/>
        <pt x="33" y="142" on="1"/>
        <pt x="74" y="196" on="0"/>
        <pt x="135" y="297" on="1"/>
        <pt x="788" y="1385" on="1"/>
        <pt x="803" y="1410" on="0"/>
        <pt x="864" y="1470" on="0"/>
        <pt x="879" y="1470" on="1"/>
        <pt x="892" y="1470" on="0"/>
        <pt x="917" y="1459" on="0"/>
        <pt x="919" y="1454" on="1"/>
        <pt x="1126" y="329" on="1"/>
        <pt x="1133" y="291" on="0"/>
        <pt x="1148" y="189" on="0"/>
        <pt x="1152" y="169" on="1"/>
        <pt x="1157" y="143" on="0"/>
        <pt x="1189" y="105" on="0"/>
        <pt x="1223" y="86" on="0"/>
        <pt x="1266" y="75" on="0"/>
        <pt x="1288" y="73" on="0"/>
        <pt x="1296" y="73" on="1"/>
        <pt x="1301" y="59" on="0"/>
        <pt x="1290" y="-2" on="0"/>
        <pt x="1283" y="-9" on="1"/>
        <pt x="1264" y="-8" on="0"/>
        <pt x="1063" y="9" on="0"/>
        <pt x="1010" y="9" on="1"/>
        <pt x="968" y="9" on="0"/>
        <pt x="851" y="2" on="0"/>
        <pt x="715" y="-8" on="0"/>
        <pt x="695" y="-9" on="1"/>
        <pt x="688" y="-1" on="0"/>
        <pt x="704" y="73" on="0"/>
        <pt x="713" y="73" on="1"/>
        <pt x="742" y="73" on="0"/>
        <pt x="818" y="95" on="0"/>
        <pt x="841" y="113" on="1"/>
        <pt x="865" y="130" on="0"/>
        <pt x="868" y="151" on="1"/>
        <pt x="870" y="160" on="0"/>
        <pt x="840" y="329" on="0"/>
        <pt x="824" y="408" on="1"/>
        <pt x="808" y="488" on="1"/>
        <pt x="804" y="497" on="0"/>
        <pt x="797" y="497" on="1"/>
        <pt x="758" y="500" on="0"/>
        <pt x="599" y="500" on="1"/>
        <pt x="457" y="500" on="0"/>
        <pt x="384" y="497" on="1"/>
        <pt x="379" y="497" on="0"/>
        <pt x="368" y="490" on="0"/>
        <pt x="366" y="486" on="1"/>
        <pt x="291" y="362" on="0"/>
        <pt x="255" y="300" on="1"/>
        <pt x="230" y="255" on="0"/>
        <pt x="184" y="160" on="0"/>
        <pt x="182" y="149" on="1"/>
        <pt x="178" y="129" on="0"/>
        <pt x="216" y="97" on="0"/>
        <pt x="273" y="81" on="0"/>
        <pt x="317" y="73" on="0"/>
        <pt x="326" y="73" on="1"/>
        <pt x="330" y="64" on="0"/>
        <pt x="326" y="30" on="0"/>
        <pt x="315" y="-4" on="0"/>
        <pt x="311" y="-9" on="1"/>
        <pt x="169" y="9" on="0"/>
        <pt x="91" y="9" on="1"/>
        <pt x="68" y="9" on="0"/>
        <pt x="22" y="7" on="0"/>
        <pt x="-7" y="6" on="0"/>
        <pt x="-56" y="1" on="0"/>
        <pt x="-73" y="-1" on="0"/>
        <pt x="-129" y="-8" on="0"/>
        <pt x="-135" y="-9" on="1"/>
      </contour>
      <contour>
        <pt x="437" y="622" on="1"/>
        <pt x="437" y="613" on="0"/>
        <pt x="442" y="613" on="1"/>
        <pt x="502" y="606" on="0"/>
        <pt x="610" y="606" on="1"/>
        <pt x="713" y="606" on="0"/>
        <pt x="777" y="610" on="1"/>
        <pt x="779" y="610" on="0"/>
        <pt x="783" y="616" on="0"/>
        <pt x="785" y="619" on="1"/>
        <pt x="786" y="622" on="1"/>
        <pt x="699" y="1057" on="1"/>
      </contour>
      <contour>
        <pt x="466" y="1807" on="1"/>
        <pt x="466" y="1832" on="0"/>
        <pt x="509" y="1866" on="0"/>
        <pt x="562" y="1878" on="0"/>
        <pt x="591" y="1878" on="1"/>
        <pt x="616" y="1878" on="0"/>
        <pt x="679" y="1868" on="0"/>
        <pt x="693" y="1860" on="1"/>
        <pt x="753" y="1824" on="0"/>
        <pt x="914" y="1667" on="0"/>
        <pt x="928" y="1645" on="1"/>
        <pt x="928" y="1631" on="0"/>
        <pt x="908" y="1616" on="1"/>
        <pt x="889" y="1619" on="0"/>
        <pt x="758" y="1653" on="0"/>
        <pt x="593" y="1706" on="0"/>
        <pt x="466" y="1776" on="0"/>
      </contour>
    </TTGlyph>
    <TTGlyph name="Aring" xMin="-141" yMin="-9" xMax="1301" yMax="1903">
      <contour>
        <pt x="-141" y="-3" on="0"/>
        <pt x="-134" y="53" on="0"/>
        <pt x="-124" y="71" on="1"/>
        <pt x="-101" y="71" on="0"/>
        <pt x="15" y="118" on="0"/>
        <pt x="33" y="142" on="1"/>
        <pt x="74" y="196" on="0"/>
        <pt x="135" y="297" on="1"/>
        <pt x="788" y="1385" on="1"/>
        <pt x="803" y="1410" on="0"/>
        <pt x="864" y="1470" on="0"/>
        <pt x="879" y="1470" on="1"/>
        <pt x="892" y="1470" on="0"/>
        <pt x="917" y="1459" on="0"/>
        <pt x="919" y="1454" on="1"/>
        <pt x="1126" y="329" on="1"/>
        <pt x="1133" y="291" on="0"/>
        <pt x="1148" y="189" on="0"/>
        <pt x="1152" y="169" on="1"/>
        <pt x="1157" y="143" on="0"/>
        <pt x="1189" y="105" on="0"/>
        <pt x="1223" y="86" on="0"/>
        <pt x="1266" y="75" on="0"/>
        <pt x="1288" y="73" on="0"/>
        <pt x="1296" y="73" on="1"/>
        <pt x="1301" y="59" on="0"/>
        <pt x="1290" y="-2" on="0"/>
        <pt x="1283" y="-9" on="1"/>
        <pt x="1264" y="-8" on="0"/>
        <pt x="1063" y="9" on="0"/>
        <pt x="1010" y="9" on="1"/>
        <pt x="968" y="9" on="0"/>
        <pt x="851" y="2" on="0"/>
        <pt x="715" y="-8" on="0"/>
        <pt x="695" y="-9" on="1"/>
        <pt x="688" y="-1" on="0"/>
        <pt x="704" y="73" on="0"/>
        <pt x="713" y="73" on="1"/>
        <pt x="742" y="73" on="0"/>
        <pt x="818" y="95" on="0"/>
        <pt x="841" y="113" on="1"/>
        <pt x="865" y="130" on="0"/>
        <pt x="868" y="151" on="1"/>
        <pt x="870" y="160" on="0"/>
        <pt x="840" y="329" on="0"/>
        <pt x="824" y="408" on="1"/>
        <pt x="808" y="488" on="1"/>
        <pt x="804" y="497" on="0"/>
        <pt x="797" y="497" on="1"/>
        <pt x="758" y="500" on="0"/>
        <pt x="599" y="500" on="1"/>
        <pt x="457" y="500" on="0"/>
        <pt x="384" y="497" on="1"/>
        <pt x="379" y="497" on="0"/>
        <pt x="368" y="490" on="0"/>
        <pt x="366" y="486" on="1"/>
        <pt x="291" y="362" on="0"/>
        <pt x="255" y="300" on="1"/>
        <pt x="230" y="255" on="0"/>
        <pt x="184" y="160" on="0"/>
        <pt x="182" y="149" on="1"/>
        <pt x="178" y="129" on="0"/>
        <pt x="216" y="97" on="0"/>
        <pt x="273" y="81" on="0"/>
        <pt x="317" y="73" on="0"/>
        <pt x="326" y="73" on="1"/>
        <pt x="330" y="64" on="0"/>
        <pt x="326" y="30" on="0"/>
        <pt x="315" y="-4" on="0"/>
        <pt x="311" y="-9" on="1"/>
        <pt x="169" y="9" on="0"/>
        <pt x="91" y="9" on="1"/>
        <pt x="68" y="9" on="0"/>
        <pt x="22" y="7" on="0"/>
        <pt x="-7" y="6" on="0"/>
        <pt x="-56" y="1" on="0"/>
        <pt x="-73" y="-1" on="0"/>
        <pt x="-129" y="-8" on="0"/>
        <pt x="-135" y="-9" on="1"/>
      </contour>
      <contour>
        <pt x="437" y="622" on="1"/>
        <pt x="437" y="613" on="0"/>
        <pt x="442" y="613" on="1"/>
        <pt x="502" y="606" on="0"/>
        <pt x="610" y="606" on="1"/>
        <pt x="713" y="606" on="0"/>
        <pt x="777" y="610" on="1"/>
        <pt x="779" y="610" on="0"/>
        <pt x="783" y="616" on="0"/>
        <pt x="785" y="619" on="1"/>
        <pt x="786" y="622" on="1"/>
        <pt x="699" y="1057" on="1"/>
      </contour>
      <contour>
        <pt x="722" y="1685" on="1"/>
        <pt x="738" y="1774" on="0"/>
        <pt x="884" y="1903" on="0"/>
        <pt x="968" y="1903" on="1"/>
        <pt x="1051" y="1903" on="0"/>
        <pt x="1147" y="1775" on="0"/>
        <pt x="1113" y="1595" on="0"/>
        <pt x="967" y="1465" on="0"/>
        <pt x="884" y="1465" on="1"/>
        <pt x="800" y="1465" on="0"/>
        <pt x="705" y="1595" on="0"/>
      </contour>
      <contour>
        <pt x="817" y="1685" on="1"/>
        <pt x="807" y="1635" on="0"/>
        <pt x="857" y="1565" on="0"/>
        <pt x="950" y="1565" on="0"/>
        <pt x="1027" y="1635" on="0"/>
        <pt x="1047" y="1735" on="0"/>
        <pt x="997" y="1805" on="0"/>
        <pt x="950" y="1805" on="1"/>
        <pt x="920" y="1805" on="0"/>
        <pt x="863" y="1773" on="0"/>
        <pt x="824" y="1718" on="0"/>
      </contour>
    </TTGlyph>
    <TTGlyph name="Atilde" xMin="-141" yMin="-9" xMax="1301" yMax="1820">
      <contour>
        <pt x="-141" y="-3" on="0"/>
        <pt x="-134" y="53" on="0"/>
        <pt x="-124" y="71" on="1"/>
        <pt x="-101" y="71" on="0"/>
        <pt x="15" y="118" on="0"/>
        <pt x="33" y="142" on="1"/>
        <pt x="74" y="196" on="0"/>
        <pt x="135" y="297" on="1"/>
        <pt x="788" y="1385" on="1"/>
        <pt x="803" y="1410" on="0"/>
        <pt x="864" y="1470" on="0"/>
        <pt x="879" y="1470" on="1"/>
        <pt x="892" y="1470" on="0"/>
        <pt x="917" y="1459" on="0"/>
        <pt x="919" y="1454" on="1"/>
        <pt x="1126" y="329" on="1"/>
        <pt x="1133" y="291" on="0"/>
        <pt x="1148" y="189" on="0"/>
        <pt x="1152" y="169" on="1"/>
        <pt x="1157" y="143" on="0"/>
        <pt x="1189" y="105" on="0"/>
        <pt x="1223" y="86" on="0"/>
        <pt x="1266" y="75" on="0"/>
        <pt x="1288" y="73" on="0"/>
        <pt x="1296" y="73" on="1"/>
        <pt x="1301" y="59" on="0"/>
        <pt x="1290" y="-2" on="0"/>
        <pt x="1283" y="-9" on="1"/>
        <pt x="1264" y="-8" on="0"/>
        <pt x="1063" y="9" on="0"/>
        <pt x="1010" y="9" on="1"/>
        <pt x="968" y="9" on="0"/>
        <pt x="851" y="2" on="0"/>
        <pt x="715" y="-8" on="0"/>
        <pt x="695" y="-9" on="1"/>
        <pt x="688" y="-1" on="0"/>
        <pt x="704" y="73" on="0"/>
        <pt x="713" y="73" on="1"/>
        <pt x="742" y="73" on="0"/>
        <pt x="818" y="95" on="0"/>
        <pt x="841" y="113" on="1"/>
        <pt x="865" y="130" on="0"/>
        <pt x="868" y="151" on="1"/>
        <pt x="870" y="160" on="0"/>
        <pt x="840" y="329" on="0"/>
        <pt x="824" y="408" on="1"/>
        <pt x="808" y="488" on="1"/>
        <pt x="804" y="497" on="0"/>
        <pt x="797" y="497" on="1"/>
        <pt x="758" y="500" on="0"/>
        <pt x="599" y="500" on="1"/>
        <pt x="457" y="500" on="0"/>
        <pt x="384" y="497" on="1"/>
        <pt x="379" y="497" on="0"/>
        <pt x="368" y="490" on="0"/>
        <pt x="366" y="486" on="1"/>
        <pt x="291" y="362" on="0"/>
        <pt x="255" y="300" on="1"/>
        <pt x="230" y="255" on="0"/>
        <pt x="184" y="160" on="0"/>
        <pt x="182" y="149" on="1"/>
        <pt x="178" y="129" on="0"/>
        <pt x="216" y="97" on="0"/>
        <pt x="273" y="81" on="0"/>
        <pt x="317" y="73" on="0"/>
        <pt x="326" y="73" on="1"/>
        <pt x="330" y="64" on="0"/>
        <pt x="326" y="30" on="0"/>
        <pt x="315" y="-4" on="0"/>
        <pt x="311" y="-9" on="1"/>
        <pt x="169" y="9" on="0"/>
        <pt x="91" y="9" on="1"/>
        <pt x="68" y="9" on="0"/>
        <pt x="22" y="7" on="0"/>
        <pt x="-7" y="6" on="0"/>
        <pt x="-56" y="1" on="0"/>
        <pt x="-73" y="-1" on="0"/>
        <pt x="-129" y="-8" on="0"/>
        <pt x="-135" y="-9" on="1"/>
      </contour>
      <contour>
        <pt x="437" y="622" on="1"/>
        <pt x="437" y="613" on="0"/>
        <pt x="442" y="613" on="1"/>
        <pt x="502" y="606" on="0"/>
        <pt x="610" y="606" on="1"/>
        <pt x="713" y="606" on="0"/>
        <pt x="777" y="610" on="1"/>
        <pt x="779" y="610" on="0"/>
        <pt x="783" y="616" on="0"/>
        <pt x="785" y="619" on="1"/>
        <pt x="786" y="622" on="1"/>
        <pt x="699" y="1057" on="1"/>
      </contour>
      <contour>
        <pt x="571" y="1647" on="1"/>
        <pt x="571" y="1691" on="0"/>
        <pt x="613" y="1738" on="1"/>
        <pt x="641" y="1768" on="0"/>
        <pt x="699" y="1804" on="0"/>
        <pt x="758" y="1820" on="0"/>
        <pt x="793" y="1820" on="1"/>
        <pt x="836" y="1820" on="0"/>
        <pt x="897" y="1806" on="0"/>
        <pt x="932" y="1785" on="1"/>
        <pt x="967" y="1765" on="0"/>
        <pt x="1000" y="1747" on="0"/>
        <pt x="1066" y="1727" on="0"/>
        <pt x="1099" y="1727" on="1"/>
        <pt x="1178" y="1727" on="0"/>
        <pt x="1248" y="1820" on="1"/>
        <pt x="1254" y="1818" on="0"/>
        <pt x="1268" y="1801" on="0"/>
        <pt x="1268" y="1789" on="1"/>
        <pt x="1268" y="1745" on="0"/>
        <pt x="1225" y="1698" on="1"/>
        <pt x="1183" y="1654" on="0"/>
        <pt x="1097" y="1616" on="0"/>
        <pt x="1046" y="1616" on="1"/>
        <pt x="1002" y="1616" on="0"/>
        <pt x="941" y="1631" on="0"/>
        <pt x="906" y="1652" on="1"/>
        <pt x="872" y="1672" on="0"/>
        <pt x="838" y="1690" on="0"/>
        <pt x="772" y="1709" on="0"/>
        <pt x="739" y="1709" on="1"/>
        <pt x="660" y="1709" on="0"/>
        <pt x="591" y="1616" on="1"/>
        <pt x="587" y="1617" on="0"/>
        <pt x="578" y="1625" on="0"/>
        <pt x="571" y="1639" on="0"/>
      </contour>
    </TTGlyph>
    <TTGlyph name="B" xMin="-20" yMin="-8" xMax="1236" yMax="1465">
      <contour>
        <pt x="-18" y="-7" on="1"/>
        <pt x="-20" y="-2" on="0"/>
        <pt x="-20" y="8" on="1"/>
        <pt x="-20" y="19" on="0"/>
        <pt x="-18" y="34" on="1"/>
        <pt x="-12" y="64" on="0"/>
        <pt x="-2" y="75" on="1"/>
        <pt x="123" y="86" on="0"/>
        <pt x="138" y="113" on="1"/>
        <pt x="154" y="143" on="0"/>
        <pt x="177" y="235" on="0"/>
        <pt x="193" y="322" on="1"/>
        <pt x="353" y="1139" on="1"/>
        <pt x="355" y="1150" on="0"/>
        <pt x="365" y="1204" on="0"/>
        <pt x="369" y="1225" on="0"/>
        <pt x="376" y="1267" on="0"/>
        <pt x="378" y="1288" on="0"/>
        <pt x="381" y="1317" on="0"/>
        <pt x="379" y="1338" on="0"/>
        <pt x="377" y="1348" on="1"/>
        <pt x="377" y="1352" on="0"/>
        <pt x="369" y="1360" on="0"/>
        <pt x="356" y="1367" on="0"/>
        <pt x="342" y="1372" on="0"/>
        <pt x="321" y="1375" on="0"/>
        <pt x="305" y="1378" on="0"/>
        <pt x="283" y="1380" on="0"/>
        <pt x="271" y="1382" on="0"/>
        <pt x="253" y="1383" on="0"/>
        <pt x="251" y="1383" on="1"/>
        <pt x="248" y="1392" on="0"/>
        <pt x="252" y="1424" on="0"/>
        <pt x="263" y="1459" on="0"/>
        <pt x="269" y="1465" on="1"/>
        <pt x="360" y="1459" on="0"/>
        <pt x="562" y="1459" on="1"/>
        <pt x="601" y="1459" on="0"/>
        <pt x="815" y="1465" on="0"/>
        <pt x="879" y="1465" on="1"/>
        <pt x="939" y="1465" on="0"/>
        <pt x="1048" y="1442" on="0"/>
        <pt x="1150" y="1390" on="0"/>
        <pt x="1214" y="1308" on="0"/>
        <pt x="1229" y="1250" on="1"/>
        <pt x="1236" y="1222" on="0"/>
        <pt x="1236" y="1189" on="1"/>
        <pt x="1236" y="1154" on="0"/>
        <pt x="1228" y="1114" on="1"/>
        <pt x="1218" y="1064" on="0"/>
        <pt x="1163" y="970" on="0"/>
        <pt x="1098" y="905" on="0"/>
        <pt x="1023" y="850" on="0"/>
        <pt x="967" y="820" on="0"/>
        <pt x="946" y="813" on="1"/>
        <pt x="932" y="805" on="0"/>
        <pt x="932" y="799" on="1"/>
        <pt x="964" y="795" on="0"/>
        <pt x="1040" y="761" on="0"/>
        <pt x="1119" y="696" on="0"/>
        <pt x="1178" y="612" on="0"/>
        <pt x="1192" y="552" on="1"/>
        <pt x="1199" y="521" on="0"/>
        <pt x="1199" y="489" on="1"/>
        <pt x="1199" y="458" on="0"/>
        <pt x="1192" y="426" on="1"/>
        <pt x="1171" y="319" on="0"/>
        <pt x="1017" y="130" on="0"/>
        <pt x="906" y="67" on="1"/>
        <pt x="857" y="39" on="0"/>
        <pt x="743" y="5" on="0"/>
        <pt x="636" y="-5" on="0"/>
        <pt x="576" y="-7" on="1"/>
        <pt x="546" y="-8" on="0"/>
        <pt x="490" y="-8" on="0"/>
        <pt x="462" y="-7" on="1"/>
      </contour>
      <contour>
        <pt x="460" y="113" on="1"/>
        <pt x="472" y="87" on="0"/>
        <pt x="584" y="87" on="1"/>
        <pt x="622" y="87" on="0"/>
        <pt x="701" y="119" on="0"/>
        <pt x="781" y="186" on="0"/>
        <pt x="846" y="309" on="0"/>
        <pt x="861" y="391" on="1"/>
        <pt x="872" y="443" on="0"/>
        <pt x="874" y="491" on="1"/>
        <pt x="874" y="497" on="0"/>
        <pt x="874" y="503" on="1"/>
        <pt x="874" y="544" on="0"/>
        <pt x="864" y="584" on="1"/>
        <pt x="854" y="630" on="0"/>
        <pt x="809" y="697" on="0"/>
        <pt x="727" y="737" on="0"/>
        <pt x="670" y="737" on="1"/>
        <pt x="564" y="737" on="1"/>
        <pt x="468" y="242" on="1"/>
        <pt x="457" y="172" on="0"/>
        <pt x="457" y="138" on="1"/>
        <pt x="457" y="121" on="0"/>
      </contour>
      <contour>
        <pt x="582" y="824" on="1"/>
        <pt x="688" y="824" on="1"/>
        <pt x="767" y="824" on="0"/>
        <pt x="890" y="959" on="0"/>
        <pt x="915" y="1081" on="1"/>
        <pt x="929" y="1154" on="0"/>
        <pt x="929" y="1209" on="1"/>
        <pt x="929" y="1376" on="0"/>
        <pt x="801" y="1376" on="1"/>
        <pt x="758" y="1376" on="0"/>
        <pt x="703" y="1366" on="0"/>
        <pt x="693" y="1350" on="1"/>
        <pt x="688" y="1342" on="0"/>
        <pt x="681" y="1323" on="0"/>
        <pt x="673" y="1293" on="0"/>
        <pt x="669" y="1274" on="0"/>
        <pt x="659" y="1225" on="0"/>
        <pt x="657" y="1214" on="1"/>
      </contour>
    </TTGlyph>
    <TTGlyph name="C" xMin="115" yMin="-16" xMax="1416" yMax="1481">
      <contour>
        <pt x="115" y="613" on="1"/>
        <pt x="115" y="747" on="0"/>
        <pt x="189" y="991" on="0"/>
        <pt x="317" y="1178" on="0"/>
        <pt x="487" y="1330" on="0"/>
        <pt x="681" y="1428" on="0"/>
        <pt x="885" y="1481" on="0"/>
        <pt x="983" y="1481" on="1"/>
        <pt x="1132" y="1481" on="0"/>
        <pt x="1416" y="1416" on="1"/>
        <pt x="1416" y="1398" on="0"/>
        <pt x="1391" y="1117" on="0"/>
        <pt x="1388" y="1097" on="1"/>
        <pt x="1386" y="1086" on="0"/>
        <pt x="1356" y="1066" on="0"/>
        <pt x="1339" y="1066" on="1"/>
        <pt x="1319" y="1066" on="0"/>
        <pt x="1312" y="1074" on="1"/>
        <pt x="1311" y="1095" on="0"/>
        <pt x="1302" y="1143" on="0"/>
        <pt x="1280" y="1205" on="0"/>
        <pt x="1247" y="1262" on="0"/>
        <pt x="1195" y="1318" on="0"/>
        <pt x="1130" y="1360" on="0"/>
        <pt x="1037" y="1385" on="0"/>
        <pt x="983" y="1385" on="1"/>
        <pt x="897" y="1385" on="0"/>
        <pt x="733" y="1311" on="0"/>
        <pt x="596" y="1170" on="0"/>
        <pt x="493" y="980" on="0"/>
        <pt x="435" y="732" on="0"/>
        <pt x="435" y="595" on="1"/>
        <pt x="435" y="549" on="0"/>
        <pt x="446" y="455" on="0"/>
        <pt x="472" y="353" on="0"/>
        <pt x="510" y="261" on="0"/>
        <pt x="571" y="178" on="0"/>
        <pt x="646" y="118" on="0"/>
        <pt x="750" y="82" on="0"/>
        <pt x="810" y="82" on="1"/>
        <pt x="886" y="82" on="0"/>
        <pt x="1024" y="134" on="0"/>
        <pt x="1077" y="178" on="1"/>
        <pt x="1123" y="215" on="0"/>
        <pt x="1219" y="348" on="0"/>
        <pt x="1268" y="437" on="0"/>
        <pt x="1274" y="453" on="1"/>
        <pt x="1320" y="453" on="0"/>
        <pt x="1343" y="426" on="1"/>
        <pt x="1338" y="399" on="0"/>
        <pt x="1213" y="100" on="0"/>
        <pt x="1192" y="89" on="1"/>
        <pt x="1096" y="35" on="0"/>
        <pt x="887" y="-16" on="0"/>
        <pt x="748" y="-16" on="1"/>
        <pt x="623" y="-16" on="0"/>
        <pt x="411" y="58" on="0"/>
        <pt x="265" y="182" on="0"/>
        <pt x="163" y="345" on="0"/>
        <pt x="115" y="522" on="0"/>
      </contour>
    </TTGlyph>
    <TTGlyph name="Ccedilla" xMin="115" yMin="-380" xMax="1416" yMax="1481">
      <contour>
        <pt x="115" y="613" on="1"/>
        <pt x="115" y="747" on="0"/>
        <pt x="189" y="991" on="0"/>
        <pt x="317" y="1178" on="0"/>
        <pt x="487" y="1330" on="0"/>
        <pt x="681" y="1428" on="0"/>
        <pt x="885" y="1481" on="0"/>
        <pt x="983" y="1481" on="1"/>
        <pt x="1132" y="1481" on="0"/>
        <pt x="1416" y="1416" on="1"/>
        <pt x="1416" y="1398" on="0"/>
        <pt x="1391" y="1117" on="0"/>
        <pt x="1388" y="1097" on="1"/>
        <pt x="1386" y="1086" on="0"/>
        <pt x="1356" y="1066" on="0"/>
        <pt x="1339" y="1066" on="1"/>
        <pt x="1319" y="1066" on="0"/>
        <pt x="1312" y="1074" on="1"/>
        <pt x="1311" y="1095" on="0"/>
        <pt x="1302" y="1143" on="0"/>
        <pt x="1280" y="1205" on="0"/>
        <pt x="1247" y="1262" on="0"/>
        <pt x="1195" y="1318" on="0"/>
        <pt x="1130" y="1360" on="0"/>
        <pt x="1037" y="1385" on="0"/>
        <pt x="983" y="1385" on="1"/>
        <pt x="897" y="1385" on="0"/>
        <pt x="733" y="1311" on="0"/>
        <pt x="596" y="1170" on="0"/>
        <pt x="493" y="980" on="0"/>
        <pt x="435" y="732" on="0"/>
        <pt x="435" y="595" on="1"/>
        <pt x="435" y="549" on="0"/>
        <pt x="446" y="455" on="0"/>
        <pt x="472" y="353" on="0"/>
        <pt x="510" y="261" on="0"/>
        <pt x="571" y="178" on="0"/>
        <pt x="646" y="118" on="0"/>
        <pt x="750" y="82" on="0"/>
        <pt x="810" y="82" on="1"/>
        <pt x="886" y="82" on="0"/>
        <pt x="1024" y="134" on="0"/>
        <pt x="1077" y="178" on="1"/>
        <pt x="1123" y="215" on="0"/>
        <pt x="1219" y="348" on="0"/>
        <pt x="1268" y="437" on="0"/>
        <pt x="1274" y="453" on="1"/>
        <pt x="1320" y="453" on="0"/>
        <pt x="1343" y="426" on="1"/>
        <pt x="1338" y="399" on="0"/>
        <pt x="1213" y="100" on="0"/>
        <pt x="1192" y="89" on="1"/>
        <pt x="1096" y="35" on="0"/>
        <pt x="887" y="-16" on="0"/>
        <pt x="748" y="-16" on="1"/>
        <pt x="623" y="-16" on="0"/>
        <pt x="411" y="58" on="0"/>
        <pt x="265" y="182" on="0"/>
        <pt x="163" y="345" on="0"/>
        <pt x="115" y="522" on="0"/>
      </contour>
      <contour>
        <pt x="484" y="-335" on="1"/>
        <pt x="484" y="-307" on="0"/>
        <pt x="510" y="-271" on="0"/>
        <pt x="528" y="-271" on="1"/>
        <pt x="543" y="-271" on="0"/>
        <pt x="572" y="-288" on="0"/>
        <pt x="594" y="-309" on="0"/>
        <pt x="632" y="-326" on="0"/>
        <pt x="655" y="-326" on="1"/>
        <pt x="698" y="-326" on="0"/>
        <pt x="755" y="-273" on="0"/>
        <pt x="755" y="-233" on="1"/>
        <pt x="755" y="-196" on="0"/>
        <pt x="714" y="-151" on="0"/>
        <pt x="688" y="-151" on="1"/>
        <pt x="662" y="-151" on="0"/>
        <pt x="619" y="-169" on="1"/>
        <pt x="615" y="-169" on="0"/>
        <pt x="584" y="-147" on="0"/>
        <pt x="584" y="-140" on="1"/>
        <pt x="584" y="-135" on="0"/>
        <pt x="610" y="-107" on="0"/>
        <pt x="668" y="-42" on="0"/>
        <pt x="695" y="-7" on="1"/>
        <pt x="764" y="-7" on="1"/>
        <pt x="708" y="-64" on="1"/>
        <pt x="748" y="-64" on="1"/>
        <pt x="795" y="-64" on="0"/>
        <pt x="877" y="-128" on="0"/>
        <pt x="877" y="-175" on="1"/>
        <pt x="877" y="-218" on="0"/>
        <pt x="830" y="-295" on="0"/>
        <pt x="752" y="-348" on="0"/>
        <pt x="649" y="-380" on="0"/>
        <pt x="595" y="-380" on="1"/>
        <pt x="571" y="-380" on="0"/>
        <pt x="502" y="-365" on="0"/>
        <pt x="493" y="-357" on="1"/>
        <pt x="484" y="-349" on="0"/>
      </contour>
    </TTGlyph>
    <TTGlyph name="D" xMin="-20" yMin="-7" xMax="1540" yMax="1465">
      <contour>
        <pt x="-18" y="-7" on="1"/>
        <pt x="-20" y="-2" on="0"/>
        <pt x="-20" y="8" on="1"/>
        <pt x="-20" y="19" on="0"/>
        <pt x="-18" y="34" on="1"/>
        <pt x="-12" y="64" on="0"/>
        <pt x="-2" y="75" on="1"/>
        <pt x="123" y="86" on="0"/>
        <pt x="138" y="113" on="1"/>
        <pt x="154" y="143" on="0"/>
        <pt x="177" y="235" on="0"/>
        <pt x="193" y="322" on="1"/>
        <pt x="353" y="1139" on="1"/>
        <pt x="355" y="1150" on="0"/>
        <pt x="365" y="1204" on="0"/>
        <pt x="369" y="1225" on="0"/>
        <pt x="376" y="1267" on="0"/>
        <pt x="378" y="1288" on="0"/>
        <pt x="381" y="1317" on="0"/>
        <pt x="379" y="1338" on="0"/>
        <pt x="377" y="1348" on="1"/>
        <pt x="377" y="1352" on="0"/>
        <pt x="369" y="1360" on="0"/>
        <pt x="356" y="1367" on="0"/>
        <pt x="342" y="1372" on="0"/>
        <pt x="321" y="1375" on="0"/>
        <pt x="305" y="1378" on="0"/>
        <pt x="283" y="1380" on="0"/>
        <pt x="271" y="1382" on="0"/>
        <pt x="253" y="1383" on="0"/>
        <pt x="251" y="1383" on="1"/>
        <pt x="248" y="1392" on="0"/>
        <pt x="252" y="1424" on="0"/>
        <pt x="263" y="1459" on="0"/>
        <pt x="269" y="1465" on="1"/>
        <pt x="360" y="1459" on="0"/>
        <pt x="562" y="1459" on="1"/>
        <pt x="611" y="1459" on="0"/>
        <pt x="839" y="1464" on="0"/>
        <pt x="879" y="1465" on="1"/>
        <pt x="1021" y="1465" on="0"/>
        <pt x="1255" y="1394" on="0"/>
        <pt x="1420" y="1262" on="0"/>
        <pt x="1524" y="1074" on="0"/>
        <pt x="1536" y="958" on="1"/>
        <pt x="1540" y="920" on="0"/>
        <pt x="1539" y="880" on="1"/>
        <pt x="1539" y="797" on="0"/>
        <pt x="1523" y="704" on="1"/>
        <pt x="1494" y="552" on="0"/>
        <pt x="1364" y="310" on="0"/>
        <pt x="1187" y="148" on="0"/>
        <pt x="960" y="41" on="0"/>
        <pt x="715" y="-7" on="0"/>
        <pt x="577" y="-7" on="1"/>
      </contour>
      <contour>
        <pt x="462" y="174" on="0"/>
        <pt x="462" y="147" on="0"/>
        <pt x="464" y="138" on="1"/>
        <pt x="466" y="126" on="0"/>
        <pt x="490" y="107" on="0"/>
        <pt x="523" y="94" on="0"/>
        <pt x="564" y="87" on="0"/>
        <pt x="584" y="87" on="1"/>
        <pt x="839" y="87" on="0"/>
        <pt x="1132" y="375" on="0"/>
        <pt x="1194" y="697" on="1"/>
        <pt x="1216" y="809" on="0"/>
        <pt x="1216" y="904" on="1"/>
        <pt x="1216" y="946" on="0"/>
        <pt x="1212" y="986" on="1"/>
        <pt x="1198" y="1112" on="0"/>
        <pt x="1091" y="1286" on="0"/>
        <pt x="916" y="1376" on="0"/>
        <pt x="801" y="1376" on="1"/>
        <pt x="758" y="1376" on="0"/>
        <pt x="703" y="1366" on="0"/>
        <pt x="693" y="1350" on="1"/>
        <pt x="688" y="1342" on="0"/>
        <pt x="681" y="1323" on="0"/>
        <pt x="673" y="1293" on="0"/>
        <pt x="669" y="1274" on="0"/>
        <pt x="659" y="1225" on="0"/>
        <pt x="657" y="1214" on="1"/>
        <pt x="482" y="313" on="1"/>
        <pt x="482" y="312" on="0"/>
        <pt x="478" y="292" on="0"/>
        <pt x="474" y="268" on="0"/>
        <pt x="468" y="237" on="0"/>
        <pt x="465" y="205" on="0"/>
      </contour>
    </TTGlyph>
    <TTGlyph name="E" xMin="-20" yMin="-7" xMax="1237" yMax="1474">
      <contour>
        <pt x="-18" y="-7" on="1"/>
        <pt x="-20" y="-2" on="0"/>
        <pt x="-20" y="8" on="1"/>
        <pt x="-20" y="19" on="0"/>
        <pt x="-18" y="34" on="1"/>
        <pt x="-12" y="64" on="0"/>
        <pt x="-2" y="75" on="1"/>
        <pt x="123" y="86" on="0"/>
        <pt x="138" y="113" on="1"/>
        <pt x="154" y="143" on="0"/>
        <pt x="177" y="235" on="0"/>
        <pt x="193" y="322" on="1"/>
        <pt x="353" y="1139" on="1"/>
        <pt x="355" y="1150" on="0"/>
        <pt x="365" y="1204" on="0"/>
        <pt x="369" y="1225" on="0"/>
        <pt x="376" y="1267" on="0"/>
        <pt x="378" y="1288" on="0"/>
        <pt x="381" y="1317" on="0"/>
        <pt x="379" y="1338" on="0"/>
        <pt x="377" y="1348" on="1"/>
        <pt x="377" y="1352" on="0"/>
        <pt x="369" y="1360" on="0"/>
        <pt x="356" y="1367" on="0"/>
        <pt x="342" y="1372" on="0"/>
        <pt x="321" y="1375" on="0"/>
        <pt x="305" y="1378" on="0"/>
        <pt x="283" y="1380" on="0"/>
        <pt x="271" y="1382" on="0"/>
        <pt x="253" y="1383" on="0"/>
        <pt x="251" y="1383" on="1"/>
        <pt x="248" y="1392" on="0"/>
        <pt x="252" y="1424" on="0"/>
        <pt x="263" y="1459" on="0"/>
        <pt x="269" y="1465" on="1"/>
        <pt x="360" y="1459" on="0"/>
        <pt x="562" y="1459" on="1"/>
        <pt x="599" y="1459" on="0"/>
        <pt x="880" y="1465" on="0"/>
        <pt x="1191" y="1473" on="0"/>
        <pt x="1237" y="1474" on="1"/>
        <pt x="1232" y="1400" on="0"/>
        <pt x="1232" y="1146" on="1"/>
        <pt x="1227" y="1141" on="0"/>
        <pt x="1194" y="1134" on="0"/>
        <pt x="1181" y="1134" on="1"/>
        <pt x="1156" y="1134" on="0"/>
        <pt x="1152" y="1152" on="1"/>
        <pt x="1145" y="1193" on="0"/>
        <pt x="1130" y="1253" on="0"/>
        <pt x="1103" y="1314" on="0"/>
        <pt x="1066" y="1352" on="0"/>
        <pt x="1009" y="1376" on="0"/>
        <pt x="972" y="1376" on="1"/>
        <pt x="801" y="1376" on="1"/>
        <pt x="758" y="1376" on="0"/>
        <pt x="703" y="1366" on="0"/>
        <pt x="693" y="1350" on="1"/>
        <pt x="688" y="1342" on="0"/>
        <pt x="681" y="1323" on="0"/>
        <pt x="673" y="1293" on="0"/>
        <pt x="669" y="1274" on="0"/>
        <pt x="659" y="1225" on="0"/>
        <pt x="657" y="1214" on="1"/>
        <pt x="579" y="817" on="1"/>
        <pt x="578" y="810" on="0"/>
        <pt x="602" y="799" on="0"/>
        <pt x="642" y="793" on="0"/>
        <pt x="664" y="793" on="1"/>
        <pt x="773" y="793" on="1"/>
        <pt x="836" y="793" on="0"/>
        <pt x="906" y="818" on="0"/>
        <pt x="955" y="881" on="0"/>
        <pt x="986" y="948" on="1"/>
        <pt x="993" y="966" on="0"/>
        <pt x="1012" y="966" on="1"/>
        <pt x="1043" y="966" on="0"/>
        <pt x="1050" y="955" on="1"/>
        <pt x="968" y="528" on="1"/>
        <pt x="959" y="519" on="0"/>
        <pt x="928" y="519" on="1"/>
        <pt x="904" y="519" on="0"/>
        <pt x="904" y="537" on="1"/>
        <pt x="902" y="575" on="0"/>
        <pt x="892" y="628" on="0"/>
        <pt x="878" y="656" on="0"/>
        <pt x="865" y="669" on="0"/>
        <pt x="857" y="673" on="1"/>
        <pt x="826" y="688" on="0"/>
        <pt x="704" y="688" on="1"/>
        <pt x="554" y="688" on="0"/>
        <pt x="548" y="657" on="1"/>
        <pt x="482" y="313" on="1"/>
        <pt x="482" y="312" on="0"/>
        <pt x="478" y="292" on="0"/>
        <pt x="474" y="268" on="0"/>
        <pt x="468" y="237" on="0"/>
        <pt x="465" y="205" on="0"/>
        <pt x="462" y="174" on="0"/>
        <pt x="462" y="147" on="0"/>
        <pt x="464" y="138" on="1"/>
        <pt x="467" y="123" on="0"/>
        <pt x="508" y="102" on="0"/>
        <pt x="560" y="93" on="0"/>
        <pt x="588" y="93" on="1"/>
        <pt x="726" y="93" on="1"/>
        <pt x="850" y="93" on="0"/>
        <pt x="932" y="166" on="1"/>
        <pt x="958" y="189" on="0"/>
        <pt x="1008" y="252" on="0"/>
        <pt x="1054" y="324" on="0"/>
        <pt x="1083" y="377" on="1"/>
        <pt x="1090" y="391" on="0"/>
        <pt x="1117" y="391" on="1"/>
        <pt x="1132" y="391" on="0"/>
        <pt x="1171" y="382" on="0"/>
        <pt x="1174" y="377" on="1"/>
        <pt x="1170" y="369" on="0"/>
        <pt x="1103" y="240" on="0"/>
        <pt x="1078" y="191" on="0"/>
        <pt x="1029" y="92" on="0"/>
        <pt x="1000" y="23" on="0"/>
        <pt x="990" y="-4" on="1"/>
        <pt x="266" y="-4" on="1"/>
        <pt x="204" y="-4" on="0"/>
        <pt x="75" y="-6" on="0"/>
        <pt x="-10" y="-7" on="0"/>
      </contour>
    </TTGlyph>
    <TTGlyph name="Eacute" xMin="-23" yMin="-7" xMax="1237" yMax="1849">
      <contour>
        <pt x="-18" y="-7" on="1"/>
        <pt x="-23" y="4" on="0"/>
        <pt x="-12" y="64" on="0"/>
        <pt x="-2" y="75" on="1"/>
        <pt x="123" y="86" on="0"/>
        <pt x="138" y="113" on="1"/>
        <pt x="154" y="143" on="0"/>
        <pt x="177" y="235" on="0"/>
        <pt x="193" y="322" on="1"/>
        <pt x="353" y="1139" on="1"/>
        <pt x="355" y="1150" on="0"/>
        <pt x="365" y="1204" on="0"/>
        <pt x="369" y="1225" on="0"/>
        <pt x="376" y="1267" on="0"/>
        <pt x="378" y="1288" on="0"/>
        <pt x="381" y="1317" on="0"/>
        <pt x="379" y="1338" on="0"/>
        <pt x="377" y="1348" on="1"/>
        <pt x="377" y="1352" on="0"/>
        <pt x="369" y="1360" on="0"/>
        <pt x="356" y="1367" on="0"/>
        <pt x="342" y="1372" on="0"/>
        <pt x="321" y="1375" on="0"/>
        <pt x="305" y="1378" on="0"/>
        <pt x="283" y="1380" on="0"/>
        <pt x="271" y="1382" on="0"/>
        <pt x="253" y="1383" on="0"/>
        <pt x="251" y="1383" on="1"/>
        <pt x="248" y="1392" on="0"/>
        <pt x="252" y="1424" on="0"/>
        <pt x="263" y="1459" on="0"/>
        <pt x="269" y="1465" on="1"/>
        <pt x="360" y="1459" on="0"/>
        <pt x="562" y="1459" on="1"/>
        <pt x="599" y="1459" on="0"/>
        <pt x="880" y="1465" on="0"/>
        <pt x="1191" y="1473" on="0"/>
        <pt x="1237" y="1474" on="1"/>
        <pt x="1232" y="1400" on="0"/>
        <pt x="1232" y="1146" on="1"/>
        <pt x="1227" y="1141" on="0"/>
        <pt x="1194" y="1134" on="0"/>
        <pt x="1181" y="1134" on="1"/>
        <pt x="1156" y="1134" on="0"/>
        <pt x="1152" y="1152" on="1"/>
        <pt x="1145" y="1193" on="0"/>
        <pt x="1130" y="1253" on="0"/>
        <pt x="1103" y="1314" on="0"/>
        <pt x="1066" y="1352" on="0"/>
        <pt x="1009" y="1376" on="0"/>
        <pt x="972" y="1376" on="1"/>
        <pt x="801" y="1376" on="1"/>
        <pt x="758" y="1376" on="0"/>
        <pt x="703" y="1366" on="0"/>
        <pt x="693" y="1350" on="1"/>
        <pt x="688" y="1342" on="0"/>
        <pt x="681" y="1323" on="0"/>
        <pt x="673" y="1293" on="0"/>
        <pt x="669" y="1274" on="0"/>
        <pt x="659" y="1225" on="0"/>
        <pt x="657" y="1214" on="1"/>
        <pt x="579" y="817" on="1"/>
        <pt x="578" y="810" on="0"/>
        <pt x="602" y="799" on="0"/>
        <pt x="642" y="793" on="0"/>
        <pt x="664" y="793" on="1"/>
        <pt x="773" y="793" on="1"/>
        <pt x="836" y="793" on="0"/>
        <pt x="906" y="818" on="0"/>
        <pt x="955" y="881" on="0"/>
        <pt x="986" y="948" on="1"/>
        <pt x="993" y="966" on="0"/>
        <pt x="1012" y="966" on="1"/>
        <pt x="1043" y="966" on="0"/>
        <pt x="1050" y="955" on="1"/>
        <pt x="968" y="528" on="1"/>
        <pt x="959" y="519" on="0"/>
        <pt x="928" y="519" on="1"/>
        <pt x="904" y="519" on="0"/>
        <pt x="904" y="537" on="1"/>
        <pt x="902" y="575" on="0"/>
        <pt x="892" y="628" on="0"/>
        <pt x="878" y="656" on="0"/>
        <pt x="865" y="669" on="0"/>
        <pt x="857" y="673" on="1"/>
        <pt x="826" y="688" on="0"/>
        <pt x="704" y="688" on="1"/>
        <pt x="554" y="688" on="0"/>
        <pt x="548" y="657" on="1"/>
        <pt x="482" y="313" on="1"/>
        <pt x="482" y="312" on="0"/>
        <pt x="478" y="292" on="0"/>
        <pt x="474" y="268" on="0"/>
        <pt x="468" y="237" on="0"/>
        <pt x="465" y="205" on="0"/>
        <pt x="462" y="174" on="0"/>
        <pt x="462" y="147" on="0"/>
        <pt x="464" y="138" on="1"/>
        <pt x="467" y="123" on="0"/>
        <pt x="508" y="102" on="0"/>
        <pt x="560" y="93" on="0"/>
        <pt x="588" y="93" on="1"/>
        <pt x="726" y="93" on="1"/>
        <pt x="850" y="93" on="0"/>
        <pt x="932" y="166" on="1"/>
        <pt x="958" y="189" on="0"/>
        <pt x="1008" y="252" on="0"/>
        <pt x="1054" y="324" on="0"/>
        <pt x="1083" y="377" on="1"/>
        <pt x="1090" y="391" on="0"/>
        <pt x="1117" y="391" on="1"/>
        <pt x="1132" y="391" on="0"/>
        <pt x="1171" y="382" on="0"/>
        <pt x="1174" y="377" on="1"/>
        <pt x="1170" y="369" on="0"/>
        <pt x="1103" y="240" on="0"/>
        <pt x="1078" y="191" on="0"/>
        <pt x="1029" y="92" on="0"/>
        <pt x="1000" y="23" on="0"/>
        <pt x="990" y="-4" on="1"/>
        <pt x="266" y="-4" on="1"/>
        <pt x="204" y="-4" on="0"/>
        <pt x="75" y="-6" on="0"/>
        <pt x="-10" y="-7" on="0"/>
      </contour>
      <contour>
        <pt x="706" y="1616" on="1"/>
        <pt x="713" y="1627" on="0"/>
        <pt x="786" y="1706" on="0"/>
        <pt x="899" y="1806" on="0"/>
        <pt x="941" y="1832" on="1"/>
        <pt x="955" y="1839" on="0"/>
        <pt x="1018" y="1849" on="0"/>
        <pt x="1043" y="1849" on="1"/>
        <pt x="1072" y="1849" on="0"/>
        <pt x="1125" y="1837" on="0"/>
        <pt x="1168" y="1803" on="0"/>
        <pt x="1168" y="1778" on="1"/>
        <pt x="1168" y="1748" on="0"/>
        <pt x="1041" y="1677" on="0"/>
        <pt x="875" y="1624" on="0"/>
        <pt x="745" y="1590" on="0"/>
        <pt x="726" y="1587" on="1"/>
        <pt x="706" y="1602" on="0"/>
      </contour>
    </TTGlyph>
    <TTGlyph name="Ecircumflex" xMin="-23" yMin="-7" xMax="1237" yMax="1931">
      <contour>
        <pt x="-18" y="-7" on="1"/>
        <pt x="-23" y="4" on="0"/>
        <pt x="-12" y="64" on="0"/>
        <pt x="-2" y="75" on="1"/>
        <pt x="123" y="86" on="0"/>
        <pt x="138" y="113" on="1"/>
        <pt x="154" y="143" on="0"/>
        <pt x="177" y="235" on="0"/>
        <pt x="193" y="322" on="1"/>
        <pt x="353" y="1139" on="1"/>
        <pt x="355" y="1150" on="0"/>
        <pt x="365" y="1204" on="0"/>
        <pt x="369" y="1225" on="0"/>
        <pt x="376" y="1267" on="0"/>
        <pt x="378" y="1288" on="0"/>
        <pt x="381" y="1317" on="0"/>
        <pt x="379" y="1338" on="0"/>
        <pt x="377" y="1348" on="1"/>
        <pt x="377" y="1352" on="0"/>
        <pt x="369" y="1360" on="0"/>
        <pt x="356" y="1367" on="0"/>
        <pt x="342" y="1372" on="0"/>
        <pt x="321" y="1375" on="0"/>
        <pt x="305" y="1378" on="0"/>
        <pt x="283" y="1380" on="0"/>
        <pt x="271" y="1382" on="0"/>
        <pt x="253" y="1383" on="0"/>
        <pt x="251" y="1383" on="1"/>
        <pt x="248" y="1392" on="0"/>
        <pt x="252" y="1424" on="0"/>
        <pt x="263" y="1459" on="0"/>
        <pt x="269" y="1465" on="1"/>
        <pt x="360" y="1459" on="0"/>
        <pt x="562" y="1459" on="1"/>
        <pt x="599" y="1459" on="0"/>
        <pt x="880" y="1465" on="0"/>
        <pt x="1191" y="1473" on="0"/>
        <pt x="1237" y="1474" on="1"/>
        <pt x="1232" y="1400" on="0"/>
        <pt x="1232" y="1146" on="1"/>
        <pt x="1227" y="1141" on="0"/>
        <pt x="1194" y="1134" on="0"/>
        <pt x="1181" y="1134" on="1"/>
        <pt x="1156" y="1134" on="0"/>
        <pt x="1152" y="1152" on="1"/>
        <pt x="1145" y="1193" on="0"/>
        <pt x="1130" y="1253" on="0"/>
        <pt x="1103" y="1314" on="0"/>
        <pt x="1066" y="1352" on="0"/>
        <pt x="1009" y="1376" on="0"/>
        <pt x="972" y="1376" on="1"/>
        <pt x="801" y="1376" on="1"/>
        <pt x="758" y="1376" on="0"/>
        <pt x="703" y="1366" on="0"/>
        <pt x="693" y="1350" on="1"/>
        <pt x="688" y="1342" on="0"/>
        <pt x="681" y="1323" on="0"/>
        <pt x="673" y="1293" on="0"/>
        <pt x="669" y="1274" on="0"/>
        <pt x="659" y="1225" on="0"/>
        <pt x="657" y="1214" on="1"/>
        <pt x="579" y="817" on="1"/>
        <pt x="578" y="810" on="0"/>
        <pt x="602" y="799" on="0"/>
        <pt x="642" y="793" on="0"/>
        <pt x="664" y="793" on="1"/>
        <pt x="773" y="793" on="1"/>
        <pt x="836" y="793" on="0"/>
        <pt x="906" y="818" on="0"/>
        <pt x="955" y="881" on="0"/>
        <pt x="986" y="948" on="1"/>
        <pt x="993" y="966" on="0"/>
        <pt x="1012" y="966" on="1"/>
        <pt x="1043" y="966" on="0"/>
        <pt x="1050" y="955" on="1"/>
        <pt x="968" y="528" on="1"/>
        <pt x="959" y="519" on="0"/>
        <pt x="928" y="519" on="1"/>
        <pt x="904" y="519" on="0"/>
        <pt x="904" y="537" on="1"/>
        <pt x="902" y="575" on="0"/>
        <pt x="892" y="628" on="0"/>
        <pt x="878" y="656" on="0"/>
        <pt x="865" y="669" on="0"/>
        <pt x="857" y="673" on="1"/>
        <pt x="826" y="688" on="0"/>
        <pt x="704" y="688" on="1"/>
        <pt x="554" y="688" on="0"/>
        <pt x="548" y="657" on="1"/>
        <pt x="482" y="313" on="1"/>
        <pt x="482" y="312" on="0"/>
        <pt x="478" y="292" on="0"/>
        <pt x="474" y="268" on="0"/>
        <pt x="468" y="237" on="0"/>
        <pt x="465" y="205" on="0"/>
        <pt x="462" y="174" on="0"/>
        <pt x="462" y="147" on="0"/>
        <pt x="464" y="138" on="1"/>
        <pt x="467" y="123" on="0"/>
        <pt x="508" y="102" on="0"/>
        <pt x="560" y="93" on="0"/>
        <pt x="588" y="93" on="1"/>
        <pt x="726" y="93" on="1"/>
        <pt x="850" y="93" on="0"/>
        <pt x="932" y="166" on="1"/>
        <pt x="958" y="189" on="0"/>
        <pt x="1008" y="252" on="0"/>
        <pt x="1054" y="324" on="0"/>
        <pt x="1083" y="377" on="1"/>
        <pt x="1090" y="391" on="0"/>
        <pt x="1117" y="391" on="1"/>
        <pt x="1132" y="391" on="0"/>
        <pt x="1171" y="382" on="0"/>
        <pt x="1174" y="377" on="1"/>
        <pt x="1170" y="369" on="0"/>
        <pt x="1103" y="240" on="0"/>
        <pt x="1078" y="191" on="0"/>
        <pt x="1029" y="92" on="0"/>
        <pt x="1000" y="23" on="0"/>
        <pt x="990" y="-4" on="1"/>
        <pt x="266" y="-4" on="1"/>
        <pt x="204" y="-4" on="0"/>
        <pt x="75" y="-6" on="0"/>
        <pt x="-10" y="-7" on="0"/>
      </contour>
      <contour>
        <pt x="515" y="1656" on="1"/>
        <pt x="604" y="1726" on="0"/>
        <pt x="790" y="1880" on="0"/>
        <pt x="821" y="1909" on="1"/>
        <pt x="844" y="1931" on="0"/>
        <pt x="852" y="1931" on="1"/>
        <pt x="855" y="1931" on="0"/>
        <pt x="860" y="1929" on="0"/>
        <pt x="865" y="1924" on="0"/>
        <pt x="868" y="1920" on="0"/>
        <pt x="875" y="1911" on="0"/>
        <pt x="877" y="1909" on="1"/>
        <pt x="895" y="1885" on="0"/>
        <pt x="952" y="1814" on="0"/>
        <pt x="1013" y="1743" on="0"/>
        <pt x="1072" y="1675" on="0"/>
        <pt x="1090" y="1656" on="1"/>
        <pt x="1087" y="1628" on="0"/>
        <pt x="1063" y="1621" on="1"/>
        <pt x="1051" y="1624" on="0"/>
        <pt x="958" y="1671" on="0"/>
        <pt x="849" y="1733" on="0"/>
        <pt x="821" y="1754" on="1"/>
        <pt x="765" y="1722" on="0"/>
        <pt x="558" y="1628" on="0"/>
        <pt x="531" y="1621" on="1"/>
        <pt x="524" y="1624" on="0"/>
        <pt x="513" y="1646" on="0"/>
      </contour>
    </TTGlyph>
    <TTGlyph name="Edieresis" xMin="-23" yMin="-7" xMax="1237" yMax="1925">
      <contour>
        <pt x="-18" y="-7" on="1"/>
        <pt x="-23" y="4" on="0"/>
        <pt x="-12" y="64" on="0"/>
        <pt x="-2" y="75" on="1"/>
        <pt x="123" y="86" on="0"/>
        <pt x="138" y="113" on="1"/>
        <pt x="154" y="143" on="0"/>
        <pt x="177" y="235" on="0"/>
        <pt x="193" y="322" on="1"/>
        <pt x="353" y="1139" on="1"/>
        <pt x="355" y="1150" on="0"/>
        <pt x="365" y="1204" on="0"/>
        <pt x="369" y="1225" on="0"/>
        <pt x="376" y="1267" on="0"/>
        <pt x="378" y="1288" on="0"/>
        <pt x="381" y="1317" on="0"/>
        <pt x="379" y="1338" on="0"/>
        <pt x="377" y="1348" on="1"/>
        <pt x="377" y="1352" on="0"/>
        <pt x="369" y="1360" on="0"/>
        <pt x="356" y="1367" on="0"/>
        <pt x="342" y="1372" on="0"/>
        <pt x="321" y="1375" on="0"/>
        <pt x="305" y="1378" on="0"/>
        <pt x="283" y="1380" on="0"/>
        <pt x="271" y="1382" on="0"/>
        <pt x="253" y="1383" on="0"/>
        <pt x="251" y="1383" on="1"/>
        <pt x="248" y="1392" on="0"/>
        <pt x="252" y="1424" on="0"/>
        <pt x="263" y="1459" on="0"/>
        <pt x="269" y="1465" on="1"/>
        <pt x="360" y="1459" on="0"/>
        <pt x="562" y="1459" on="1"/>
        <pt x="599" y="1459" on="0"/>
        <pt x="880" y="1465" on="0"/>
        <pt x="1191" y="1473" on="0"/>
        <pt x="1237" y="1474" on="1"/>
        <pt x="1232" y="1400" on="0"/>
        <pt x="1232" y="1146" on="1"/>
        <pt x="1227" y="1141" on="0"/>
        <pt x="1194" y="1134" on="0"/>
        <pt x="1181" y="1134" on="1"/>
        <pt x="1156" y="1134" on="0"/>
        <pt x="1152" y="1152" on="1"/>
        <pt x="1145" y="1193" on="0"/>
        <pt x="1130" y="1253" on="0"/>
        <pt x="1103" y="1314" on="0"/>
        <pt x="1066" y="1352" on="0"/>
        <pt x="1009" y="1376" on="0"/>
        <pt x="972" y="1376" on="1"/>
        <pt x="801" y="1376" on="1"/>
        <pt x="758" y="1376" on="0"/>
        <pt x="703" y="1366" on="0"/>
        <pt x="693" y="1350" on="1"/>
        <pt x="688" y="1342" on="0"/>
        <pt x="681" y="1323" on="0"/>
        <pt x="673" y="1293" on="0"/>
        <pt x="669" y="1274" on="0"/>
        <pt x="659" y="1225" on="0"/>
        <pt x="657" y="1214" on="1"/>
        <pt x="579" y="817" on="1"/>
        <pt x="578" y="810" on="0"/>
        <pt x="602" y="799" on="0"/>
        <pt x="642" y="793" on="0"/>
        <pt x="664" y="793" on="1"/>
        <pt x="773" y="793" on="1"/>
        <pt x="836" y="793" on="0"/>
        <pt x="906" y="818" on="0"/>
        <pt x="955" y="881" on="0"/>
        <pt x="986" y="948" on="1"/>
        <pt x="993" y="966" on="0"/>
        <pt x="1012" y="966" on="1"/>
        <pt x="1043" y="966" on="0"/>
        <pt x="1050" y="955" on="1"/>
        <pt x="968" y="528" on="1"/>
        <pt x="959" y="519" on="0"/>
        <pt x="928" y="519" on="1"/>
        <pt x="904" y="519" on="0"/>
        <pt x="904" y="537" on="1"/>
        <pt x="902" y="575" on="0"/>
        <pt x="892" y="628" on="0"/>
        <pt x="878" y="656" on="0"/>
        <pt x="865" y="669" on="0"/>
        <pt x="857" y="673" on="1"/>
        <pt x="826" y="688" on="0"/>
        <pt x="704" y="688" on="1"/>
        <pt x="554" y="688" on="0"/>
        <pt x="548" y="657" on="1"/>
        <pt x="482" y="313" on="1"/>
        <pt x="482" y="312" on="0"/>
        <pt x="478" y="292" on="0"/>
        <pt x="474" y="268" on="0"/>
        <pt x="468" y="237" on="0"/>
        <pt x="465" y="205" on="0"/>
        <pt x="462" y="174" on="0"/>
        <pt x="462" y="147" on="0"/>
        <pt x="464" y="138" on="1"/>
        <pt x="467" y="123" on="0"/>
        <pt x="508" y="102" on="0"/>
        <pt x="560" y="93" on="0"/>
        <pt x="588" y="93" on="1"/>
        <pt x="726" y="93" on="1"/>
        <pt x="850" y="93" on="0"/>
        <pt x="932" y="166" on="1"/>
        <pt x="958" y="189" on="0"/>
        <pt x="1008" y="252" on="0"/>
        <pt x="1054" y="324" on="0"/>
        <pt x="1083" y="377" on="1"/>
        <pt x="1090" y="391" on="0"/>
        <pt x="1117" y="391" on="1"/>
        <pt x="1132" y="391" on="0"/>
        <pt x="1171" y="382" on="0"/>
        <pt x="1174" y="377" on="1"/>
        <pt x="1170" y="369" on="0"/>
        <pt x="1103" y="240" on="0"/>
        <pt x="1078" y="191" on="0"/>
        <pt x="1029" y="92" on="0"/>
        <pt x="1000" y="23" on="0"/>
        <pt x="990" y="-4" on="1"/>
        <pt x="266" y="-4" on="1"/>
        <pt x="204" y="-4" on="0"/>
        <pt x="75" y="-6" on="0"/>
        <pt x="-10" y="-7" on="0"/>
      </contour>
      <contour>
        <pt x="515" y="1776" on="1"/>
        <pt x="527" y="1838" on="0"/>
        <pt x="625" y="1925" on="0"/>
        <pt x="684" y="1925" on="1"/>
        <pt x="741" y="1925" on="0"/>
        <pt x="806" y="1837" on="0"/>
        <pt x="795" y="1776" on="1"/>
        <pt x="783" y="1713" on="0"/>
        <pt x="685" y="1618" on="0"/>
        <pt x="628" y="1618" on="1"/>
        <pt x="569" y="1618" on="0"/>
        <pt x="503" y="1713" on="0"/>
      </contour>
      <contour>
        <pt x="946" y="1776" on="1"/>
        <pt x="957" y="1838" on="0"/>
        <pt x="1056" y="1925" on="0"/>
        <pt x="1114" y="1925" on="1"/>
        <pt x="1171" y="1925" on="0"/>
        <pt x="1237" y="1837" on="0"/>
        <pt x="1225" y="1776" on="1"/>
        <pt x="1214" y="1713" on="0"/>
        <pt x="1116" y="1618" on="0"/>
        <pt x="1059" y="1618" on="1"/>
        <pt x="1020" y="1618" on="0"/>
        <pt x="962" y="1663" on="0"/>
        <pt x="938" y="1735" on="0"/>
      </contour>
    </TTGlyph>
    <TTGlyph name="Egrave" xMin="-23" yMin="-7" xMax="1237" yMax="1849">
      <contour>
        <pt x="-18" y="-7" on="1"/>
        <pt x="-23" y="4" on="0"/>
        <pt x="-12" y="64" on="0"/>
        <pt x="-2" y="75" on="1"/>
        <pt x="123" y="86" on="0"/>
        <pt x="138" y="113" on="1"/>
        <pt x="154" y="143" on="0"/>
        <pt x="177" y="235" on="0"/>
        <pt x="193" y="322" on="1"/>
        <pt x="353" y="1139" on="1"/>
        <pt x="355" y="1150" on="0"/>
        <pt x="365" y="1204" on="0"/>
        <pt x="369" y="1225" on="0"/>
        <pt x="376" y="1267" on="0"/>
        <pt x="378" y="1288" on="0"/>
        <pt x="381" y="1317" on="0"/>
        <pt x="379" y="1338" on="0"/>
        <pt x="377" y="1348" on="1"/>
        <pt x="377" y="1352" on="0"/>
        <pt x="369" y="1360" on="0"/>
        <pt x="356" y="1367" on="0"/>
        <pt x="342" y="1372" on="0"/>
        <pt x="321" y="1375" on="0"/>
        <pt x="305" y="1378" on="0"/>
        <pt x="283" y="1380" on="0"/>
        <pt x="271" y="1382" on="0"/>
        <pt x="253" y="1383" on="0"/>
        <pt x="251" y="1383" on="1"/>
        <pt x="248" y="1392" on="0"/>
        <pt x="252" y="1424" on="0"/>
        <pt x="263" y="1459" on="0"/>
        <pt x="269" y="1465" on="1"/>
        <pt x="360" y="1459" on="0"/>
        <pt x="562" y="1459" on="1"/>
        <pt x="599" y="1459" on="0"/>
        <pt x="880" y="1465" on="0"/>
        <pt x="1191" y="1473" on="0"/>
        <pt x="1237" y="1474" on="1"/>
        <pt x="1232" y="1400" on="0"/>
        <pt x="1232" y="1146" on="1"/>
        <pt x="1227" y="1141" on="0"/>
        <pt x="1194" y="1134" on="0"/>
        <pt x="1181" y="1134" on="1"/>
        <pt x="1156" y="1134" on="0"/>
        <pt x="1152" y="1152" on="1"/>
        <pt x="1145" y="1193" on="0"/>
        <pt x="1130" y="1253" on="0"/>
        <pt x="1103" y="1314" on="0"/>
        <pt x="1066" y="1352" on="0"/>
        <pt x="1009" y="1376" on="0"/>
        <pt x="972" y="1376" on="1"/>
        <pt x="801" y="1376" on="1"/>
        <pt x="758" y="1376" on="0"/>
        <pt x="703" y="1366" on="0"/>
        <pt x="693" y="1350" on="1"/>
        <pt x="688" y="1342" on="0"/>
        <pt x="681" y="1323" on="0"/>
        <pt x="673" y="1293" on="0"/>
        <pt x="669" y="1274" on="0"/>
        <pt x="659" y="1225" on="0"/>
        <pt x="657" y="1214" on="1"/>
        <pt x="579" y="817" on="1"/>
        <pt x="578" y="810" on="0"/>
        <pt x="602" y="799" on="0"/>
        <pt x="642" y="793" on="0"/>
        <pt x="664" y="793" on="1"/>
        <pt x="773" y="793" on="1"/>
        <pt x="836" y="793" on="0"/>
        <pt x="906" y="818" on="0"/>
        <pt x="955" y="881" on="0"/>
        <pt x="986" y="948" on="1"/>
        <pt x="993" y="966" on="0"/>
        <pt x="1012" y="966" on="1"/>
        <pt x="1043" y="966" on="0"/>
        <pt x="1050" y="955" on="1"/>
        <pt x="968" y="528" on="1"/>
        <pt x="959" y="519" on="0"/>
        <pt x="928" y="519" on="1"/>
        <pt x="904" y="519" on="0"/>
        <pt x="904" y="537" on="1"/>
        <pt x="902" y="575" on="0"/>
        <pt x="892" y="628" on="0"/>
        <pt x="878" y="656" on="0"/>
        <pt x="865" y="669" on="0"/>
        <pt x="857" y="673" on="1"/>
        <pt x="826" y="688" on="0"/>
        <pt x="704" y="688" on="1"/>
        <pt x="554" y="688" on="0"/>
        <pt x="548" y="657" on="1"/>
        <pt x="482" y="313" on="1"/>
        <pt x="482" y="312" on="0"/>
        <pt x="478" y="292" on="0"/>
        <pt x="474" y="268" on="0"/>
        <pt x="468" y="237" on="0"/>
        <pt x="465" y="205" on="0"/>
        <pt x="462" y="174" on="0"/>
        <pt x="462" y="147" on="0"/>
        <pt x="464" y="138" on="1"/>
        <pt x="467" y="123" on="0"/>
        <pt x="508" y="102" on="0"/>
        <pt x="560" y="93" on="0"/>
        <pt x="588" y="93" on="1"/>
        <pt x="726" y="93" on="1"/>
        <pt x="850" y="93" on="0"/>
        <pt x="932" y="166" on="1"/>
        <pt x="958" y="189" on="0"/>
        <pt x="1008" y="252" on="0"/>
        <pt x="1054" y="324" on="0"/>
        <pt x="1083" y="377" on="1"/>
        <pt x="1090" y="391" on="0"/>
        <pt x="1117" y="391" on="1"/>
        <pt x="1132" y="391" on="0"/>
        <pt x="1171" y="382" on="0"/>
        <pt x="1174" y="377" on="1"/>
        <pt x="1170" y="369" on="0"/>
        <pt x="1103" y="240" on="0"/>
        <pt x="1078" y="191" on="0"/>
        <pt x="1029" y="92" on="0"/>
        <pt x="1000" y="23" on="0"/>
        <pt x="990" y="-4" on="1"/>
        <pt x="266" y="-4" on="1"/>
        <pt x="204" y="-4" on="0"/>
        <pt x="75" y="-6" on="0"/>
        <pt x="-10" y="-7" on="0"/>
      </contour>
      <contour>
        <pt x="491" y="1778" on="1"/>
        <pt x="491" y="1797" on="0"/>
        <pt x="515" y="1826" on="0"/>
        <pt x="553" y="1842" on="0"/>
        <pt x="594" y="1849" on="0"/>
        <pt x="615" y="1849" on="1"/>
        <pt x="631" y="1849" on="0"/>
        <pt x="670" y="1845" on="0"/>
        <pt x="708" y="1837" on="0"/>
        <pt x="717" y="1832" on="1"/>
        <pt x="759" y="1806" on="0"/>
        <pt x="872" y="1706" on="0"/>
        <pt x="945" y="1627" on="0"/>
        <pt x="952" y="1616" on="1"/>
        <pt x="952" y="1602" on="0"/>
        <pt x="932" y="1587" on="1"/>
        <pt x="914" y="1590" on="0"/>
        <pt x="783" y="1624" on="0"/>
        <pt x="617" y="1677" on="0"/>
        <pt x="491" y="1748" on="0"/>
      </contour>
    </TTGlyph>
    <TTGlyph name="Eth" xMin="-21" yMin="-7" xMax="1550" yMax="1465">
      <contour>
        <pt x="-16" y="-7" on="1"/>
        <pt x="-21" y="4" on="0"/>
        <pt x="-10" y="64" on="0"/>
        <pt x="0" y="75" on="1"/>
        <pt x="125" y="86" on="0"/>
        <pt x="140" y="113" on="1"/>
        <pt x="156" y="143" on="0"/>
        <pt x="179" y="235" on="0"/>
        <pt x="195" y="322" on="1"/>
        <pt x="355" y="1139" on="1"/>
        <pt x="357" y="1150" on="0"/>
        <pt x="368" y="1204" on="0"/>
        <pt x="371" y="1225" on="0"/>
        <pt x="378" y="1267" on="0"/>
        <pt x="380" y="1288" on="0"/>
        <pt x="383" y="1317" on="0"/>
        <pt x="381" y="1338" on="0"/>
        <pt x="380" y="1348" on="1"/>
        <pt x="379" y="1352" on="0"/>
        <pt x="371" y="1360" on="0"/>
        <pt x="358" y="1367" on="0"/>
        <pt x="344" y="1372" on="0"/>
        <pt x="323" y="1375" on="0"/>
        <pt x="308" y="1378" on="0"/>
        <pt x="285" y="1380" on="0"/>
        <pt x="273" y="1382" on="0"/>
        <pt x="255" y="1383" on="0"/>
        <pt x="253" y="1383" on="1"/>
        <pt x="248" y="1394" on="0"/>
        <pt x="262" y="1455" on="0"/>
        <pt x="271" y="1465" on="1"/>
        <pt x="362" y="1459" on="0"/>
        <pt x="564" y="1459" on="1"/>
        <pt x="613" y="1459" on="0"/>
        <pt x="841" y="1464" on="0"/>
        <pt x="881" y="1465" on="1"/>
        <pt x="1023" y="1465" on="0"/>
        <pt x="1257" y="1394" on="0"/>
        <pt x="1422" y="1262" on="0"/>
        <pt x="1527" y="1074" on="0"/>
        <pt x="1550" y="841" on="0"/>
        <pt x="1525" y="704" on="1"/>
        <pt x="1496" y="552" on="0"/>
        <pt x="1366" y="310" on="0"/>
        <pt x="1190" y="148" on="0"/>
        <pt x="962" y="41" on="0"/>
        <pt x="717" y="-7" on="0"/>
        <pt x="579" y="-7" on="1"/>
      </contour>
      <contour>
        <pt x="112" y="675" on="0"/>
        <pt x="109" y="693" on="0"/>
        <pt x="111" y="699" on="1"/>
        <pt x="121" y="749" on="0"/>
        <pt x="133" y="761" on="1"/>
        <pt x="866" y="761" on="1"/>
        <pt x="872" y="761" on="0"/>
        <pt x="879" y="751" on="0"/>
        <pt x="877" y="744" on="1"/>
        <pt x="867" y="696" on="0"/>
        <pt x="852" y="675" on="1"/>
        <pt x="118" y="675" on="1"/>
      </contour>
      <contour>
        <pt x="464" y="174" on="0"/>
        <pt x="464" y="147" on="0"/>
        <pt x="466" y="138" on="1"/>
        <pt x="471" y="115" on="0"/>
        <pt x="544" y="87" on="0"/>
        <pt x="586" y="87" on="1"/>
        <pt x="841" y="87" on="0"/>
        <pt x="1134" y="375" on="0"/>
        <pt x="1197" y="697" on="1"/>
        <pt x="1228" y="860" on="0"/>
        <pt x="1200" y="1113" on="0"/>
        <pt x="1094" y="1286" on="0"/>
        <pt x="919" y="1376" on="0"/>
        <pt x="804" y="1376" on="1"/>
        <pt x="760" y="1376" on="0"/>
        <pt x="705" y="1366" on="0"/>
        <pt x="695" y="1350" on="1"/>
        <pt x="690" y="1342" on="0"/>
        <pt x="683" y="1323" on="0"/>
        <pt x="675" y="1293" on="0"/>
        <pt x="671" y="1274" on="0"/>
        <pt x="662" y="1225" on="0"/>
        <pt x="659" y="1214" on="1"/>
        <pt x="484" y="313" on="1"/>
        <pt x="484" y="312" on="0"/>
        <pt x="480" y="292" on="0"/>
        <pt x="476" y="268" on="0"/>
        <pt x="471" y="237" on="0"/>
        <pt x="467" y="205" on="0"/>
      </contour>
    </TTGlyph>
    <TTGlyph name="Euro" xMin="49" yMin="-16" xMax="1434" yMax="1481">
      <contour>
        <pt x="49" y="573" on="1"/>
        <pt x="49" y="587" on="0"/>
        <pt x="67" y="641" on="0"/>
        <pt x="78" y="650" on="1"/>
        <pt x="158" y="650" on="1"/>
        <pt x="161" y="723" on="0"/>
        <pt x="173" y="779" on="1"/>
        <pt x="91" y="779" on="1"/>
        <pt x="82" y="779" on="0"/>
        <pt x="82" y="797" on="1"/>
        <pt x="82" y="805" on="0"/>
        <pt x="90" y="836" on="0"/>
        <pt x="104" y="869" on="0"/>
        <pt x="111" y="875" on="1"/>
        <pt x="195" y="875" on="1"/>
        <pt x="225" y="970" on="0"/>
        <pt x="327" y="1140" on="0"/>
        <pt x="455" y="1271" on="0"/>
        <pt x="605" y="1377" on="0"/>
        <pt x="764" y="1445" on="0"/>
        <pt x="925" y="1481" on="0"/>
        <pt x="1001" y="1481" on="1"/>
        <pt x="1150" y="1481" on="0"/>
        <pt x="1434" y="1416" on="1"/>
        <pt x="1434" y="1405" on="0"/>
        <pt x="1422" y="1257" on="0"/>
        <pt x="1407" y="1109" on="0"/>
        <pt x="1405" y="1097" on="1"/>
        <pt x="1404" y="1090" on="0"/>
        <pt x="1390" y="1076" on="0"/>
        <pt x="1368" y="1066" on="0"/>
        <pt x="1356" y="1066" on="1"/>
        <pt x="1336" y="1066" on="0"/>
        <pt x="1330" y="1074" on="1"/>
        <pt x="1329" y="1095" on="0"/>
        <pt x="1319" y="1143" on="0"/>
        <pt x="1297" y="1205" on="0"/>
        <pt x="1265" y="1262" on="0"/>
        <pt x="1213" y="1318" on="0"/>
        <pt x="1148" y="1360" on="0"/>
        <pt x="1055" y="1385" on="0"/>
        <pt x="1001" y="1385" on="1"/>
        <pt x="891" y="1385" on="0"/>
        <pt x="694" y="1260" on="0"/>
        <pt x="546" y="1028" on="0"/>
        <pt x="508" y="875" on="1"/>
        <pt x="861" y="875" on="1"/>
        <pt x="868" y="875" on="0"/>
        <pt x="868" y="857" on="1"/>
        <pt x="868" y="843" on="0"/>
        <pt x="854" y="792" on="0"/>
        <pt x="841" y="779" on="1"/>
        <pt x="491" y="779" on="1"/>
        <pt x="480" y="709" on="0"/>
        <pt x="480" y="650" on="1"/>
        <pt x="828" y="650" on="1"/>
        <pt x="835" y="650" on="0"/>
        <pt x="835" y="633" on="1"/>
        <pt x="835" y="619" on="0"/>
        <pt x="821" y="568" on="0"/>
        <pt x="808" y="555" on="1"/>
        <pt x="477" y="555" on="1"/>
        <pt x="481" y="491" on="0"/>
        <pt x="506" y="365" on="0"/>
        <pt x="560" y="238" on="0"/>
        <pt x="635" y="142" on="0"/>
        <pt x="750" y="82" on="0"/>
        <pt x="819" y="82" on="1"/>
        <pt x="977" y="82" on="0"/>
        <pt x="1094" y="180" on="1"/>
        <pt x="1140" y="218" on="0"/>
        <pt x="1233" y="351" on="0"/>
        <pt x="1276" y="435" on="0"/>
        <pt x="1283" y="453" on="1"/>
        <pt x="1329" y="453" on="0"/>
        <pt x="1352" y="426" on="1"/>
        <pt x="1351" y="419" on="0"/>
        <pt x="1325" y="349" on="0"/>
        <pt x="1287" y="255" on="0"/>
        <pt x="1246" y="162" on="0"/>
        <pt x="1210" y="94" on="0"/>
        <pt x="1201" y="89" on="1"/>
        <pt x="1104" y="35" on="0"/>
        <pt x="896" y="-16" on="0"/>
        <pt x="757" y="-16" on="1"/>
        <pt x="648" y="-16" on="0"/>
        <pt x="459" y="49" on="0"/>
        <pt x="323" y="159" on="0"/>
        <pt x="222" y="306" on="0"/>
        <pt x="167" y="469" on="0"/>
        <pt x="160" y="555" on="1"/>
        <pt x="58" y="555" on="1"/>
        <pt x="49" y="555" on="0"/>
      </contour>
    </TTGlyph>
    <TTGlyph name="F" xMin="-22" yMin="-9" xMax="1237" yMax="1474">
      <contour>
        <pt x="-20" y="-9" on="1"/>
        <pt x="-22" y="-5" on="0"/>
        <pt x="-22" y="4" on="1"/>
        <pt x="-22" y="16" on="0"/>
        <pt x="-18" y="32" on="1"/>
        <pt x="-12" y="62" on="0"/>
        <pt x="-2" y="73" on="1"/>
        <pt x="122" y="84" on="0"/>
        <pt x="138" y="113" on="1"/>
        <pt x="154" y="143" on="0"/>
        <pt x="177" y="235" on="0"/>
        <pt x="193" y="322" on="1"/>
        <pt x="353" y="1139" on="1"/>
        <pt x="355" y="1150" on="0"/>
        <pt x="365" y="1204" on="0"/>
        <pt x="369" y="1225" on="0"/>
        <pt x="376" y="1267" on="0"/>
        <pt x="378" y="1288" on="0"/>
        <pt x="381" y="1317" on="0"/>
        <pt x="379" y="1338" on="0"/>
        <pt x="377" y="1348" on="1"/>
        <pt x="377" y="1352" on="0"/>
        <pt x="369" y="1360" on="0"/>
        <pt x="356" y="1367" on="0"/>
        <pt x="342" y="1372" on="0"/>
        <pt x="321" y="1375" on="0"/>
        <pt x="305" y="1378" on="0"/>
        <pt x="283" y="1380" on="0"/>
        <pt x="271" y="1382" on="0"/>
        <pt x="253" y="1383" on="0"/>
        <pt x="251" y="1383" on="1"/>
        <pt x="248" y="1392" on="0"/>
        <pt x="252" y="1424" on="0"/>
        <pt x="263" y="1459" on="0"/>
        <pt x="269" y="1465" on="1"/>
        <pt x="360" y="1459" on="0"/>
        <pt x="562" y="1459" on="1"/>
        <pt x="599" y="1459" on="0"/>
        <pt x="880" y="1465" on="0"/>
        <pt x="1191" y="1473" on="0"/>
        <pt x="1237" y="1474" on="1"/>
        <pt x="1232" y="1400" on="0"/>
        <pt x="1232" y="1146" on="1"/>
        <pt x="1227" y="1141" on="0"/>
        <pt x="1194" y="1134" on="0"/>
        <pt x="1181" y="1134" on="1"/>
        <pt x="1156" y="1134" on="0"/>
        <pt x="1152" y="1152" on="1"/>
        <pt x="1145" y="1193" on="0"/>
        <pt x="1130" y="1253" on="0"/>
        <pt x="1103" y="1314" on="0"/>
        <pt x="1066" y="1352" on="0"/>
        <pt x="1009" y="1376" on="0"/>
        <pt x="972" y="1376" on="1"/>
        <pt x="801" y="1376" on="1"/>
        <pt x="758" y="1376" on="0"/>
        <pt x="703" y="1366" on="0"/>
        <pt x="693" y="1350" on="1"/>
        <pt x="688" y="1342" on="0"/>
        <pt x="681" y="1323" on="0"/>
        <pt x="673" y="1293" on="0"/>
        <pt x="669" y="1274" on="0"/>
        <pt x="659" y="1225" on="0"/>
        <pt x="657" y="1214" on="1"/>
        <pt x="577" y="808" on="1"/>
        <pt x="576" y="798" on="0"/>
        <pt x="628" y="784" on="0"/>
        <pt x="662" y="784" on="1"/>
        <pt x="770" y="784" on="1"/>
        <pt x="833" y="784" on="0"/>
        <pt x="903" y="809" on="0"/>
        <pt x="953" y="872" on="0"/>
        <pt x="983" y="939" on="1"/>
        <pt x="991" y="957" on="0"/>
        <pt x="1010" y="957" on="1"/>
        <pt x="1040" y="957" on="0"/>
        <pt x="1048" y="946" on="1"/>
        <pt x="966" y="519" on="1"/>
        <pt x="957" y="511" on="0"/>
        <pt x="926" y="511" on="1"/>
        <pt x="901" y="511" on="0"/>
        <pt x="901" y="528" on="1"/>
        <pt x="899" y="578" on="0"/>
        <pt x="882" y="639" on="0"/>
        <pt x="866" y="658" on="0"/>
        <pt x="855" y="664" on="1"/>
        <pt x="824" y="679" on="0"/>
        <pt x="702" y="679" on="1"/>
        <pt x="551" y="679" on="0"/>
        <pt x="546" y="648" on="1"/>
        <pt x="484" y="322" on="1"/>
        <pt x="482" y="310" on="0"/>
        <pt x="472" y="256" on="0"/>
        <pt x="468" y="235" on="0"/>
        <pt x="461" y="194" on="0"/>
        <pt x="459" y="173" on="0"/>
        <pt x="456" y="143" on="0"/>
        <pt x="458" y="123" on="0"/>
        <pt x="460" y="113" on="1"/>
        <pt x="464" y="85" on="0"/>
        <pt x="602" y="73" on="1"/>
        <pt x="607" y="62" on="0"/>
        <pt x="595" y="1" on="0"/>
        <pt x="586" y="-9" on="1"/>
        <pt x="450" y="7" on="0"/>
        <pt x="275" y="7" on="1"/>
        <pt x="124" y="7" on="0"/>
      </contour>
    </TTGlyph>
    <TTGlyph name="G" xMin="115" yMin="-16" xMax="1472" yMax="1481">
      <contour>
        <pt x="115" y="613" on="1"/>
        <pt x="115" y="747" on="0"/>
        <pt x="189" y="991" on="0"/>
        <pt x="317" y="1178" on="0"/>
        <pt x="487" y="1330" on="0"/>
        <pt x="681" y="1428" on="0"/>
        <pt x="885" y="1481" on="0"/>
        <pt x="983" y="1481" on="1"/>
        <pt x="1132" y="1481" on="0"/>
        <pt x="1416" y="1416" on="1"/>
        <pt x="1416" y="1398" on="0"/>
        <pt x="1391" y="1117" on="0"/>
        <pt x="1388" y="1097" on="1"/>
        <pt x="1386" y="1086" on="0"/>
        <pt x="1356" y="1066" on="0"/>
        <pt x="1339" y="1066" on="1"/>
        <pt x="1319" y="1066" on="0"/>
        <pt x="1312" y="1074" on="1"/>
        <pt x="1311" y="1095" on="0"/>
        <pt x="1301" y="1143" on="0"/>
        <pt x="1279" y="1205" on="0"/>
        <pt x="1247" y="1262" on="0"/>
        <pt x="1194" y="1318" on="0"/>
        <pt x="1129" y="1360" on="0"/>
        <pt x="1037" y="1385" on="0"/>
        <pt x="983" y="1385" on="1"/>
        <pt x="897" y="1385" on="0"/>
        <pt x="733" y="1311" on="0"/>
        <pt x="596" y="1170" on="0"/>
        <pt x="493" y="980" on="0"/>
        <pt x="435" y="732" on="0"/>
        <pt x="435" y="595" on="1"/>
        <pt x="435" y="549" on="0"/>
        <pt x="446" y="455" on="0"/>
        <pt x="472" y="353" on="0"/>
        <pt x="510" y="261" on="0"/>
        <pt x="571" y="178" on="0"/>
        <pt x="646" y="118" on="0"/>
        <pt x="750" y="82" on="0"/>
        <pt x="810" y="82" on="1"/>
        <pt x="896" y="82" on="0"/>
        <pt x="937" y="111" on="1"/>
        <pt x="953" y="123" on="0"/>
        <pt x="959" y="149" on="1"/>
        <pt x="962" y="163" on="0"/>
        <pt x="979" y="257" on="0"/>
        <pt x="1004" y="393" on="0"/>
        <pt x="1012" y="435" on="1"/>
        <pt x="1018" y="463" on="0"/>
        <pt x="1021" y="483" on="0"/>
        <pt x="1026" y="531" on="0"/>
        <pt x="1023" y="548" on="1"/>
        <pt x="1022" y="568" on="0"/>
        <pt x="988" y="594" on="0"/>
        <pt x="937" y="605" on="0"/>
        <pt x="902" y="608" on="0"/>
        <pt x="888" y="608" on="1"/>
        <pt x="885" y="608" on="0"/>
        <pt x="883" y="623" on="0"/>
        <pt x="886" y="645" on="0"/>
        <pt x="892" y="668" on="0"/>
        <pt x="900" y="687" on="0"/>
        <pt x="904" y="690" on="1"/>
        <pt x="936" y="689" on="0"/>
        <pt x="1072" y="681" on="0"/>
        <pt x="1181" y="677" on="0"/>
        <pt x="1228" y="677" on="1"/>
        <pt x="1266" y="677" on="0"/>
        <pt x="1347" y="682" on="0"/>
        <pt x="1443" y="689" on="0"/>
        <pt x="1472" y="690" on="1"/>
        <pt x="1472" y="687" on="0"/>
        <pt x="1472" y="683" on="1"/>
        <pt x="1472" y="675" on="0"/>
        <pt x="1471" y="666" on="1"/>
        <pt x="1469" y="651" on="0"/>
        <pt x="1463" y="626" on="0"/>
        <pt x="1457" y="608" on="0"/>
        <pt x="1454" y="608" on="1"/>
        <pt x="1440" y="608" on="0"/>
        <pt x="1368" y="590" on="0"/>
        <pt x="1350" y="579" on="1"/>
        <pt x="1343" y="575" on="0"/>
        <pt x="1327" y="546" on="0"/>
        <pt x="1312" y="505" on="0"/>
        <pt x="1308" y="484" on="1"/>
        <pt x="1265" y="257" on="0"/>
        <pt x="1257" y="218" on="1"/>
        <pt x="1254" y="207" on="0"/>
        <pt x="1257" y="157" on="0"/>
        <pt x="1257" y="153" on="1"/>
        <pt x="1254" y="142" on="0"/>
        <pt x="1225" y="111" on="0"/>
        <pt x="1190" y="87" on="0"/>
        <pt x="1174" y="80" on="1"/>
        <pt x="1077" y="32" on="0"/>
        <pt x="882" y="-16" on="0"/>
        <pt x="748" y="-16" on="1"/>
        <pt x="623" y="-16" on="0"/>
        <pt x="411" y="58" on="0"/>
        <pt x="265" y="182" on="0"/>
        <pt x="163" y="345" on="0"/>
        <pt x="115" y="522" on="0"/>
      </contour>
    </TTGlyph>
    <TTGlyph name="H" xMin="-22" yMin="-9" xMax="1643" yMax="1470">
      <contour>
        <pt x="-20" y="-9" on="1"/>
        <pt x="-22" y="-5" on="0"/>
        <pt x="-22" y="4" on="1"/>
        <pt x="-22" y="16" on="0"/>
        <pt x="-18" y="32" on="1"/>
        <pt x="-12" y="62" on="0"/>
        <pt x="-2" y="73" on="1"/>
        <pt x="122" y="84" on="0"/>
        <pt x="138" y="113" on="1"/>
        <pt x="154" y="143" on="0"/>
        <pt x="177" y="235" on="0"/>
        <pt x="193" y="322" on="1"/>
        <pt x="353" y="1139" on="1"/>
        <pt x="355" y="1150" on="0"/>
        <pt x="365" y="1204" on="0"/>
        <pt x="369" y="1225" on="0"/>
        <pt x="376" y="1267" on="0"/>
        <pt x="378" y="1288" on="0"/>
        <pt x="381" y="1317" on="0"/>
        <pt x="379" y="1338" on="0"/>
        <pt x="377" y="1348" on="1"/>
        <pt x="373" y="1378" on="0"/>
        <pt x="253" y="1388" on="1"/>
        <pt x="250" y="1393" on="0"/>
        <pt x="252" y="1417" on="0"/>
        <pt x="257" y="1442" on="0"/>
        <pt x="265" y="1465" on="0"/>
        <pt x="269" y="1470" on="1"/>
        <pt x="405" y="1454" on="0"/>
        <pt x="562" y="1454" on="1"/>
        <pt x="711" y="1454" on="0"/>
        <pt x="855" y="1470" on="1"/>
        <pt x="860" y="1459" on="0"/>
        <pt x="849" y="1399" on="0"/>
        <pt x="839" y="1388" on="1"/>
        <pt x="715" y="1377" on="0"/>
        <pt x="699" y="1348" on="1"/>
        <pt x="671" y="1296" on="0"/>
        <pt x="642" y="1139" on="1"/>
        <pt x="582" y="824" on="1"/>
        <pt x="584" y="817" on="1"/>
        <pt x="609" y="816" on="0"/>
        <pt x="707" y="813" on="0"/>
        <pt x="791" y="810" on="0"/>
        <pt x="832" y="810" on="1"/>
        <pt x="848" y="810" on="0"/>
        <pt x="1074" y="817" on="1"/>
        <pt x="1081" y="821" on="0"/>
        <pt x="1081" y="826" on="1"/>
        <pt x="1139" y="1139" on="1"/>
        <pt x="1141" y="1150" on="0"/>
        <pt x="1151" y="1204" on="0"/>
        <pt x="1155" y="1225" on="0"/>
        <pt x="1162" y="1267" on="0"/>
        <pt x="1164" y="1288" on="0"/>
        <pt x="1166" y="1317" on="0"/>
        <pt x="1165" y="1338" on="0"/>
        <pt x="1163" y="1348" on="1"/>
        <pt x="1159" y="1378" on="0"/>
        <pt x="1039" y="1388" on="1"/>
        <pt x="1034" y="1399" on="0"/>
        <pt x="1046" y="1459" on="0"/>
        <pt x="1054" y="1470" on="1"/>
        <pt x="1190" y="1454" on="0"/>
        <pt x="1348" y="1454" on="1"/>
        <pt x="1497" y="1454" on="0"/>
        <pt x="1641" y="1470" on="1"/>
        <pt x="1643" y="1463" on="0"/>
        <pt x="1643" y="1452" on="1"/>
        <pt x="1642" y="1449" on="0"/>
        <pt x="1642" y="1446" on="1"/>
        <pt x="1642" y="1431" on="0"/>
        <pt x="1631" y="1395" on="0"/>
        <pt x="1625" y="1388" on="1"/>
        <pt x="1501" y="1377" on="0"/>
        <pt x="1485" y="1348" on="1"/>
        <pt x="1457" y="1296" on="0"/>
        <pt x="1427" y="1139" on="1"/>
        <pt x="1270" y="322" on="1"/>
        <pt x="1268" y="310" on="0"/>
        <pt x="1257" y="256" on="0"/>
        <pt x="1254" y="235" on="0"/>
        <pt x="1247" y="194" on="0"/>
        <pt x="1245" y="173" on="0"/>
        <pt x="1242" y="143" on="0"/>
        <pt x="1244" y="123" on="0"/>
        <pt x="1245" y="113" on="1"/>
        <pt x="1250" y="83" on="0"/>
        <pt x="1370" y="73" on="1"/>
        <pt x="1375" y="62" on="0"/>
        <pt x="1363" y="1" on="0"/>
        <pt x="1354" y="-9" on="1"/>
        <pt x="1218" y="7" on="0"/>
        <pt x="1061" y="7" on="1"/>
        <pt x="912" y="7" on="0"/>
        <pt x="768" y="-9" on="1"/>
        <pt x="763" y="1" on="0"/>
        <pt x="774" y="62" on="0"/>
        <pt x="784" y="73" on="1"/>
        <pt x="908" y="84" on="0"/>
        <pt x="924" y="113" on="1"/>
        <pt x="952" y="165" on="0"/>
        <pt x="981" y="322" on="1"/>
        <pt x="1052" y="688" on="1"/>
        <pt x="1050" y="699" on="1"/>
        <pt x="899" y="704" on="0"/>
        <pt x="810" y="704" on="1"/>
        <pt x="571" y="704" on="0"/>
        <pt x="557" y="695" on="1"/>
        <pt x="553" y="686" on="1"/>
        <pt x="484" y="322" on="1"/>
        <pt x="482" y="310" on="0"/>
        <pt x="472" y="256" on="0"/>
        <pt x="468" y="235" on="0"/>
        <pt x="461" y="194" on="0"/>
        <pt x="459" y="173" on="0"/>
        <pt x="456" y="143" on="0"/>
        <pt x="458" y="123" on="0"/>
        <pt x="460" y="113" on="1"/>
        <pt x="464" y="83" on="0"/>
        <pt x="584" y="73" on="1"/>
        <pt x="589" y="62" on="0"/>
        <pt x="577" y="1" on="0"/>
        <pt x="568" y="-9" on="1"/>
        <pt x="432" y="7" on="0"/>
        <pt x="275" y="7" on="1"/>
        <pt x="124" y="7" on="0"/>
      </contour>
    </TTGlyph>
    <TTGlyph name="I" xMin="-22" yMin="-9" xMax="857" yMax="1470">
      <contour>
        <pt x="-20" y="-9" on="1"/>
        <pt x="-22" y="-5" on="0"/>
        <pt x="-22" y="4" on="1"/>
        <pt x="-22" y="16" on="0"/>
        <pt x="-18" y="32" on="1"/>
        <pt x="-12" y="62" on="0"/>
        <pt x="-2" y="73" on="1"/>
        <pt x="122" y="84" on="0"/>
        <pt x="138" y="113" on="1"/>
        <pt x="154" y="143" on="0"/>
        <pt x="177" y="235" on="0"/>
        <pt x="193" y="322" on="1"/>
        <pt x="353" y="1139" on="1"/>
        <pt x="355" y="1150" on="0"/>
        <pt x="365" y="1204" on="0"/>
        <pt x="369" y="1225" on="0"/>
        <pt x="376" y="1267" on="0"/>
        <pt x="378" y="1288" on="0"/>
        <pt x="381" y="1317" on="0"/>
        <pt x="379" y="1338" on="0"/>
        <pt x="377" y="1348" on="1"/>
        <pt x="373" y="1378" on="0"/>
        <pt x="253" y="1388" on="1"/>
        <pt x="250" y="1393" on="0"/>
        <pt x="252" y="1417" on="0"/>
        <pt x="257" y="1442" on="0"/>
        <pt x="265" y="1465" on="0"/>
        <pt x="269" y="1470" on="1"/>
        <pt x="405" y="1454" on="0"/>
        <pt x="562" y="1454" on="1"/>
        <pt x="711" y="1454" on="0"/>
        <pt x="855" y="1470" on="1"/>
        <pt x="857" y="1465" on="0"/>
        <pt x="857" y="1455" on="1"/>
        <pt x="856" y="1444" on="0"/>
        <pt x="854" y="1429" on="1"/>
        <pt x="848" y="1399" on="0"/>
        <pt x="839" y="1388" on="1"/>
        <pt x="715" y="1377" on="0"/>
        <pt x="699" y="1348" on="1"/>
        <pt x="671" y="1296" on="0"/>
        <pt x="642" y="1139" on="1"/>
        <pt x="484" y="322" on="1"/>
        <pt x="482" y="310" on="0"/>
        <pt x="472" y="256" on="0"/>
        <pt x="468" y="235" on="0"/>
        <pt x="461" y="194" on="0"/>
        <pt x="459" y="173" on="0"/>
        <pt x="456" y="143" on="0"/>
        <pt x="458" y="123" on="0"/>
        <pt x="460" y="113" on="1"/>
        <pt x="464" y="83" on="0"/>
        <pt x="584" y="73" on="1"/>
        <pt x="589" y="62" on="0"/>
        <pt x="577" y="1" on="0"/>
        <pt x="568" y="-9" on="1"/>
        <pt x="432" y="7" on="0"/>
        <pt x="275" y="7" on="1"/>
        <pt x="124" y="7" on="0"/>
      </contour>
    </TTGlyph>
    <TTGlyph name="Iacute" xMin="-25" yMin="-9" xMax="872" yMax="1849">
      <contour>
        <pt x="-20" y="-9" on="1"/>
        <pt x="-25" y="1" on="0"/>
        <pt x="-12" y="62" on="0"/>
        <pt x="-2" y="73" on="1"/>
        <pt x="122" y="84" on="0"/>
        <pt x="138" y="113" on="1"/>
        <pt x="154" y="143" on="0"/>
        <pt x="177" y="235" on="0"/>
        <pt x="193" y="322" on="1"/>
        <pt x="353" y="1139" on="1"/>
        <pt x="355" y="1150" on="0"/>
        <pt x="365" y="1204" on="0"/>
        <pt x="369" y="1225" on="0"/>
        <pt x="376" y="1267" on="0"/>
        <pt x="378" y="1288" on="0"/>
        <pt x="381" y="1317" on="0"/>
        <pt x="379" y="1338" on="0"/>
        <pt x="377" y="1348" on="1"/>
        <pt x="373" y="1378" on="0"/>
        <pt x="253" y="1388" on="1"/>
        <pt x="250" y="1393" on="0"/>
        <pt x="252" y="1417" on="0"/>
        <pt x="257" y="1442" on="0"/>
        <pt x="265" y="1465" on="0"/>
        <pt x="269" y="1470" on="1"/>
        <pt x="405" y="1454" on="0"/>
        <pt x="562" y="1454" on="1"/>
        <pt x="711" y="1454" on="0"/>
        <pt x="855" y="1470" on="1"/>
        <pt x="860" y="1459" on="0"/>
        <pt x="849" y="1399" on="0"/>
        <pt x="839" y="1388" on="1"/>
        <pt x="715" y="1377" on="0"/>
        <pt x="699" y="1348" on="1"/>
        <pt x="671" y="1296" on="0"/>
        <pt x="642" y="1139" on="1"/>
        <pt x="484" y="322" on="1"/>
        <pt x="482" y="310" on="0"/>
        <pt x="472" y="256" on="0"/>
        <pt x="468" y="235" on="0"/>
        <pt x="461" y="194" on="0"/>
        <pt x="459" y="173" on="0"/>
        <pt x="456" y="143" on="0"/>
        <pt x="458" y="123" on="0"/>
        <pt x="460" y="113" on="1"/>
        <pt x="464" y="83" on="0"/>
        <pt x="584" y="73" on="1"/>
        <pt x="589" y="62" on="0"/>
        <pt x="577" y="1" on="0"/>
        <pt x="568" y="-9" on="1"/>
        <pt x="432" y="7" on="0"/>
        <pt x="275" y="7" on="1"/>
        <pt x="124" y="7" on="0"/>
      </contour>
      <contour>
        <pt x="411" y="1616" on="1"/>
        <pt x="425" y="1639" on="0"/>
        <pt x="585" y="1795" on="0"/>
        <pt x="646" y="1832" on="1"/>
        <pt x="660" y="1839" on="0"/>
        <pt x="723" y="1849" on="0"/>
        <pt x="748" y="1849" on="1"/>
        <pt x="777" y="1849" on="0"/>
        <pt x="830" y="1837" on="0"/>
        <pt x="872" y="1803" on="0"/>
        <pt x="872" y="1753" on="0"/>
        <pt x="787" y="1697" on="0"/>
        <pt x="666" y="1651" on="0"/>
        <pt x="535" y="1611" on="0"/>
        <pt x="444" y="1589" on="0"/>
        <pt x="431" y="1587" on="1"/>
        <pt x="411" y="1602" on="0"/>
      </contour>
    </TTGlyph>
    <TTGlyph name="Icircumflex" xMin="-25" yMin="-9" xMax="875" yMax="1931">
      <contour>
        <pt x="-20" y="-9" on="1"/>
        <pt x="-25" y="1" on="0"/>
        <pt x="-12" y="62" on="0"/>
        <pt x="-2" y="73" on="1"/>
        <pt x="122" y="84" on="0"/>
        <pt x="138" y="113" on="1"/>
        <pt x="154" y="143" on="0"/>
        <pt x="177" y="235" on="0"/>
        <pt x="193" y="322" on="1"/>
        <pt x="353" y="1139" on="1"/>
        <pt x="355" y="1150" on="0"/>
        <pt x="365" y="1204" on="0"/>
        <pt x="369" y="1225" on="0"/>
        <pt x="376" y="1267" on="0"/>
        <pt x="378" y="1288" on="0"/>
        <pt x="381" y="1317" on="0"/>
        <pt x="379" y="1338" on="0"/>
        <pt x="377" y="1348" on="1"/>
        <pt x="373" y="1378" on="0"/>
        <pt x="253" y="1388" on="1"/>
        <pt x="250" y="1393" on="0"/>
        <pt x="252" y="1417" on="0"/>
        <pt x="257" y="1442" on="0"/>
        <pt x="265" y="1465" on="0"/>
        <pt x="269" y="1470" on="1"/>
        <pt x="405" y="1454" on="0"/>
        <pt x="562" y="1454" on="1"/>
        <pt x="711" y="1454" on="0"/>
        <pt x="855" y="1470" on="1"/>
        <pt x="860" y="1459" on="0"/>
        <pt x="849" y="1399" on="0"/>
        <pt x="839" y="1388" on="1"/>
        <pt x="715" y="1377" on="0"/>
        <pt x="699" y="1348" on="1"/>
        <pt x="671" y="1296" on="0"/>
        <pt x="642" y="1139" on="1"/>
        <pt x="484" y="322" on="1"/>
        <pt x="482" y="310" on="0"/>
        <pt x="472" y="256" on="0"/>
        <pt x="468" y="235" on="0"/>
        <pt x="461" y="194" on="0"/>
        <pt x="459" y="173" on="0"/>
        <pt x="456" y="143" on="0"/>
        <pt x="458" y="123" on="0"/>
        <pt x="460" y="113" on="1"/>
        <pt x="464" y="83" on="0"/>
        <pt x="584" y="73" on="1"/>
        <pt x="589" y="62" on="0"/>
        <pt x="577" y="1" on="0"/>
        <pt x="568" y="-9" on="1"/>
        <pt x="432" y="7" on="0"/>
        <pt x="275" y="7" on="1"/>
        <pt x="124" y="7" on="0"/>
      </contour>
      <contour>
        <pt x="300" y="1656" on="1"/>
        <pt x="359" y="1702" on="0"/>
        <pt x="488" y="1808" on="0"/>
        <pt x="586" y="1890" on="0"/>
        <pt x="606" y="1909" on="1"/>
        <pt x="628" y="1931" on="0"/>
        <pt x="637" y="1931" on="1"/>
        <pt x="640" y="1931" on="0"/>
        <pt x="644" y="1929" on="0"/>
        <pt x="650" y="1924" on="0"/>
        <pt x="653" y="1920" on="0"/>
        <pt x="660" y="1911" on="0"/>
        <pt x="662" y="1909" on="1"/>
        <pt x="680" y="1885" on="0"/>
        <pt x="737" y="1814" on="0"/>
        <pt x="797" y="1743" on="0"/>
        <pt x="856" y="1675" on="0"/>
        <pt x="875" y="1656" on="1"/>
        <pt x="871" y="1628" on="0"/>
        <pt x="848" y="1621" on="1"/>
        <pt x="827" y="1626" on="0"/>
        <pt x="648" y="1723" on="0"/>
        <pt x="606" y="1754" on="1"/>
        <pt x="569" y="1733" on="0"/>
        <pt x="442" y="1672" on="0"/>
        <pt x="333" y="1625" on="0"/>
        <pt x="315" y="1621" on="1"/>
        <pt x="308" y="1624" on="0"/>
        <pt x="298" y="1646" on="0"/>
      </contour>
    </TTGlyph>
    <TTGlyph name="Idieresis" xMin="-25" yMin="-9" xMax="1000" yMax="1925">
      <contour>
        <pt x="-20" y="-9" on="1"/>
        <pt x="-25" y="1" on="0"/>
        <pt x="-12" y="62" on="0"/>
        <pt x="-2" y="73" on="1"/>
        <pt x="122" y="84" on="0"/>
        <pt x="138" y="113" on="1"/>
        <pt x="154" y="143" on="0"/>
        <pt x="177" y="235" on="0"/>
        <pt x="193" y="322" on="1"/>
        <pt x="353" y="1139" on="1"/>
        <pt x="355" y="1150" on="0"/>
        <pt x="365" y="1204" on="0"/>
        <pt x="369" y="1225" on="0"/>
        <pt x="376" y="1267" on="0"/>
        <pt x="378" y="1288" on="0"/>
        <pt x="381" y="1317" on="0"/>
        <pt x="379" y="1338" on="0"/>
        <pt x="377" y="1348" on="1"/>
        <pt x="373" y="1378" on="0"/>
        <pt x="253" y="1388" on="1"/>
        <pt x="250" y="1393" on="0"/>
        <pt x="252" y="1417" on="0"/>
        <pt x="257" y="1442" on="0"/>
        <pt x="265" y="1465" on="0"/>
        <pt x="269" y="1470" on="1"/>
        <pt x="405" y="1454" on="0"/>
        <pt x="562" y="1454" on="1"/>
        <pt x="711" y="1454" on="0"/>
        <pt x="855" y="1470" on="1"/>
        <pt x="860" y="1459" on="0"/>
        <pt x="849" y="1399" on="0"/>
        <pt x="839" y="1388" on="1"/>
        <pt x="715" y="1377" on="0"/>
        <pt x="699" y="1348" on="1"/>
        <pt x="671" y="1296" on="0"/>
        <pt x="642" y="1139" on="1"/>
        <pt x="484" y="322" on="1"/>
        <pt x="482" y="310" on="0"/>
        <pt x="472" y="256" on="0"/>
        <pt x="468" y="235" on="0"/>
        <pt x="461" y="194" on="0"/>
        <pt x="459" y="173" on="0"/>
        <pt x="456" y="143" on="0"/>
        <pt x="458" y="123" on="0"/>
        <pt x="460" y="113" on="1"/>
        <pt x="464" y="83" on="0"/>
        <pt x="584" y="73" on="1"/>
        <pt x="589" y="62" on="0"/>
        <pt x="577" y="1" on="0"/>
        <pt x="568" y="-9" on="1"/>
        <pt x="432" y="7" on="0"/>
        <pt x="275" y="7" on="1"/>
        <pt x="124" y="7" on="0"/>
      </contour>
      <contour>
        <pt x="278" y="1776" on="1"/>
        <pt x="289" y="1838" on="0"/>
        <pt x="388" y="1925" on="0"/>
        <pt x="446" y="1925" on="1"/>
        <pt x="503" y="1925" on="0"/>
        <pt x="569" y="1837" on="0"/>
        <pt x="557" y="1776" on="1"/>
        <pt x="545" y="1713" on="0"/>
        <pt x="448" y="1618" on="0"/>
        <pt x="391" y="1618" on="1"/>
        <pt x="332" y="1618" on="0"/>
        <pt x="266" y="1713" on="0"/>
      </contour>
      <contour>
        <pt x="708" y="1776" on="1"/>
        <pt x="720" y="1838" on="0"/>
        <pt x="819" y="1925" on="0"/>
        <pt x="877" y="1925" on="1"/>
        <pt x="934" y="1925" on="0"/>
        <pt x="1000" y="1837" on="0"/>
        <pt x="988" y="1776" on="1"/>
        <pt x="976" y="1713" on="0"/>
        <pt x="879" y="1618" on="0"/>
        <pt x="821" y="1618" on="1"/>
        <pt x="762" y="1618" on="0"/>
        <pt x="696" y="1713" on="0"/>
      </contour>
    </TTGlyph>
    <TTGlyph name="Igrave" xMin="-25" yMin="-9" xMax="860" yMax="1849">
      <contour>
        <pt x="-20" y="-9" on="1"/>
        <pt x="-25" y="1" on="0"/>
        <pt x="-12" y="62" on="0"/>
        <pt x="-2" y="73" on="1"/>
        <pt x="122" y="84" on="0"/>
        <pt x="138" y="113" on="1"/>
        <pt x="154" y="143" on="0"/>
        <pt x="177" y="235" on="0"/>
        <pt x="193" y="322" on="1"/>
        <pt x="353" y="1139" on="1"/>
        <pt x="355" y="1150" on="0"/>
        <pt x="365" y="1204" on="0"/>
        <pt x="369" y="1225" on="0"/>
        <pt x="376" y="1267" on="0"/>
        <pt x="378" y="1288" on="0"/>
        <pt x="381" y="1317" on="0"/>
        <pt x="379" y="1338" on="0"/>
        <pt x="377" y="1348" on="1"/>
        <pt x="373" y="1378" on="0"/>
        <pt x="253" y="1388" on="1"/>
        <pt x="250" y="1393" on="0"/>
        <pt x="252" y="1417" on="0"/>
        <pt x="257" y="1442" on="0"/>
        <pt x="265" y="1465" on="0"/>
        <pt x="269" y="1470" on="1"/>
        <pt x="405" y="1454" on="0"/>
        <pt x="562" y="1454" on="1"/>
        <pt x="711" y="1454" on="0"/>
        <pt x="855" y="1470" on="1"/>
        <pt x="860" y="1459" on="0"/>
        <pt x="849" y="1399" on="0"/>
        <pt x="839" y="1388" on="1"/>
        <pt x="715" y="1377" on="0"/>
        <pt x="699" y="1348" on="1"/>
        <pt x="671" y="1296" on="0"/>
        <pt x="642" y="1139" on="1"/>
        <pt x="484" y="322" on="1"/>
        <pt x="482" y="310" on="0"/>
        <pt x="472" y="256" on="0"/>
        <pt x="468" y="235" on="0"/>
        <pt x="461" y="194" on="0"/>
        <pt x="459" y="173" on="0"/>
        <pt x="456" y="143" on="0"/>
        <pt x="458" y="123" on="0"/>
        <pt x="460" y="113" on="1"/>
        <pt x="464" y="83" on="0"/>
        <pt x="584" y="73" on="1"/>
        <pt x="589" y="62" on="0"/>
        <pt x="577" y="1" on="0"/>
        <pt x="568" y="-9" on="1"/>
        <pt x="432" y="7" on="0"/>
        <pt x="275" y="7" on="1"/>
        <pt x="124" y="7" on="0"/>
      </contour>
      <contour>
        <pt x="286" y="1778" on="1"/>
        <pt x="286" y="1803" on="0"/>
        <pt x="329" y="1837" on="0"/>
        <pt x="382" y="1849" on="0"/>
        <pt x="411" y="1849" on="1"/>
        <pt x="436" y="1849" on="0"/>
        <pt x="499" y="1839" on="0"/>
        <pt x="513" y="1832" on="1"/>
        <pt x="573" y="1795" on="0"/>
        <pt x="734" y="1639" on="0"/>
        <pt x="748" y="1616" on="1"/>
        <pt x="748" y="1602" on="0"/>
        <pt x="728" y="1587" on="1"/>
        <pt x="709" y="1590" on="0"/>
        <pt x="579" y="1624" on="0"/>
        <pt x="413" y="1677" on="0"/>
        <pt x="286" y="1748" on="0"/>
      </contour>
    </TTGlyph>
    <TTGlyph name="J" xMin="-242" yMin="-484" xMax="844" yMax="1470">
      <contour>
        <pt x="-242" y="-444" on="1"/>
        <pt x="-242" y="-435" on="0"/>
        <pt x="-238" y="-431" on="1"/>
        <pt x="-71" y="-340" on="0"/>
        <pt x="122" y="13" on="0"/>
        <pt x="178" y="300" on="1"/>
        <pt x="340" y="1139" on="1"/>
        <pt x="342" y="1150" on="0"/>
        <pt x="352" y="1204" on="0"/>
        <pt x="356" y="1225" on="0"/>
        <pt x="363" y="1267" on="0"/>
        <pt x="365" y="1288" on="0"/>
        <pt x="367" y="1317" on="0"/>
        <pt x="366" y="1338" on="0"/>
        <pt x="364" y="1348" on="1"/>
        <pt x="359" y="1378" on="0"/>
        <pt x="240" y="1388" on="1"/>
        <pt x="237" y="1397" on="0"/>
        <pt x="240" y="1429" on="0"/>
        <pt x="250" y="1463" on="0"/>
        <pt x="255" y="1470" on="1"/>
        <pt x="391" y="1454" on="0"/>
        <pt x="548" y="1454" on="1"/>
        <pt x="698" y="1454" on="0"/>
        <pt x="841" y="1470" on="1"/>
        <pt x="844" y="1464" on="0"/>
        <pt x="844" y="1453" on="1"/>
        <pt x="844" y="1443" on="0"/>
        <pt x="842" y="1429" on="1"/>
        <pt x="836" y="1399" on="0"/>
        <pt x="826" y="1388" on="1"/>
        <pt x="702" y="1377" on="0"/>
        <pt x="686" y="1348" on="1"/>
        <pt x="657" y="1296" on="0"/>
        <pt x="628" y="1139" on="1"/>
        <pt x="468" y="317" on="1"/>
        <pt x="448" y="213" on="0"/>
        <pt x="365" y="19" on="0"/>
        <pt x="261" y="-131" on="0"/>
        <pt x="136" y="-264" on="0"/>
        <pt x="17" y="-359" on="0"/>
        <pt x="-100" y="-433" on="0"/>
        <pt x="-187" y="-474" on="0"/>
        <pt x="-218" y="-484" on="1"/>
        <pt x="-223" y="-481" on="0"/>
        <pt x="-234" y="-466" on="0"/>
        <pt x="-242" y="-449" on="0"/>
      </contour>
    </TTGlyph>
    <TTGlyph name="K" xMin="-22" yMin="-13" xMax="1615" yMax="1470">
      <contour>
        <pt x="-20" y="-9" on="1"/>
        <pt x="-22" y="-5" on="0"/>
        <pt x="-22" y="4" on="1"/>
        <pt x="-22" y="16" on="0"/>
        <pt x="-18" y="32" on="1"/>
        <pt x="-12" y="62" on="0"/>
        <pt x="-2" y="73" on="1"/>
        <pt x="122" y="84" on="0"/>
        <pt x="138" y="113" on="1"/>
        <pt x="154" y="143" on="0"/>
        <pt x="177" y="235" on="0"/>
        <pt x="193" y="322" on="1"/>
        <pt x="353" y="1139" on="1"/>
        <pt x="355" y="1150" on="0"/>
        <pt x="365" y="1204" on="0"/>
        <pt x="369" y="1225" on="0"/>
        <pt x="376" y="1267" on="0"/>
        <pt x="378" y="1288" on="0"/>
        <pt x="381" y="1317" on="0"/>
        <pt x="379" y="1338" on="0"/>
        <pt x="377" y="1348" on="1"/>
        <pt x="373" y="1378" on="0"/>
        <pt x="253" y="1388" on="1"/>
        <pt x="250" y="1393" on="0"/>
        <pt x="252" y="1417" on="0"/>
        <pt x="257" y="1442" on="0"/>
        <pt x="265" y="1465" on="0"/>
        <pt x="269" y="1470" on="1"/>
        <pt x="405" y="1454" on="0"/>
        <pt x="562" y="1454" on="1"/>
        <pt x="711" y="1454" on="0"/>
        <pt x="855" y="1470" on="1"/>
        <pt x="860" y="1459" on="0"/>
        <pt x="849" y="1399" on="0"/>
        <pt x="839" y="1388" on="1"/>
        <pt x="715" y="1377" on="0"/>
        <pt x="699" y="1348" on="1"/>
        <pt x="671" y="1296" on="0"/>
        <pt x="642" y="1139" on="1"/>
        <pt x="566" y="748" on="1"/>
        <pt x="730" y="868" on="0"/>
        <pt x="819" y="950" on="1"/>
        <pt x="846" y="974" on="0"/>
        <pt x="951" y="1068" on="0"/>
        <pt x="991" y="1104" on="0"/>
        <pt x="1062" y="1171" on="0"/>
        <pt x="1118" y="1229" on="0"/>
        <pt x="1150" y="1265" on="1"/>
        <pt x="1180" y="1298" on="0"/>
        <pt x="1185" y="1339" on="1"/>
        <pt x="1188" y="1350" on="0"/>
        <pt x="1178" y="1367" on="0"/>
        <pt x="1158" y="1378" on="0"/>
        <pt x="1135" y="1385" on="0"/>
        <pt x="1107" y="1389" on="0"/>
        <pt x="1088" y="1390" on="0"/>
        <pt x="1079" y="1390" on="1"/>
        <pt x="1074" y="1403" on="0"/>
        <pt x="1082" y="1454" on="0"/>
        <pt x="1090" y="1470" on="1"/>
        <pt x="1113" y="1468" on="0"/>
        <pt x="1228" y="1460" on="0"/>
        <pt x="1323" y="1454" on="0"/>
        <pt x="1356" y="1454" on="1"/>
        <pt x="1478" y="1454" on="0"/>
        <pt x="1614" y="1470" on="1"/>
        <pt x="1615" y="1466" on="0"/>
        <pt x="1615" y="1462" on="1"/>
        <pt x="1614" y="1448" on="0"/>
        <pt x="1610" y="1428" on="1"/>
        <pt x="1604" y="1400" on="0"/>
        <pt x="1596" y="1392" on="1"/>
        <pt x="1577" y="1390" on="0"/>
        <pt x="1539" y="1383" on="0"/>
        <pt x="1455" y="1363" on="0"/>
        <pt x="1373" y="1322" on="0"/>
        <pt x="1343" y="1294" on="1"/>
        <pt x="1032" y="1010" on="0"/>
        <pt x="844" y="835" on="1"/>
        <pt x="823" y="814" on="0"/>
        <pt x="832" y="799" on="1"/>
        <pt x="886" y="714" on="0"/>
        <pt x="987" y="562" on="0"/>
        <pt x="1121" y="367" on="0"/>
        <pt x="1157" y="313" on="1"/>
        <pt x="1184" y="272" on="0"/>
        <pt x="1240" y="203" on="0"/>
        <pt x="1285" y="154" on="0"/>
        <pt x="1333" y="116" on="0"/>
        <pt x="1367" y="93" on="0"/>
        <pt x="1406" y="76" on="0"/>
        <pt x="1426" y="68" on="0"/>
        <pt x="1453" y="64" on="0"/>
        <pt x="1459" y="64" on="0"/>
        <pt x="1465" y="64" on="1"/>
        <pt x="1469" y="54" on="0"/>
        <pt x="1458" y="3" on="0"/>
        <pt x="1454" y="-4" on="1"/>
        <pt x="1435" y="-6" on="0"/>
        <pt x="1389" y="-11" on="0"/>
        <pt x="1348" y="-13" on="0"/>
        <pt x="1310" y="-13" on="1"/>
        <pt x="1200" y="-13" on="0"/>
        <pt x="1052" y="30" on="0"/>
        <pt x="946" y="121" on="0"/>
        <pt x="890" y="204" on="1"/>
        <pt x="876" y="226" on="0"/>
        <pt x="821" y="311" on="0"/>
        <pt x="752" y="419" on="0"/>
        <pt x="686" y="524" on="0"/>
        <pt x="614" y="638" on="0"/>
        <pt x="593" y="670" on="1"/>
        <pt x="587" y="679" on="0"/>
        <pt x="573" y="679" on="1"/>
        <pt x="561" y="679" on="0"/>
        <pt x="551" y="666" on="1"/>
        <pt x="484" y="322" on="1"/>
        <pt x="482" y="310" on="0"/>
        <pt x="472" y="256" on="0"/>
        <pt x="468" y="235" on="0"/>
        <pt x="461" y="194" on="0"/>
        <pt x="459" y="173" on="0"/>
        <pt x="456" y="143" on="0"/>
        <pt x="458" y="123" on="0"/>
        <pt x="460" y="113" on="1"/>
        <pt x="464" y="83" on="0"/>
        <pt x="584" y="73" on="1"/>
        <pt x="589" y="62" on="0"/>
        <pt x="577" y="1" on="0"/>
        <pt x="568" y="-9" on="1"/>
        <pt x="432" y="7" on="0"/>
        <pt x="275" y="7" on="1"/>
        <pt x="124" y="7" on="0"/>
      </contour>
    </TTGlyph>
    <TTGlyph name="L" xMin="-20" yMin="-7" xMax="1174" yMax="1470">
      <contour>
        <pt x="-18" y="-7" on="1"/>
        <pt x="-20" y="-2" on="0"/>
        <pt x="-20" y="8" on="1"/>
        <pt x="-20" y="19" on="0"/>
        <pt x="-18" y="34" on="1"/>
        <pt x="-12" y="64" on="0"/>
        <pt x="-2" y="75" on="1"/>
        <pt x="123" y="86" on="0"/>
        <pt x="138" y="113" on="1"/>
        <pt x="154" y="143" on="0"/>
        <pt x="177" y="235" on="0"/>
        <pt x="193" y="322" on="1"/>
        <pt x="353" y="1139" on="1"/>
        <pt x="355" y="1150" on="0"/>
        <pt x="365" y="1204" on="0"/>
        <pt x="369" y="1225" on="0"/>
        <pt x="376" y="1267" on="0"/>
        <pt x="378" y="1288" on="0"/>
        <pt x="381" y="1317" on="0"/>
        <pt x="379" y="1338" on="0"/>
        <pt x="377" y="1348" on="1"/>
        <pt x="373" y="1378" on="0"/>
        <pt x="253" y="1388" on="1"/>
        <pt x="250" y="1393" on="0"/>
        <pt x="252" y="1417" on="0"/>
        <pt x="257" y="1442" on="0"/>
        <pt x="265" y="1465" on="0"/>
        <pt x="269" y="1470" on="1"/>
        <pt x="405" y="1454" on="0"/>
        <pt x="562" y="1454" on="1"/>
        <pt x="711" y="1454" on="0"/>
        <pt x="855" y="1470" on="1"/>
        <pt x="860" y="1459" on="0"/>
        <pt x="849" y="1399" on="0"/>
        <pt x="839" y="1388" on="1"/>
        <pt x="715" y="1377" on="0"/>
        <pt x="699" y="1348" on="1"/>
        <pt x="671" y="1296" on="0"/>
        <pt x="642" y="1139" on="1"/>
        <pt x="482" y="313" on="1"/>
        <pt x="482" y="312" on="0"/>
        <pt x="478" y="292" on="0"/>
        <pt x="474" y="268" on="0"/>
        <pt x="468" y="237" on="0"/>
        <pt x="465" y="205" on="0"/>
        <pt x="462" y="174" on="0"/>
        <pt x="462" y="147" on="0"/>
        <pt x="464" y="138" on="1"/>
        <pt x="467" y="123" on="0"/>
        <pt x="508" y="102" on="0"/>
        <pt x="560" y="93" on="0"/>
        <pt x="588" y="93" on="1"/>
        <pt x="726" y="93" on="1"/>
        <pt x="850" y="93" on="0"/>
        <pt x="932" y="166" on="1"/>
        <pt x="958" y="189" on="0"/>
        <pt x="1008" y="252" on="0"/>
        <pt x="1054" y="324" on="0"/>
        <pt x="1083" y="377" on="1"/>
        <pt x="1090" y="391" on="0"/>
        <pt x="1117" y="391" on="1"/>
        <pt x="1132" y="391" on="0"/>
        <pt x="1171" y="382" on="0"/>
        <pt x="1174" y="377" on="1"/>
        <pt x="1170" y="369" on="0"/>
        <pt x="1103" y="240" on="0"/>
        <pt x="1078" y="191" on="0"/>
        <pt x="1029" y="92" on="0"/>
        <pt x="1000" y="23" on="0"/>
        <pt x="990" y="-4" on="1"/>
        <pt x="275" y="-4" on="1"/>
        <pt x="211" y="-4" on="0"/>
        <pt x="78" y="-6" on="0"/>
        <pt x="-9" y="-7" on="0"/>
      </contour>
    </TTGlyph>
    <TTGlyph name="M" xMin="-61" yMin="-9" xMax="1943" yMax="1470">
      <contour>
        <pt x="-60" y="-9" on="1"/>
        <pt x="-61" y="-4" on="0"/>
        <pt x="-61" y="4" on="1"/>
        <pt x="-61" y="14" on="0"/>
        <pt x="-59" y="29" on="1"/>
        <pt x="-55" y="55" on="0"/>
        <pt x="-47" y="71" on="1"/>
        <pt x="-13" y="71" on="0"/>
        <pt x="123" y="114" on="0"/>
        <pt x="144" y="151" on="1"/>
        <pt x="153" y="166" on="0"/>
        <pt x="197" y="310" on="0"/>
        <pt x="206" y="346" on="1"/>
        <pt x="234" y="461" on="0"/>
        <pt x="331" y="877" on="0"/>
        <pt x="420" y="1264" on="0"/>
        <pt x="426" y="1290" on="1"/>
        <pt x="431" y="1323" on="0"/>
        <pt x="424" y="1339" on="1"/>
        <pt x="419" y="1350" on="0"/>
        <pt x="372" y="1374" on="0"/>
        <pt x="318" y="1388" on="0"/>
        <pt x="300" y="1388" on="1"/>
        <pt x="296" y="1394" on="0"/>
        <pt x="299" y="1420" on="0"/>
        <pt x="306" y="1447" on="0"/>
        <pt x="313" y="1468" on="0"/>
        <pt x="315" y="1470" on="1"/>
        <pt x="351" y="1468" on="0"/>
        <pt x="428" y="1461" on="0"/>
        <pt x="496" y="1456" on="0"/>
        <pt x="537" y="1456" on="1"/>
        <pt x="578" y="1456" on="0"/>
        <pt x="728" y="1468" on="0"/>
        <pt x="755" y="1470" on="1"/>
        <pt x="808" y="1242" on="0"/>
        <pt x="963" y="528" on="1"/>
        <pt x="968" y="524" on="0"/>
        <pt x="970" y="524" on="1"/>
        <pt x="971" y="524" on="0"/>
        <pt x="977" y="530" on="0"/>
        <pt x="981" y="536" on="0"/>
        <pt x="981" y="537" on="1"/>
        <pt x="1217" y="946" on="0"/>
        <pt x="1356" y="1212" on="1"/>
        <pt x="1379" y="1255" on="0"/>
        <pt x="1437" y="1379" on="0"/>
        <pt x="1454" y="1420" on="1"/>
        <pt x="1472" y="1461" on="1"/>
        <pt x="1484" y="1459" on="0"/>
        <pt x="1661" y="1454" on="0"/>
        <pt x="1694" y="1454" on="1"/>
        <pt x="1735" y="1454" on="0"/>
        <pt x="1911" y="1468" on="0"/>
        <pt x="1938" y="1470" on="1"/>
        <pt x="1943" y="1465" on="0"/>
        <pt x="1943" y="1443" on="1"/>
        <pt x="1942" y="1437" on="0"/>
        <pt x="1942" y="1431" on="1"/>
        <pt x="1940" y="1398" on="0"/>
        <pt x="1931" y="1385" on="1"/>
        <pt x="1922" y="1385" on="0"/>
        <pt x="1880" y="1380" on="0"/>
        <pt x="1829" y="1368" on="0"/>
        <pt x="1818" y="1361" on="1"/>
        <pt x="1798" y="1348" on="0"/>
        <pt x="1778" y="1312" on="0"/>
        <pt x="1772" y="1270" on="1"/>
        <pt x="1768" y="1247" on="0"/>
        <pt x="1646" y="506" on="0"/>
        <pt x="1621" y="337" on="1"/>
        <pt x="1603" y="218" on="0"/>
        <pt x="1603" y="153" on="1"/>
        <pt x="1603" y="130" on="0"/>
        <pt x="1605" y="113" on="1"/>
        <pt x="1609" y="93" on="0"/>
        <pt x="1701" y="73" on="0"/>
        <pt x="1727" y="73" on="1"/>
        <pt x="1731" y="59" on="0"/>
        <pt x="1724" y="7" on="0"/>
        <pt x="1716" y="-9" on="1"/>
        <pt x="1699" y="-8" on="0"/>
        <pt x="1492" y="9" on="0"/>
        <pt x="1439" y="9" on="1"/>
        <pt x="1397" y="9" on="0"/>
        <pt x="1278" y="2" on="0"/>
        <pt x="1144" y="-7" on="0"/>
        <pt x="1110" y="-9" on="1"/>
        <pt x="1105" y="-3" on="0"/>
        <pt x="1116" y="59" on="0"/>
        <pt x="1123" y="73" on="1"/>
        <pt x="1154" y="73" on="0"/>
        <pt x="1258" y="95" on="0"/>
        <pt x="1274" y="115" on="1"/>
        <pt x="1281" y="124" on="0"/>
        <pt x="1295" y="153" on="0"/>
        <pt x="1305" y="182" on="0"/>
        <pt x="1308" y="193" on="1"/>
        <pt x="1310" y="203" on="0"/>
        <pt x="1317" y="251" on="0"/>
        <pt x="1327" y="314" on="0"/>
        <pt x="1330" y="329" on="1"/>
        <pt x="1461" y="1103" on="1"/>
        <pt x="1462" y="1107" on="0"/>
        <pt x="1465" y="1124" on="0"/>
        <pt x="1468" y="1145" on="0"/>
        <pt x="1464" y="1161" on="0"/>
        <pt x="1459" y="1161" on="1"/>
        <pt x="1455" y="1161" on="0"/>
        <pt x="1445" y="1146" on="1"/>
        <pt x="875" y="89" on="1"/>
        <pt x="862" y="65" on="0"/>
        <pt x="793" y="-4" on="0"/>
        <pt x="768" y="-4" on="1"/>
        <pt x="764" y="-4" on="0"/>
        <pt x="750" y="0" on="1"/>
        <pt x="515" y="1161" on="1"/>
        <pt x="466" y="942" on="0"/>
        <pt x="364" y="479" on="0"/>
        <pt x="322" y="297" on="1"/>
        <pt x="314" y="264" on="0"/>
        <pt x="300" y="158" on="0"/>
        <pt x="300" y="144" on="1"/>
        <pt x="301" y="123" on="0"/>
        <pt x="380" y="88" on="0"/>
        <pt x="453" y="73" on="0"/>
        <pt x="466" y="73" on="1"/>
        <pt x="468" y="60" on="0"/>
        <pt x="461" y="7" on="0"/>
        <pt x="453" y="-9" on="1"/>
        <pt x="428" y="-8" on="0"/>
        <pt x="255" y="9" on="0"/>
        <pt x="202" y="9" on="1"/>
        <pt x="161" y="9" on="0"/>
        <pt x="73" y="2" on="0"/>
        <pt x="-23" y="-7" on="0"/>
      </contour>
    </TTGlyph>
    <TTGlyph name="N" xMin="-42" yMin="-11" xMax="1710" yMax="1472">
      <contour>
        <pt x="-40" y="21" on="1"/>
        <pt x="-38" y="30" on="0"/>
        <pt x="-33" y="49" on="0"/>
        <pt x="-28" y="64" on="0"/>
        <pt x="-23" y="73" on="0"/>
        <pt x="-22" y="73" on="1"/>
        <pt x="10" y="73" on="0"/>
        <pt x="137" y="105" on="0"/>
        <pt x="153" y="131" on="1"/>
        <pt x="168" y="156" on="0"/>
        <pt x="210" y="293" on="0"/>
        <pt x="222" y="355" on="1"/>
        <pt x="245" y="476" on="0"/>
        <pt x="299" y="748" on="0"/>
        <pt x="352" y="1020" on="0"/>
        <pt x="375" y="1141" on="1"/>
        <pt x="390" y="1228" on="0"/>
        <pt x="390" y="1265" on="1"/>
        <pt x="390" y="1267" on="0"/>
        <pt x="390" y="1270" on="1"/>
        <pt x="389" y="1307" on="0"/>
        <pt x="375" y="1341" on="1"/>
        <pt x="366" y="1360" on="0"/>
        <pt x="274" y="1388" on="0"/>
        <pt x="249" y="1388" on="1"/>
        <pt x="244" y="1390" on="0"/>
        <pt x="244" y="1422" on="0"/>
        <pt x="253" y="1464" on="0"/>
        <pt x="260" y="1470" on="1"/>
        <pt x="277" y="1468" on="0"/>
        <pt x="365" y="1460" on="0"/>
        <pt x="448" y="1454" on="0"/>
        <pt x="491" y="1454" on="1"/>
        <pt x="599" y="1454" on="0"/>
        <pt x="719" y="1470" on="1"/>
        <pt x="735" y="1409" on="0"/>
        <pt x="847" y="1180" on="0"/>
        <pt x="960" y="979" on="0"/>
        <pt x="1157" y="635" on="0"/>
        <pt x="1203" y="551" on="1"/>
        <pt x="1209" y="563" on="0"/>
        <pt x="1225" y="642" on="1"/>
        <pt x="1305" y="1057" on="1"/>
        <pt x="1341" y="1251" on="0"/>
        <pt x="1341" y="1317" on="1"/>
        <pt x="1341" y="1333" on="0"/>
        <pt x="1339" y="1341" on="1"/>
        <pt x="1336" y="1355" on="0"/>
        <pt x="1293" y="1376" on="0"/>
        <pt x="1237" y="1385" on="0"/>
        <pt x="1194" y="1390" on="0"/>
        <pt x="1181" y="1390" on="1"/>
        <pt x="1179" y="1392" on="0"/>
        <pt x="1181" y="1421" on="0"/>
        <pt x="1190" y="1463" on="0"/>
        <pt x="1197" y="1472" on="1"/>
        <pt x="1232" y="1470" on="0"/>
        <pt x="1392" y="1454" on="0"/>
        <pt x="1445" y="1454" on="1"/>
        <pt x="1498" y="1454" on="0"/>
        <pt x="1685" y="1471" on="0"/>
        <pt x="1709" y="1472" on="1"/>
        <pt x="1710" y="1469" on="0"/>
        <pt x="1710" y="1465" on="1"/>
        <pt x="1710" y="1452" on="0"/>
        <pt x="1705" y="1430" on="1"/>
        <pt x="1699" y="1402" on="0"/>
        <pt x="1687" y="1388" on="1"/>
        <pt x="1668" y="1388" on="0"/>
        <pt x="1608" y="1383" on="0"/>
        <pt x="1519" y="1357" on="0"/>
        <pt x="1507" y="1336" on="1"/>
        <pt x="1496" y="1313" on="0"/>
        <pt x="1444" y="1124" on="0"/>
        <pt x="1432" y="1063" on="1"/>
        <pt x="1285" y="309" on="1"/>
        <pt x="1268" y="218" on="0"/>
        <pt x="1234" y="-2" on="1"/>
        <pt x="1225" y="-11" on="0"/>
        <pt x="1181" y="-11" on="1"/>
        <pt x="1155" y="-11" on="0"/>
        <pt x="1128" y="40" on="1"/>
        <pt x="502" y="1152" on="1"/>
        <pt x="346" y="349" on="1"/>
        <pt x="335" y="290" on="0"/>
        <pt x="329" y="224" on="1"/>
        <pt x="325" y="180" on="0"/>
        <pt x="325" y="154" on="1"/>
        <pt x="325" y="141" on="0"/>
        <pt x="326" y="133" on="1"/>
        <pt x="329" y="114" on="0"/>
        <pt x="406" y="86" on="0"/>
        <pt x="473" y="75" on="0"/>
        <pt x="486" y="75" on="1"/>
        <pt x="492" y="61" on="0"/>
        <pt x="480" y="5" on="0"/>
        <pt x="473" y="-9" on="1"/>
        <pt x="450" y="-8" on="0"/>
        <pt x="268" y="9" on="0"/>
        <pt x="215" y="9" on="1"/>
        <pt x="162" y="9" on="0"/>
        <pt x="-3" y="-7" on="0"/>
        <pt x="-40" y="-9" on="1"/>
        <pt x="-42" y="-5" on="0"/>
        <pt x="-42" y="1" on="1"/>
        <pt x="-42" y="8" on="0"/>
      </contour>
    </TTGlyph>
    <TTGlyph name="Ntilde" xMin="-42" yMin="-11" xMax="1711" yMax="1820">
      <contour>
        <pt x="-42" y="-4" on="0"/>
        <pt x="-41" y="12" on="0"/>
        <pt x="-38" y="30" on="0"/>
        <pt x="-33" y="49" on="0"/>
        <pt x="-28" y="64" on="0"/>
        <pt x="-23" y="73" on="0"/>
        <pt x="-22" y="73" on="1"/>
        <pt x="10" y="73" on="0"/>
        <pt x="137" y="105" on="0"/>
        <pt x="153" y="131" on="1"/>
        <pt x="168" y="156" on="0"/>
        <pt x="210" y="293" on="0"/>
        <pt x="222" y="355" on="1"/>
        <pt x="245" y="476" on="0"/>
        <pt x="299" y="748" on="0"/>
        <pt x="352" y="1020" on="0"/>
        <pt x="375" y="1141" on="1"/>
        <pt x="391" y="1233" on="0"/>
        <pt x="389" y="1307" on="0"/>
        <pt x="375" y="1341" on="1"/>
        <pt x="366" y="1360" on="0"/>
        <pt x="274" y="1388" on="0"/>
        <pt x="249" y="1388" on="1"/>
        <pt x="244" y="1390" on="0"/>
        <pt x="244" y="1422" on="0"/>
        <pt x="253" y="1464" on="0"/>
        <pt x="260" y="1470" on="1"/>
        <pt x="277" y="1468" on="0"/>
        <pt x="365" y="1460" on="0"/>
        <pt x="448" y="1454" on="0"/>
        <pt x="491" y="1454" on="1"/>
        <pt x="599" y="1454" on="0"/>
        <pt x="719" y="1470" on="1"/>
        <pt x="735" y="1409" on="0"/>
        <pt x="847" y="1180" on="0"/>
        <pt x="960" y="979" on="0"/>
        <pt x="1157" y="635" on="0"/>
        <pt x="1203" y="551" on="1"/>
        <pt x="1209" y="563" on="0"/>
        <pt x="1225" y="642" on="1"/>
        <pt x="1305" y="1057" on="1"/>
        <pt x="1350" y="1299" on="0"/>
        <pt x="1339" y="1341" on="1"/>
        <pt x="1336" y="1355" on="0"/>
        <pt x="1293" y="1376" on="0"/>
        <pt x="1237" y="1385" on="0"/>
        <pt x="1194" y="1390" on="0"/>
        <pt x="1181" y="1390" on="1"/>
        <pt x="1179" y="1392" on="0"/>
        <pt x="1181" y="1421" on="0"/>
        <pt x="1190" y="1463" on="0"/>
        <pt x="1197" y="1472" on="1"/>
        <pt x="1232" y="1470" on="0"/>
        <pt x="1392" y="1454" on="0"/>
        <pt x="1445" y="1454" on="1"/>
        <pt x="1498" y="1454" on="0"/>
        <pt x="1685" y="1471" on="0"/>
        <pt x="1709" y="1472" on="1"/>
        <pt x="1711" y="1459" on="0"/>
        <pt x="1699" y="1402" on="0"/>
        <pt x="1687" y="1388" on="1"/>
        <pt x="1668" y="1388" on="0"/>
        <pt x="1608" y="1383" on="0"/>
        <pt x="1519" y="1357" on="0"/>
        <pt x="1507" y="1336" on="1"/>
        <pt x="1496" y="1313" on="0"/>
        <pt x="1444" y="1124" on="0"/>
        <pt x="1432" y="1063" on="1"/>
        <pt x="1285" y="309" on="1"/>
        <pt x="1268" y="218" on="0"/>
        <pt x="1234" y="-2" on="1"/>
        <pt x="1225" y="-11" on="0"/>
        <pt x="1181" y="-11" on="1"/>
        <pt x="1155" y="-11" on="0"/>
        <pt x="1128" y="40" on="1"/>
        <pt x="502" y="1152" on="1"/>
        <pt x="346" y="349" on="1"/>
        <pt x="335" y="290" on="0"/>
        <pt x="323" y="157" on="0"/>
        <pt x="326" y="133" on="1"/>
        <pt x="329" y="114" on="0"/>
        <pt x="406" y="86" on="0"/>
        <pt x="473" y="75" on="0"/>
        <pt x="486" y="75" on="1"/>
        <pt x="492" y="61" on="0"/>
        <pt x="480" y="5" on="0"/>
        <pt x="473" y="-9" on="1"/>
        <pt x="450" y="-8" on="0"/>
        <pt x="268" y="9" on="0"/>
        <pt x="215" y="9" on="1"/>
        <pt x="162" y="9" on="0"/>
        <pt x="-3" y="-7" on="0"/>
        <pt x="-40" y="-9" on="1"/>
      </contour>
      <contour>
        <pt x="617" y="1647" on="1"/>
        <pt x="617" y="1691" on="0"/>
        <pt x="659" y="1738" on="1"/>
        <pt x="702" y="1782" on="0"/>
        <pt x="788" y="1820" on="0"/>
        <pt x="839" y="1820" on="1"/>
        <pt x="883" y="1820" on="0"/>
        <pt x="944" y="1806" on="0"/>
        <pt x="979" y="1785" on="1"/>
        <pt x="1013" y="1765" on="0"/>
        <pt x="1047" y="1747" on="0"/>
        <pt x="1112" y="1727" on="0"/>
        <pt x="1146" y="1727" on="1"/>
        <pt x="1224" y="1727" on="0"/>
        <pt x="1294" y="1820" on="1"/>
        <pt x="1301" y="1818" on="0"/>
        <pt x="1314" y="1801" on="0"/>
        <pt x="1314" y="1789" on="1"/>
        <pt x="1314" y="1745" on="0"/>
        <pt x="1272" y="1698" on="1"/>
        <pt x="1230" y="1654" on="0"/>
        <pt x="1144" y="1616" on="0"/>
        <pt x="1092" y="1616" on="1"/>
        <pt x="1049" y="1616" on="0"/>
        <pt x="988" y="1631" on="0"/>
        <pt x="952" y="1652" on="1"/>
        <pt x="918" y="1672" on="0"/>
        <pt x="884" y="1690" on="0"/>
        <pt x="819" y="1709" on="0"/>
        <pt x="786" y="1709" on="1"/>
        <pt x="707" y="1709" on="0"/>
        <pt x="637" y="1616" on="1"/>
        <pt x="633" y="1617" on="0"/>
        <pt x="625" y="1625" on="0"/>
        <pt x="617" y="1639" on="0"/>
      </contour>
    </TTGlyph>
    <TTGlyph name="O" xMin="109" yMin="-22" xMax="1507" yMax="1481">
      <contour>
        <pt x="109" y="579" on="1"/>
        <pt x="109" y="713" on="0"/>
        <pt x="181" y="962" on="0"/>
        <pt x="305" y="1156" on="0"/>
        <pt x="470" y="1317" on="0"/>
        <pt x="655" y="1423" on="0"/>
        <pt x="850" y="1481" on="0"/>
        <pt x="941" y="1481" on="1"/>
        <pt x="1047" y="1481" on="0"/>
        <pt x="1232" y="1409" on="0"/>
        <pt x="1365" y="1289" on="0"/>
        <pt x="1460" y="1132" on="0"/>
        <pt x="1507" y="959" on="0"/>
        <pt x="1507" y="872" on="1"/>
        <pt x="1507" y="754" on="0"/>
        <pt x="1452" y="534" on="0"/>
        <pt x="1354" y="358" on="0"/>
        <pt x="1222" y="206" on="0"/>
        <pt x="1068" y="95" on="0"/>
        <pt x="902" y="17" on="0"/>
        <pt x="734" y="-22" on="0"/>
        <pt x="655" y="-22" on="1"/>
        <pt x="541" y="-22" on="0"/>
        <pt x="337" y="75" on="0"/>
        <pt x="193" y="238" on="0"/>
        <pt x="109" y="459" on="0"/>
      </contour>
      <contour>
        <pt x="428" y="542" on="1"/>
        <pt x="428" y="443" on="0"/>
        <pt x="462" y="278" on="0"/>
        <pt x="531" y="147" on="0"/>
        <pt x="647" y="73" on="0"/>
        <pt x="724" y="73" on="1"/>
        <pt x="786" y="73" on="0"/>
        <pt x="901" y="127" on="0"/>
        <pt x="993" y="223" on="0"/>
        <pt x="1071" y="352" on="0"/>
        <pt x="1128" y="502" on="0"/>
        <pt x="1168" y="666" on="0"/>
        <pt x="1188" y="831" on="0"/>
        <pt x="1188" y="910" on="1"/>
        <pt x="1188" y="1008" on="0"/>
        <pt x="1151" y="1177" on="0"/>
        <pt x="1080" y="1309" on="0"/>
        <pt x="965" y="1385" on="0"/>
        <pt x="892" y="1385" on="1"/>
        <pt x="818" y="1385" on="0"/>
        <pt x="686" y="1311" on="0"/>
        <pt x="586" y="1184" on="0"/>
        <pt x="506" y="1018" on="0"/>
        <pt x="455" y="828" on="0"/>
        <pt x="428" y="634" on="0"/>
      </contour>
    </TTGlyph>
    <TTGlyph name="OE" xMin="113" yMin="-22" xMax="2138" yMax="1481">
      <contour>
        <pt x="113" y="579" on="1"/>
        <pt x="113" y="715" on="0"/>
        <pt x="176" y="961" on="0"/>
        <pt x="289" y="1157" on="0"/>
        <pt x="449" y="1317" on="0"/>
        <pt x="642" y="1423" on="0"/>
        <pt x="865" y="1481" on="0"/>
        <pt x="983" y="1481" on="1"/>
        <pt x="1101" y="1481" on="0"/>
        <pt x="1344" y="1459" on="0"/>
        <pt x="1414" y="1459" on="1"/>
        <pt x="1452" y="1459" on="0"/>
        <pt x="1755" y="1465" on="0"/>
        <pt x="2094" y="1473" on="0"/>
        <pt x="2138" y="1474" on="1"/>
        <pt x="2133" y="1394" on="0"/>
        <pt x="2133" y="1354" on="1"/>
        <pt x="2132" y="1322" on="0"/>
        <pt x="2132" y="1250" on="0"/>
        <pt x="2133" y="1166" on="0"/>
        <pt x="2133" y="1146" on="1"/>
        <pt x="2129" y="1141" on="0"/>
        <pt x="2096" y="1134" on="0"/>
        <pt x="2082" y="1134" on="1"/>
        <pt x="2057" y="1134" on="0"/>
        <pt x="2054" y="1152" on="1"/>
        <pt x="2047" y="1193" on="0"/>
        <pt x="2032" y="1253" on="0"/>
        <pt x="2004" y="1314" on="0"/>
        <pt x="1968" y="1352" on="0"/>
        <pt x="1911" y="1376" on="0"/>
        <pt x="1874" y="1376" on="1"/>
        <pt x="1703" y="1376" on="1"/>
        <pt x="1659" y="1376" on="0"/>
        <pt x="1604" y="1366" on="0"/>
        <pt x="1594" y="1350" on="1"/>
        <pt x="1589" y="1342" on="0"/>
        <pt x="1582" y="1323" on="0"/>
        <pt x="1575" y="1293" on="0"/>
        <pt x="1570" y="1274" on="0"/>
        <pt x="1561" y="1225" on="0"/>
        <pt x="1558" y="1214" on="1"/>
        <pt x="1481" y="817" on="1"/>
        <pt x="1479" y="807" on="0"/>
        <pt x="1531" y="793" on="0"/>
        <pt x="1565" y="793" on="1"/>
        <pt x="1674" y="793" on="1"/>
        <pt x="1722" y="793" on="0"/>
        <pt x="1780" y="804" on="0"/>
        <pt x="1829" y="841" on="0"/>
        <pt x="1864" y="897" on="0"/>
        <pt x="1887" y="948" on="1"/>
        <pt x="1894" y="966" on="0"/>
        <pt x="1914" y="966" on="1"/>
        <pt x="1944" y="966" on="0"/>
        <pt x="1951" y="955" on="1"/>
        <pt x="1869" y="528" on="1"/>
        <pt x="1860" y="519" on="0"/>
        <pt x="1829" y="519" on="1"/>
        <pt x="1805" y="519" on="0"/>
        <pt x="1805" y="537" on="1"/>
        <pt x="1803" y="587" on="0"/>
        <pt x="1786" y="648" on="0"/>
        <pt x="1770" y="667" on="0"/>
        <pt x="1758" y="673" on="1"/>
        <pt x="1727" y="688" on="0"/>
        <pt x="1605" y="688" on="1"/>
        <pt x="1455" y="688" on="0"/>
        <pt x="1450" y="657" on="1"/>
        <pt x="1383" y="313" on="1"/>
        <pt x="1383" y="312" on="0"/>
        <pt x="1379" y="292" on="0"/>
        <pt x="1375" y="268" on="0"/>
        <pt x="1370" y="237" on="0"/>
        <pt x="1366" y="205" on="0"/>
        <pt x="1363" y="174" on="0"/>
        <pt x="1363" y="147" on="0"/>
        <pt x="1365" y="138" on="1"/>
        <pt x="1368" y="126" on="0"/>
        <pt x="1392" y="109" on="0"/>
        <pt x="1428" y="99" on="0"/>
        <pt x="1469" y="93" on="0"/>
        <pt x="1490" y="93" on="1"/>
        <pt x="1627" y="93" on="1"/>
        <pt x="1751" y="93" on="0"/>
        <pt x="1834" y="166" on="1"/>
        <pt x="1872" y="200" on="0"/>
        <pt x="1940" y="297" on="0"/>
        <pt x="1985" y="377" on="1"/>
        <pt x="1991" y="391" on="0"/>
        <pt x="2018" y="391" on="1"/>
        <pt x="2034" y="391" on="0"/>
        <pt x="2072" y="382" on="0"/>
        <pt x="2076" y="377" on="1"/>
        <pt x="2067" y="361" on="0"/>
        <pt x="2020" y="270" on="0"/>
        <pt x="1995" y="221" on="0"/>
        <pt x="1952" y="138" on="0"/>
        <pt x="1927" y="82" on="0"/>
        <pt x="1899" y="19" on="0"/>
        <pt x="1891" y="-4" on="1"/>
        <pt x="1219" y="-4" on="1"/>
        <pt x="1105" y="-4" on="0"/>
        <pt x="948" y="-13" on="1"/>
        <pt x="784" y="-22" on="0"/>
        <pt x="659" y="-22" on="1"/>
        <pt x="545" y="-22" on="0"/>
        <pt x="341" y="75" on="0"/>
        <pt x="197" y="238" on="0"/>
        <pt x="113" y="459" on="0"/>
      </contour>
      <contour>
        <pt x="433" y="542" on="1"/>
        <pt x="433" y="443" on="0"/>
        <pt x="466" y="278" on="0"/>
        <pt x="532" y="147" on="0"/>
        <pt x="645" y="73" on="0"/>
        <pt x="719" y="73" on="1"/>
        <pt x="810" y="73" on="0"/>
        <pt x="948" y="110" on="0"/>
        <pt x="1034" y="176" on="0"/>
        <pt x="1083" y="258" on="0"/>
        <pt x="1092" y="309" on="1"/>
        <pt x="1188" y="800" on="0"/>
        <pt x="1237" y="1048" on="1"/>
        <pt x="1251" y="1121" on="0"/>
        <pt x="1217" y="1260" on="0"/>
        <pt x="1168" y="1308" on="1"/>
        <pt x="1087" y="1385" on="0"/>
        <pt x="935" y="1385" on="1"/>
        <pt x="860" y="1385" on="0"/>
        <pt x="722" y="1311" on="0"/>
        <pt x="614" y="1185" on="0"/>
        <pt x="524" y="1017" on="0"/>
        <pt x="465" y="829" on="0"/>
        <pt x="433" y="633" on="0"/>
      </contour>
    </TTGlyph>
    <TTGlyph name="Oacute" xMin="109" yMin="-22" xMax="1507" yMax="1849">
      <contour>
        <pt x="109" y="579" on="1"/>
        <pt x="109" y="713" on="0"/>
        <pt x="181" y="962" on="0"/>
        <pt x="305" y="1156" on="0"/>
        <pt x="470" y="1317" on="0"/>
        <pt x="655" y="1423" on="0"/>
        <pt x="850" y="1481" on="0"/>
        <pt x="941" y="1481" on="1"/>
        <pt x="1047" y="1481" on="0"/>
        <pt x="1232" y="1409" on="0"/>
        <pt x="1365" y="1289" on="0"/>
        <pt x="1460" y="1132" on="0"/>
        <pt x="1507" y="959" on="0"/>
        <pt x="1507" y="872" on="1"/>
        <pt x="1507" y="754" on="0"/>
        <pt x="1452" y="534" on="0"/>
        <pt x="1354" y="358" on="0"/>
        <pt x="1222" y="206" on="0"/>
        <pt x="1068" y="95" on="0"/>
        <pt x="902" y="17" on="0"/>
        <pt x="734" y="-22" on="0"/>
        <pt x="655" y="-22" on="1"/>
        <pt x="541" y="-22" on="0"/>
        <pt x="337" y="75" on="0"/>
        <pt x="193" y="238" on="0"/>
        <pt x="109" y="459" on="0"/>
      </contour>
      <contour>
        <pt x="428" y="542" on="1"/>
        <pt x="428" y="443" on="0"/>
        <pt x="462" y="278" on="0"/>
        <pt x="531" y="147" on="0"/>
        <pt x="647" y="73" on="0"/>
        <pt x="724" y="73" on="1"/>
        <pt x="786" y="73" on="0"/>
        <pt x="901" y="127" on="0"/>
        <pt x="993" y="223" on="0"/>
        <pt x="1071" y="352" on="0"/>
        <pt x="1128" y="502" on="0"/>
        <pt x="1168" y="666" on="0"/>
        <pt x="1188" y="831" on="0"/>
        <pt x="1188" y="910" on="1"/>
        <pt x="1188" y="1008" on="0"/>
        <pt x="1151" y="1177" on="0"/>
        <pt x="1080" y="1309" on="0"/>
        <pt x="965" y="1385" on="0"/>
        <pt x="892" y="1385" on="1"/>
        <pt x="818" y="1385" on="0"/>
        <pt x="686" y="1311" on="0"/>
        <pt x="586" y="1184" on="0"/>
        <pt x="506" y="1018" on="0"/>
        <pt x="455" y="828" on="0"/>
        <pt x="428" y="634" on="0"/>
      </contour>
      <contour>
        <pt x="826" y="1616" on="1"/>
        <pt x="840" y="1639" on="0"/>
        <pt x="1001" y="1795" on="0"/>
        <pt x="1061" y="1832" on="1"/>
        <pt x="1068" y="1835" on="0"/>
        <pt x="1094" y="1842" on="0"/>
        <pt x="1122" y="1847" on="0"/>
        <pt x="1151" y="1849" on="0"/>
        <pt x="1163" y="1849" on="1"/>
        <pt x="1192" y="1849" on="0"/>
        <pt x="1245" y="1837" on="0"/>
        <pt x="1288" y="1803" on="0"/>
        <pt x="1288" y="1778" on="1"/>
        <pt x="1288" y="1762" on="0"/>
        <pt x="1252" y="1727" on="0"/>
        <pt x="1194" y="1696" on="0"/>
        <pt x="1119" y="1664" on="0"/>
        <pt x="1039" y="1638" on="0"/>
        <pt x="962" y="1615" on="0"/>
        <pt x="896" y="1598" on="0"/>
        <pt x="853" y="1588" on="0"/>
        <pt x="846" y="1587" on="1"/>
        <pt x="826" y="1602" on="0"/>
      </contour>
    </TTGlyph>
    <TTGlyph name="Ocircumflex" xMin="109" yMin="-22" xMax="1507" yMax="1931">
      <contour>
        <pt x="109" y="579" on="1"/>
        <pt x="109" y="713" on="0"/>
        <pt x="181" y="962" on="0"/>
        <pt x="305" y="1156" on="0"/>
        <pt x="470" y="1317" on="0"/>
        <pt x="655" y="1423" on="0"/>
        <pt x="850" y="1481" on="0"/>
        <pt x="941" y="1481" on="1"/>
        <pt x="1047" y="1481" on="0"/>
        <pt x="1232" y="1409" on="0"/>
        <pt x="1365" y="1289" on="0"/>
        <pt x="1460" y="1132" on="0"/>
        <pt x="1507" y="959" on="0"/>
        <pt x="1507" y="872" on="1"/>
        <pt x="1507" y="754" on="0"/>
        <pt x="1452" y="534" on="0"/>
        <pt x="1354" y="358" on="0"/>
        <pt x="1222" y="206" on="0"/>
        <pt x="1068" y="95" on="0"/>
        <pt x="902" y="17" on="0"/>
        <pt x="734" y="-22" on="0"/>
        <pt x="655" y="-22" on="1"/>
        <pt x="541" y="-22" on="0"/>
        <pt x="337" y="75" on="0"/>
        <pt x="193" y="238" on="0"/>
        <pt x="109" y="459" on="0"/>
      </contour>
      <contour>
        <pt x="428" y="542" on="1"/>
        <pt x="428" y="443" on="0"/>
        <pt x="462" y="278" on="0"/>
        <pt x="531" y="147" on="0"/>
        <pt x="647" y="73" on="0"/>
        <pt x="724" y="73" on="1"/>
        <pt x="786" y="73" on="0"/>
        <pt x="901" y="127" on="0"/>
        <pt x="993" y="223" on="0"/>
        <pt x="1071" y="352" on="0"/>
        <pt x="1128" y="502" on="0"/>
        <pt x="1168" y="666" on="0"/>
        <pt x="1188" y="831" on="0"/>
        <pt x="1188" y="910" on="1"/>
        <pt x="1188" y="1008" on="0"/>
        <pt x="1151" y="1177" on="0"/>
        <pt x="1080" y="1309" on="0"/>
        <pt x="965" y="1385" on="0"/>
        <pt x="892" y="1385" on="1"/>
        <pt x="818" y="1385" on="0"/>
        <pt x="686" y="1311" on="0"/>
        <pt x="586" y="1184" on="0"/>
        <pt x="506" y="1018" on="0"/>
        <pt x="455" y="828" on="0"/>
        <pt x="428" y="634" on="0"/>
      </contour>
      <contour>
        <pt x="639" y="1656" on="1"/>
        <pt x="728" y="1726" on="0"/>
        <pt x="915" y="1880" on="0"/>
        <pt x="946" y="1909" on="1"/>
        <pt x="968" y="1931" on="0"/>
        <pt x="977" y="1931" on="1"/>
        <pt x="979" y="1931" on="0"/>
        <pt x="984" y="1929" on="0"/>
        <pt x="990" y="1924" on="0"/>
        <pt x="993" y="1920" on="0"/>
        <pt x="1000" y="1911" on="0"/>
        <pt x="1001" y="1909" on="1"/>
        <pt x="1039" y="1859" on="0"/>
        <pt x="1177" y="1695" on="0"/>
        <pt x="1214" y="1656" on="1"/>
        <pt x="1211" y="1628" on="0"/>
        <pt x="1188" y="1621" on="1"/>
        <pt x="1167" y="1626" on="0"/>
        <pt x="987" y="1723" on="0"/>
        <pt x="946" y="1754" on="1"/>
        <pt x="889" y="1722" on="0"/>
        <pt x="683" y="1628" on="0"/>
        <pt x="655" y="1621" on="1"/>
        <pt x="648" y="1624" on="0"/>
        <pt x="638" y="1646" on="0"/>
      </contour>
    </TTGlyph>
    <TTGlyph name="Odieresis" xMin="109" yMin="-22" xMax="1507" yMax="1925">
      <contour>
        <pt x="109" y="579" on="1"/>
        <pt x="109" y="713" on="0"/>
        <pt x="181" y="962" on="0"/>
        <pt x="305" y="1156" on="0"/>
        <pt x="470" y="1317" on="0"/>
        <pt x="655" y="1423" on="0"/>
        <pt x="850" y="1481" on="0"/>
        <pt x="941" y="1481" on="1"/>
        <pt x="1047" y="1481" on="0"/>
        <pt x="1232" y="1409" on="0"/>
        <pt x="1365" y="1289" on="0"/>
        <pt x="1460" y="1132" on="0"/>
        <pt x="1507" y="959" on="0"/>
        <pt x="1507" y="872" on="1"/>
        <pt x="1507" y="754" on="0"/>
        <pt x="1452" y="534" on="0"/>
        <pt x="1354" y="358" on="0"/>
        <pt x="1222" y="206" on="0"/>
        <pt x="1068" y="95" on="0"/>
        <pt x="902" y="17" on="0"/>
        <pt x="734" y="-22" on="0"/>
        <pt x="655" y="-22" on="1"/>
        <pt x="541" y="-22" on="0"/>
        <pt x="337" y="75" on="0"/>
        <pt x="193" y="238" on="0"/>
        <pt x="109" y="459" on="0"/>
      </contour>
      <contour>
        <pt x="428" y="542" on="1"/>
        <pt x="428" y="443" on="0"/>
        <pt x="462" y="278" on="0"/>
        <pt x="531" y="147" on="0"/>
        <pt x="647" y="73" on="0"/>
        <pt x="724" y="73" on="1"/>
        <pt x="786" y="73" on="0"/>
        <pt x="901" y="127" on="0"/>
        <pt x="993" y="223" on="0"/>
        <pt x="1071" y="352" on="0"/>
        <pt x="1128" y="502" on="0"/>
        <pt x="1168" y="666" on="0"/>
        <pt x="1188" y="831" on="0"/>
        <pt x="1188" y="910" on="1"/>
        <pt x="1188" y="1008" on="0"/>
        <pt x="1151" y="1177" on="0"/>
        <pt x="1080" y="1309" on="0"/>
        <pt x="965" y="1385" on="0"/>
        <pt x="892" y="1385" on="1"/>
        <pt x="818" y="1385" on="0"/>
        <pt x="686" y="1311" on="0"/>
        <pt x="586" y="1184" on="0"/>
        <pt x="506" y="1018" on="0"/>
        <pt x="455" y="828" on="0"/>
        <pt x="428" y="634" on="0"/>
      </contour>
      <contour>
        <pt x="646" y="1776" on="1"/>
        <pt x="658" y="1838" on="0"/>
        <pt x="756" y="1925" on="0"/>
        <pt x="815" y="1925" on="1"/>
        <pt x="872" y="1925" on="0"/>
        <pt x="937" y="1837" on="0"/>
        <pt x="926" y="1776" on="1"/>
        <pt x="914" y="1713" on="0"/>
        <pt x="816" y="1618" on="0"/>
        <pt x="759" y="1618" on="1"/>
        <pt x="720" y="1618" on="0"/>
        <pt x="662" y="1663" on="0"/>
        <pt x="638" y="1735" on="0"/>
      </contour>
      <contour>
        <pt x="1077" y="1776" on="1"/>
        <pt x="1088" y="1838" on="0"/>
        <pt x="1187" y="1925" on="0"/>
        <pt x="1245" y="1925" on="1"/>
        <pt x="1302" y="1925" on="0"/>
        <pt x="1368" y="1837" on="0"/>
        <pt x="1356" y="1776" on="1"/>
        <pt x="1345" y="1713" on="0"/>
        <pt x="1247" y="1618" on="0"/>
        <pt x="1190" y="1618" on="1"/>
        <pt x="1131" y="1618" on="0"/>
        <pt x="1065" y="1713" on="0"/>
      </contour>
    </TTGlyph>
    <TTGlyph name="Ograve" xMin="109" yMin="-22" xMax="1507" yMax="1849">
      <contour>
        <pt x="109" y="579" on="1"/>
        <pt x="109" y="713" on="0"/>
        <pt x="181" y="962" on="0"/>
        <pt x="305" y="1156" on="0"/>
        <pt x="470" y="1317" on="0"/>
        <pt x="655" y="1423" on="0"/>
        <pt x="850" y="1481" on="0"/>
        <pt x="941" y="1481" on="1"/>
        <pt x="1047" y="1481" on="0"/>
        <pt x="1232" y="1409" on="0"/>
        <pt x="1365" y="1289" on="0"/>
        <pt x="1460" y="1132" on="0"/>
        <pt x="1507" y="959" on="0"/>
        <pt x="1507" y="872" on="1"/>
        <pt x="1507" y="754" on="0"/>
        <pt x="1452" y="534" on="0"/>
        <pt x="1354" y="358" on="0"/>
        <pt x="1222" y="206" on="0"/>
        <pt x="1068" y="95" on="0"/>
        <pt x="902" y="17" on="0"/>
        <pt x="734" y="-22" on="0"/>
        <pt x="655" y="-22" on="1"/>
        <pt x="541" y="-22" on="0"/>
        <pt x="337" y="75" on="0"/>
        <pt x="193" y="238" on="0"/>
        <pt x="109" y="459" on="0"/>
      </contour>
      <contour>
        <pt x="428" y="542" on="1"/>
        <pt x="428" y="443" on="0"/>
        <pt x="462" y="278" on="0"/>
        <pt x="531" y="147" on="0"/>
        <pt x="647" y="73" on="0"/>
        <pt x="724" y="73" on="1"/>
        <pt x="786" y="73" on="0"/>
        <pt x="901" y="127" on="0"/>
        <pt x="993" y="223" on="0"/>
        <pt x="1071" y="352" on="0"/>
        <pt x="1128" y="502" on="0"/>
        <pt x="1168" y="666" on="0"/>
        <pt x="1188" y="831" on="0"/>
        <pt x="1188" y="910" on="1"/>
        <pt x="1188" y="1008" on="0"/>
        <pt x="1151" y="1177" on="0"/>
        <pt x="1080" y="1309" on="0"/>
        <pt x="965" y="1385" on="0"/>
        <pt x="892" y="1385" on="1"/>
        <pt x="818" y="1385" on="0"/>
        <pt x="686" y="1311" on="0"/>
        <pt x="586" y="1184" on="0"/>
        <pt x="506" y="1018" on="0"/>
        <pt x="455" y="828" on="0"/>
        <pt x="428" y="634" on="0"/>
      </contour>
      <contour>
        <pt x="551" y="1778" on="1"/>
        <pt x="551" y="1803" on="0"/>
        <pt x="593" y="1837" on="0"/>
        <pt x="646" y="1849" on="0"/>
        <pt x="675" y="1849" on="1"/>
        <pt x="701" y="1849" on="0"/>
        <pt x="763" y="1839" on="0"/>
        <pt x="777" y="1832" on="1"/>
        <pt x="838" y="1795" on="0"/>
        <pt x="998" y="1639" on="0"/>
        <pt x="1012" y="1616" on="1"/>
        <pt x="1012" y="1602" on="0"/>
        <pt x="992" y="1587" on="1"/>
        <pt x="974" y="1590" on="0"/>
        <pt x="843" y="1624" on="0"/>
        <pt x="677" y="1677" on="0"/>
        <pt x="551" y="1748" on="0"/>
      </contour>
    </TTGlyph>
    <TTGlyph name="Oslash" xMin="109" yMin="-29" xMax="1507" yMax="1485">
      <contour>
        <pt x="109" y="579" on="1"/>
        <pt x="109" y="713" on="0"/>
        <pt x="181" y="962" on="0"/>
        <pt x="305" y="1156" on="0"/>
        <pt x="470" y="1317" on="0"/>
        <pt x="655" y="1423" on="0"/>
        <pt x="850" y="1481" on="0"/>
        <pt x="941" y="1481" on="1"/>
        <pt x="1047" y="1481" on="0"/>
        <pt x="1232" y="1409" on="0"/>
        <pt x="1365" y="1289" on="0"/>
        <pt x="1460" y="1132" on="0"/>
        <pt x="1507" y="959" on="0"/>
        <pt x="1507" y="872" on="1"/>
        <pt x="1507" y="754" on="0"/>
        <pt x="1452" y="534" on="0"/>
        <pt x="1354" y="358" on="0"/>
        <pt x="1222" y="206" on="0"/>
        <pt x="1068" y="95" on="0"/>
        <pt x="902" y="17" on="0"/>
        <pt x="734" y="-22" on="0"/>
        <pt x="655" y="-22" on="1"/>
        <pt x="541" y="-22" on="0"/>
        <pt x="337" y="75" on="0"/>
        <pt x="193" y="238" on="0"/>
        <pt x="109" y="459" on="0"/>
      </contour>
      <contour>
        <pt x="178" y="27" on="1"/>
        <pt x="1323" y="1485" on="1"/>
        <pt x="1339" y="1481" on="0"/>
        <pt x="1386" y="1441" on="0"/>
        <pt x="1379" y="1432" on="1"/>
        <pt x="231" y="-29" on="1"/>
        <pt x="214" y="-23" on="0"/>
        <pt x="170" y="18" on="0"/>
      </contour>
      <contour>
        <pt x="428" y="542" on="1"/>
        <pt x="428" y="443" on="0"/>
        <pt x="462" y="278" on="0"/>
        <pt x="531" y="147" on="0"/>
        <pt x="647" y="73" on="0"/>
        <pt x="724" y="73" on="1"/>
        <pt x="786" y="73" on="0"/>
        <pt x="901" y="127" on="0"/>
        <pt x="993" y="223" on="0"/>
        <pt x="1071" y="352" on="0"/>
        <pt x="1128" y="502" on="0"/>
        <pt x="1168" y="666" on="0"/>
        <pt x="1188" y="831" on="0"/>
        <pt x="1188" y="910" on="1"/>
        <pt x="1188" y="1008" on="0"/>
        <pt x="1151" y="1177" on="0"/>
        <pt x="1080" y="1309" on="0"/>
        <pt x="965" y="1385" on="0"/>
        <pt x="892" y="1385" on="1"/>
        <pt x="818" y="1385" on="0"/>
        <pt x="686" y="1311" on="0"/>
        <pt x="586" y="1184" on="0"/>
        <pt x="506" y="1018" on="0"/>
        <pt x="455" y="828" on="0"/>
        <pt x="428" y="634" on="0"/>
      </contour>
    </TTGlyph>
    <TTGlyph name="Otilde" xMin="109" yMin="-22" xMax="1507" yMax="1820">
      <contour>
        <pt x="109" y="579" on="1"/>
        <pt x="109" y="713" on="0"/>
        <pt x="181" y="962" on="0"/>
        <pt x="305" y="1156" on="0"/>
        <pt x="470" y="1317" on="0"/>
        <pt x="655" y="1423" on="0"/>
        <pt x="850" y="1481" on="0"/>
        <pt x="941" y="1481" on="1"/>
        <pt x="1047" y="1481" on="0"/>
        <pt x="1232" y="1409" on="0"/>
        <pt x="1365" y="1289" on="0"/>
        <pt x="1460" y="1132" on="0"/>
        <pt x="1507" y="959" on="0"/>
        <pt x="1507" y="872" on="1"/>
        <pt x="1507" y="754" on="0"/>
        <pt x="1452" y="534" on="0"/>
        <pt x="1354" y="358" on="0"/>
        <pt x="1222" y="206" on="0"/>
        <pt x="1068" y="95" on="0"/>
        <pt x="902" y="17" on="0"/>
        <pt x="734" y="-22" on="0"/>
        <pt x="655" y="-22" on="1"/>
        <pt x="541" y="-22" on="0"/>
        <pt x="337" y="75" on="0"/>
        <pt x="193" y="238" on="0"/>
        <pt x="109" y="459" on="0"/>
      </contour>
      <contour>
        <pt x="428" y="542" on="1"/>
        <pt x="428" y="443" on="0"/>
        <pt x="462" y="278" on="0"/>
        <pt x="531" y="147" on="0"/>
        <pt x="647" y="73" on="0"/>
        <pt x="724" y="73" on="1"/>
        <pt x="786" y="73" on="0"/>
        <pt x="901" y="127" on="0"/>
        <pt x="993" y="223" on="0"/>
        <pt x="1071" y="352" on="0"/>
        <pt x="1128" y="502" on="0"/>
        <pt x="1168" y="666" on="0"/>
        <pt x="1188" y="831" on="0"/>
        <pt x="1188" y="910" on="1"/>
        <pt x="1188" y="1008" on="0"/>
        <pt x="1151" y="1177" on="0"/>
        <pt x="1080" y="1309" on="0"/>
        <pt x="965" y="1385" on="0"/>
        <pt x="892" y="1385" on="1"/>
        <pt x="818" y="1385" on="0"/>
        <pt x="686" y="1311" on="0"/>
        <pt x="586" y="1184" on="0"/>
        <pt x="506" y="1018" on="0"/>
        <pt x="455" y="828" on="0"/>
        <pt x="428" y="634" on="0"/>
      </contour>
      <contour>
        <pt x="602" y="1647" on="1"/>
        <pt x="602" y="1691" on="0"/>
        <pt x="644" y="1738" on="1"/>
        <pt x="672" y="1768" on="0"/>
        <pt x="731" y="1804" on="0"/>
        <pt x="790" y="1820" on="0"/>
        <pt x="824" y="1820" on="1"/>
        <pt x="867" y="1820" on="0"/>
        <pt x="928" y="1806" on="0"/>
        <pt x="963" y="1785" on="1"/>
        <pt x="990" y="1769" on="0"/>
        <pt x="1014" y="1756" on="0"/>
        <pt x="1060" y="1736" on="0"/>
        <pt x="1105" y="1727" on="0"/>
        <pt x="1130" y="1727" on="1"/>
        <pt x="1209" y="1727" on="0"/>
        <pt x="1279" y="1820" on="1"/>
        <pt x="1285" y="1818" on="0"/>
        <pt x="1299" y="1801" on="0"/>
        <pt x="1299" y="1789" on="1"/>
        <pt x="1299" y="1745" on="0"/>
        <pt x="1257" y="1698" on="1"/>
        <pt x="1214" y="1654" on="0"/>
        <pt x="1128" y="1616" on="0"/>
        <pt x="1077" y="1616" on="1"/>
        <pt x="1033" y="1616" on="0"/>
        <pt x="972" y="1631" on="0"/>
        <pt x="937" y="1652" on="1"/>
        <pt x="903" y="1672" on="0"/>
        <pt x="869" y="1690" on="0"/>
        <pt x="803" y="1709" on="0"/>
        <pt x="770" y="1709" on="1"/>
        <pt x="692" y="1709" on="0"/>
        <pt x="622" y="1616" on="1"/>
        <pt x="618" y="1617" on="0"/>
        <pt x="609" y="1625" on="0"/>
        <pt x="602" y="1639" on="0"/>
      </contour>
    </TTGlyph>
    <TTGlyph name="P" xMin="-22" yMin="-9" xMax="1279" yMax="1465">
      <contour>
        <pt x="-20" y="-9" on="1"/>
        <pt x="-22" y="-5" on="0"/>
        <pt x="-22" y="4" on="1"/>
        <pt x="-22" y="16" on="0"/>
        <pt x="-18" y="32" on="1"/>
        <pt x="-12" y="62" on="0"/>
        <pt x="-2" y="73" on="1"/>
        <pt x="122" y="84" on="0"/>
        <pt x="138" y="113" on="1"/>
        <pt x="154" y="143" on="0"/>
        <pt x="177" y="235" on="0"/>
        <pt x="193" y="322" on="1"/>
        <pt x="353" y="1139" on="1"/>
        <pt x="355" y="1150" on="0"/>
        <pt x="365" y="1204" on="0"/>
        <pt x="369" y="1225" on="0"/>
        <pt x="376" y="1267" on="0"/>
        <pt x="378" y="1288" on="0"/>
        <pt x="381" y="1317" on="0"/>
        <pt x="379" y="1338" on="0"/>
        <pt x="377" y="1348" on="1"/>
        <pt x="377" y="1352" on="0"/>
        <pt x="369" y="1360" on="0"/>
        <pt x="356" y="1367" on="0"/>
        <pt x="342" y="1372" on="0"/>
        <pt x="321" y="1375" on="0"/>
        <pt x="305" y="1378" on="0"/>
        <pt x="283" y="1380" on="0"/>
        <pt x="271" y="1382" on="0"/>
        <pt x="253" y="1383" on="0"/>
        <pt x="251" y="1383" on="1"/>
        <pt x="248" y="1392" on="0"/>
        <pt x="252" y="1424" on="0"/>
        <pt x="263" y="1459" on="0"/>
        <pt x="269" y="1465" on="1"/>
        <pt x="360" y="1459" on="0"/>
        <pt x="562" y="1459" on="1"/>
        <pt x="601" y="1459" on="0"/>
        <pt x="816" y="1465" on="0"/>
        <pt x="881" y="1465" on="1"/>
        <pt x="976" y="1465" on="0"/>
        <pt x="1138" y="1396" on="0"/>
        <pt x="1244" y="1280" on="0"/>
        <pt x="1266" y="1200" on="1"/>
        <pt x="1279" y="1154" on="0"/>
        <pt x="1279" y="1106" on="1"/>
        <pt x="1279" y="1070" on="0"/>
        <pt x="1272" y="1032" on="1"/>
        <pt x="1257" y="955" on="0"/>
        <pt x="1177" y="823" on="0"/>
        <pt x="1069" y="731" on="0"/>
        <pt x="938" y="666" on="0"/>
        <pt x="805" y="635" on="0"/>
        <pt x="741" y="635" on="1"/>
        <pt x="684" y="635" on="0"/>
        <pt x="637" y="668" on="1"/>
        <pt x="631" y="673" on="0"/>
        <pt x="615" y="711" on="0"/>
        <pt x="615" y="719" on="1"/>
        <pt x="615" y="726" on="0"/>
        <pt x="622" y="735" on="0"/>
        <pt x="626" y="735" on="1"/>
        <pt x="653" y="726" on="0"/>
        <pt x="693" y="726" on="1"/>
        <pt x="771" y="726" on="0"/>
        <pt x="938" y="894" on="0"/>
        <pt x="959" y="1001" on="1"/>
        <pt x="971" y="1057" on="0"/>
        <pt x="971" y="1110" on="1"/>
        <pt x="971" y="1127" on="0"/>
        <pt x="970" y="1143" on="1"/>
        <pt x="965" y="1211" on="0"/>
        <pt x="927" y="1315" on="0"/>
        <pt x="852" y="1376" on="0"/>
        <pt x="801" y="1376" on="1"/>
        <pt x="758" y="1376" on="0"/>
        <pt x="703" y="1366" on="0"/>
        <pt x="693" y="1350" on="1"/>
        <pt x="688" y="1342" on="0"/>
        <pt x="681" y="1323" on="0"/>
        <pt x="673" y="1293" on="0"/>
        <pt x="669" y="1274" on="0"/>
        <pt x="659" y="1225" on="0"/>
        <pt x="657" y="1214" on="1"/>
        <pt x="484" y="322" on="1"/>
        <pt x="482" y="310" on="0"/>
        <pt x="472" y="256" on="0"/>
        <pt x="468" y="235" on="0"/>
        <pt x="461" y="194" on="0"/>
        <pt x="459" y="173" on="0"/>
        <pt x="456" y="143" on="0"/>
        <pt x="458" y="123" on="0"/>
        <pt x="460" y="113" on="1"/>
        <pt x="464" y="83" on="0"/>
        <pt x="584" y="73" on="1"/>
        <pt x="589" y="62" on="0"/>
        <pt x="577" y="1" on="0"/>
        <pt x="568" y="-9" on="1"/>
        <pt x="432" y="7" on="0"/>
        <pt x="275" y="7" on="1"/>
        <pt x="124" y="7" on="0"/>
      </contour>
    </TTGlyph>
    <TTGlyph name="Q" xMin="111" yMin="-311" xMax="1538" yMax="1481">
      <contour>
        <pt x="111" y="579" on="1"/>
        <pt x="111" y="713" on="0"/>
        <pt x="183" y="962" on="0"/>
        <pt x="307" y="1156" on="0"/>
        <pt x="472" y="1317" on="0"/>
        <pt x="658" y="1423" on="0"/>
        <pt x="852" y="1481" on="0"/>
        <pt x="944" y="1481" on="1"/>
        <pt x="1049" y="1481" on="0"/>
        <pt x="1234" y="1409" on="0"/>
        <pt x="1367" y="1289" on="0"/>
        <pt x="1463" y="1132" on="0"/>
        <pt x="1510" y="959" on="0"/>
        <pt x="1510" y="872" on="1"/>
        <pt x="1510" y="735" on="0"/>
        <pt x="1437" y="489" on="0"/>
        <pt x="1319" y="305" on="0"/>
        <pt x="1158" y="153" on="0"/>
        <pt x="991" y="54" on="0"/>
        <pt x="901" y="22" on="1"/>
        <pt x="932" y="5" on="0"/>
        <pt x="1033" y="-57" on="0"/>
        <pt x="1085" y="-87" on="0"/>
        <pt x="1171" y="-128" on="0"/>
        <pt x="1238" y="-147" on="0"/>
        <pt x="1331" y="-162" on="0"/>
        <pt x="1383" y="-162" on="1"/>
        <pt x="1442" y="-162" on="0"/>
        <pt x="1496" y="-147" on="1"/>
        <pt x="1524" y="-147" on="0"/>
        <pt x="1538" y="-169" on="1"/>
        <pt x="1520" y="-184" on="0"/>
        <pt x="1411" y="-247" on="0"/>
        <pt x="1245" y="-311" on="0"/>
        <pt x="1188" y="-311" on="1"/>
        <pt x="1132" y="-311" on="0"/>
        <pt x="1018" y="-282" on="0"/>
        <pt x="922" y="-237" on="0"/>
        <pt x="809" y="-174" on="0"/>
        <pt x="711" y="-113" on="0"/>
        <pt x="580" y="-43" on="0"/>
        <pt x="519" y="-18" on="1"/>
        <pt x="424" y="22" on="0"/>
        <pt x="271" y="144" on="0"/>
        <pt x="166" y="297" on="0"/>
        <pt x="111" y="480" on="0"/>
      </contour>
      <contour>
        <pt x="431" y="542" on="1"/>
        <pt x="431" y="443" on="0"/>
        <pt x="464" y="278" on="0"/>
        <pt x="533" y="147" on="0"/>
        <pt x="649" y="73" on="0"/>
        <pt x="726" y="73" on="1"/>
        <pt x="781" y="73" on="0"/>
        <pt x="883" y="115" on="0"/>
        <pt x="967" y="190" on="0"/>
        <pt x="1042" y="293" on="0"/>
        <pt x="1099" y="416" on="0"/>
        <pt x="1145" y="553" on="0"/>
        <pt x="1174" y="697" on="0"/>
        <pt x="1190" y="841" on="0"/>
        <pt x="1190" y="910" on="1"/>
        <pt x="1190" y="1008" on="0"/>
        <pt x="1153" y="1177" on="0"/>
        <pt x="1082" y="1309" on="0"/>
        <pt x="967" y="1385" on="0"/>
        <pt x="895" y="1385" on="1"/>
        <pt x="820" y="1385" on="0"/>
        <pt x="688" y="1311" on="0"/>
        <pt x="588" y="1184" on="0"/>
        <pt x="508" y="1018" on="0"/>
        <pt x="457" y="828" on="0"/>
        <pt x="431" y="634" on="0"/>
      </contour>
    </TTGlyph>
    <TTGlyph name="R" xMin="-22" yMin="-18" xMax="1414" yMax="1465">
      <contour>
        <pt x="-20" y="-9" on="1"/>
        <pt x="-22" y="-5" on="0"/>
        <pt x="-22" y="4" on="1"/>
        <pt x="-22" y="16" on="0"/>
        <pt x="-18" y="32" on="1"/>
        <pt x="-12" y="62" on="0"/>
        <pt x="-2" y="73" on="1"/>
        <pt x="122" y="84" on="0"/>
        <pt x="138" y="113" on="1"/>
        <pt x="154" y="143" on="0"/>
        <pt x="177" y="235" on="0"/>
        <pt x="193" y="322" on="1"/>
        <pt x="353" y="1139" on="1"/>
        <pt x="355" y="1150" on="0"/>
        <pt x="365" y="1204" on="0"/>
        <pt x="369" y="1225" on="0"/>
        <pt x="376" y="1267" on="0"/>
        <pt x="378" y="1288" on="0"/>
        <pt x="381" y="1317" on="0"/>
        <pt x="379" y="1338" on="0"/>
        <pt x="377" y="1348" on="1"/>
        <pt x="377" y="1352" on="0"/>
        <pt x="369" y="1360" on="0"/>
        <pt x="356" y="1367" on="0"/>
        <pt x="342" y="1372" on="0"/>
        <pt x="321" y="1375" on="0"/>
        <pt x="305" y="1378" on="0"/>
        <pt x="283" y="1380" on="0"/>
        <pt x="271" y="1382" on="0"/>
        <pt x="253" y="1383" on="0"/>
        <pt x="251" y="1383" on="1"/>
        <pt x="248" y="1392" on="0"/>
        <pt x="252" y="1424" on="0"/>
        <pt x="263" y="1459" on="0"/>
        <pt x="269" y="1465" on="1"/>
        <pt x="360" y="1459" on="0"/>
        <pt x="562" y="1459" on="1"/>
        <pt x="601" y="1459" on="0"/>
        <pt x="816" y="1465" on="0"/>
        <pt x="881" y="1465" on="1"/>
        <pt x="977" y="1465" on="0"/>
        <pt x="1131" y="1402" on="0"/>
        <pt x="1180" y="1344" on="1"/>
        <pt x="1230" y="1286" on="0"/>
        <pt x="1248" y="1203" on="1"/>
        <pt x="1257" y="1164" on="0"/>
        <pt x="1256" y="1121" on="1"/>
        <pt x="1256" y="1072" on="0"/>
        <pt x="1245" y="1017" on="1"/>
        <pt x="1238" y="977" on="0"/>
        <pt x="1198" y="902" on="0"/>
        <pt x="1145" y="844" on="0"/>
        <pt x="1080" y="792" on="0"/>
        <pt x="1016" y="754" on="0"/>
        <pt x="950" y="724" on="0"/>
        <pt x="899" y="706" on="0"/>
        <pt x="879" y="702" on="1"/>
        <pt x="907" y="646" on="0"/>
        <pt x="980" y="496" on="0"/>
        <pt x="1009" y="439" on="0"/>
        <pt x="1063" y="345" on="0"/>
        <pt x="1099" y="289" on="1"/>
        <pt x="1128" y="243" on="0"/>
        <pt x="1196" y="168" on="0"/>
        <pt x="1259" y="121" on="0"/>
        <pt x="1318" y="87" on="0"/>
        <pt x="1369" y="70" on="0"/>
        <pt x="1402" y="62" on="0"/>
        <pt x="1412" y="62" on="1"/>
        <pt x="1414" y="54" on="0"/>
        <pt x="1414" y="42" on="1"/>
        <pt x="1414" y="32" on="0"/>
        <pt x="1413" y="22" on="1"/>
        <pt x="1410" y="-4" on="0"/>
        <pt x="1407" y="-9" on="1"/>
        <pt x="1386" y="-10" on="0"/>
        <pt x="1350" y="-15" on="0"/>
        <pt x="1314" y="-18" on="0"/>
        <pt x="1276" y="-18" on="1"/>
        <pt x="1207" y="-18" on="0"/>
        <pt x="1088" y="1" on="0"/>
        <pt x="1005" y="29" on="0"/>
        <pt x="932" y="74" on="0"/>
        <pt x="890" y="110" on="0"/>
        <pt x="850" y="166" on="0"/>
        <pt x="834" y="194" on="0"/>
        <pt x="822" y="218" on="1"/>
        <pt x="822" y="219" on="0"/>
        <pt x="821" y="220" on="1"/>
        <pt x="610" y="630" on="1"/>
        <pt x="595" y="664" on="0"/>
        <pt x="579" y="664" on="1"/>
        <pt x="551" y="664" on="1"/>
        <pt x="484" y="322" on="1"/>
        <pt x="482" y="310" on="0"/>
        <pt x="472" y="256" on="0"/>
        <pt x="468" y="235" on="0"/>
        <pt x="461" y="194" on="0"/>
        <pt x="459" y="173" on="0"/>
        <pt x="456" y="143" on="0"/>
        <pt x="458" y="123" on="0"/>
        <pt x="460" y="113" on="1"/>
        <pt x="464" y="83" on="0"/>
        <pt x="584" y="73" on="1"/>
        <pt x="589" y="62" on="0"/>
        <pt x="577" y="1" on="0"/>
        <pt x="568" y="-9" on="1"/>
        <pt x="432" y="7" on="0"/>
        <pt x="275" y="7" on="1"/>
        <pt x="124" y="7" on="0"/>
      </contour>
      <contour>
        <pt x="566" y="750" on="1"/>
        <pt x="662" y="750" on="1"/>
        <pt x="754" y="750" on="0"/>
        <pt x="901" y="873" on="0"/>
        <pt x="935" y="995" on="1"/>
        <pt x="948" y="1044" on="0"/>
        <pt x="954" y="1096" on="1"/>
        <pt x="957" y="1124" on="0"/>
        <pt x="957" y="1152" on="1"/>
        <pt x="957" y="1175" on="0"/>
        <pt x="955" y="1198" on="1"/>
        <pt x="950" y="1249" on="0"/>
        <pt x="918" y="1328" on="0"/>
        <pt x="850" y="1376" on="0"/>
        <pt x="801" y="1376" on="1"/>
        <pt x="758" y="1376" on="0"/>
        <pt x="703" y="1366" on="0"/>
        <pt x="693" y="1350" on="1"/>
        <pt x="688" y="1342" on="0"/>
        <pt x="681" y="1323" on="0"/>
        <pt x="673" y="1293" on="0"/>
        <pt x="669" y="1274" on="0"/>
        <pt x="659" y="1225" on="0"/>
        <pt x="657" y="1214" on="1"/>
      </contour>
    </TTGlyph>
    <TTGlyph name="S" xMin="49" yMin="-22" xMax="1072" yMax="1487">
      <contour>
        <pt x="49" y="36" on="1"/>
        <pt x="49" y="48" on="0"/>
        <pt x="49" y="62" on="1"/>
        <pt x="49" y="126" on="0"/>
        <pt x="56" y="230" on="1"/>
        <pt x="65" y="358" on="0"/>
        <pt x="73" y="413" on="1"/>
        <pt x="81" y="422" on="0"/>
        <pt x="131" y="444" on="0"/>
        <pt x="140" y="444" on="1"/>
        <pt x="162" y="444" on="0"/>
        <pt x="162" y="426" on="1"/>
        <pt x="162" y="422" on="0"/>
        <pt x="162" y="419" on="1"/>
        <pt x="162" y="386" on="0"/>
        <pt x="170" y="344" on="1"/>
        <pt x="179" y="298" on="0"/>
        <pt x="222" y="201" on="0"/>
        <pt x="283" y="122" on="0"/>
        <pt x="375" y="71" on="0"/>
        <pt x="428" y="71" on="1"/>
        <pt x="469" y="71" on="0"/>
        <pt x="543" y="95" on="0"/>
        <pt x="610" y="144" on="0"/>
        <pt x="659" y="229" on="0"/>
        <pt x="670" y="286" on="1"/>
        <pt x="674" y="306" on="0"/>
        <pt x="674" y="327" on="1"/>
        <pt x="674" y="356" on="0"/>
        <pt x="665" y="386" on="1"/>
        <pt x="650" y="436" on="0"/>
        <pt x="568" y="531" on="0"/>
        <pt x="511" y="585" on="0"/>
        <pt x="462" y="626" on="1"/>
        <pt x="443" y="641" on="0"/>
        <pt x="435" y="648" on="1"/>
        <pt x="429" y="653" on="0"/>
        <pt x="418" y="663" on="1"/>
        <pt x="391" y="686" on="0"/>
        <pt x="363" y="709" on="0"/>
        <pt x="315" y="755" on="0"/>
        <pt x="290" y="784" on="0"/>
        <pt x="253" y="833" on="0"/>
        <pt x="235" y="873" on="0"/>
        <pt x="215" y="928" on="0"/>
        <pt x="211" y="983" on="0"/>
        <pt x="213" y="1049" on="0"/>
        <pt x="220" y="1086" on="1"/>
        <pt x="236" y="1169" on="0"/>
        <pt x="343" y="1320" on="0"/>
        <pt x="487" y="1425" on="0"/>
        <pt x="658" y="1487" on="0"/>
        <pt x="737" y="1487" on="1"/>
        <pt x="780" y="1487" on="0"/>
        <pt x="874" y="1474" on="0"/>
        <pt x="931" y="1461" on="0"/>
        <pt x="1047" y="1431" on="0"/>
        <pt x="1072" y="1425" on="1"/>
        <pt x="1054" y="1264" on="0"/>
        <pt x="1023" y="1057" on="1"/>
        <pt x="1010" y="1043" on="0"/>
        <pt x="997" y="1043" on="1"/>
        <pt x="939" y="1043" on="0"/>
        <pt x="939" y="1059" on="1"/>
        <pt x="940" y="1069" on="0"/>
        <pt x="940" y="1079" on="1"/>
        <pt x="940" y="1110" on="0"/>
        <pt x="935" y="1142" on="1"/>
        <pt x="929" y="1186" on="0"/>
        <pt x="898" y="1276" on="0"/>
        <pt x="850" y="1348" on="0"/>
        <pt x="774" y="1394" on="0"/>
        <pt x="728" y="1394" on="1"/>
        <pt x="696" y="1394" on="0"/>
        <pt x="634" y="1375" on="0"/>
        <pt x="572" y="1333" on="0"/>
        <pt x="525" y="1254" on="0"/>
        <pt x="515" y="1201" on="1"/>
        <pt x="512" y="1184" on="0"/>
        <pt x="512" y="1166" on="1"/>
        <pt x="512" y="1134" on="0"/>
        <pt x="522" y="1102" on="1"/>
        <pt x="538" y="1052" on="0"/>
        <pt x="625" y="954" on="0"/>
        <pt x="690" y="892" on="0"/>
        <pt x="746" y="846" on="1"/>
        <pt x="755" y="838" on="0"/>
        <pt x="773" y="823" on="1"/>
        <pt x="806" y="797" on="0"/>
        <pt x="839" y="769" on="0"/>
        <pt x="895" y="712" on="0"/>
        <pt x="924" y="669" on="0"/>
        <pt x="959" y="599" on="0"/>
        <pt x="971" y="531" on="0"/>
        <pt x="971" y="439" on="0"/>
        <pt x="961" y="388" on="1"/>
        <pt x="944" y="300" on="0"/>
        <pt x="837" y="144" on="0"/>
        <pt x="690" y="38" on="0"/>
        <pt x="515" y="-22" on="0"/>
        <pt x="431" y="-22" on="1"/>
        <pt x="267" y="-22" on="0"/>
      </contour>
    </TTGlyph>
    <TTGlyph name="T" xMin="120" yMin="-9" xMax="1419" yMax="1501">
      <contour>
        <pt x="120" y="1086" on="1"/>
        <pt x="253" y="1494" on="1"/>
        <pt x="266" y="1501" on="0"/>
        <pt x="280" y="1501" on="1"/>
        <pt x="291" y="1501" on="0"/>
        <pt x="324" y="1488" on="0"/>
        <pt x="358" y="1472" on="0"/>
        <pt x="435" y="1459" on="0"/>
        <pt x="486" y="1459" on="1"/>
        <pt x="808" y="1459" on="1"/>
        <pt x="1172" y="1459" on="1"/>
        <pt x="1223" y="1459" on="0"/>
        <pt x="1305" y="1472" on="0"/>
        <pt x="1345" y="1488" on="0"/>
        <pt x="1383" y="1501" on="0"/>
        <pt x="1394" y="1501" on="1"/>
        <pt x="1409" y="1501" on="0"/>
        <pt x="1419" y="1494" on="1"/>
        <pt x="1394" y="1086" on="1"/>
        <pt x="1389" y="1081" on="0"/>
        <pt x="1346" y="1070" on="0"/>
        <pt x="1332" y="1070" on="1"/>
        <pt x="1314" y="1070" on="0"/>
        <pt x="1314" y="1081" on="1"/>
        <pt x="1315" y="1093" on="0"/>
        <pt x="1315" y="1105" on="1"/>
        <pt x="1315" y="1164" on="0"/>
        <pt x="1298" y="1217" on="1"/>
        <pt x="1278" y="1281" on="0"/>
        <pt x="1198" y="1361" on="0"/>
        <pt x="1148" y="1361" on="1"/>
        <pt x="955" y="1361" on="1"/>
        <pt x="753" y="322" on="1"/>
        <pt x="750" y="310" on="0"/>
        <pt x="740" y="256" on="0"/>
        <pt x="736" y="235" on="0"/>
        <pt x="729" y="194" on="0"/>
        <pt x="727" y="173" on="0"/>
        <pt x="725" y="143" on="0"/>
        <pt x="726" y="123" on="0"/>
        <pt x="728" y="113" on="1"/>
        <pt x="733" y="83" on="0"/>
        <pt x="852" y="73" on="1"/>
        <pt x="857" y="62" on="0"/>
        <pt x="845" y="1" on="0"/>
        <pt x="837" y="-9" on="1"/>
        <pt x="701" y="7" on="0"/>
        <pt x="546" y="7" on="1"/>
        <pt x="395" y="7" on="0"/>
        <pt x="251" y="-9" on="1"/>
        <pt x="248" y="0" on="0"/>
        <pt x="250" y="30" on="0"/>
        <pt x="260" y="66" on="0"/>
        <pt x="266" y="73" on="1"/>
        <pt x="390" y="84" on="0"/>
        <pt x="406" y="113" on="1"/>
        <pt x="435" y="165" on="0"/>
        <pt x="464" y="322" on="1"/>
        <pt x="666" y="1361" on="1"/>
        <pt x="473" y="1361" on="1"/>
        <pt x="422" y="1361" on="0"/>
        <pt x="311" y="1281" on="0"/>
        <pt x="222" y="1153" on="0"/>
        <pt x="198" y="1081" on="1"/>
        <pt x="192" y="1070" on="0"/>
        <pt x="175" y="1070" on="1"/>
        <pt x="167" y="1070" on="0"/>
        <pt x="142" y="1075" on="0"/>
        <pt x="122" y="1082" on="0"/>
      </contour>
    </TTGlyph>
    <TTGlyph name="Thorn" xMin="-25" yMin="-9" xMax="1225" yMax="1474">
      <contour>
        <pt x="-20" y="-9" on="1"/>
        <pt x="-25" y="1" on="0"/>
        <pt x="-12" y="62" on="0"/>
        <pt x="-2" y="73" on="1"/>
        <pt x="122" y="84" on="0"/>
        <pt x="138" y="113" on="1"/>
        <pt x="154" y="143" on="0"/>
        <pt x="177" y="235" on="0"/>
        <pt x="193" y="322" on="1"/>
        <pt x="353" y="1139" on="1"/>
        <pt x="355" y="1150" on="0"/>
        <pt x="365" y="1204" on="0"/>
        <pt x="369" y="1225" on="0"/>
        <pt x="376" y="1267" on="0"/>
        <pt x="378" y="1288" on="0"/>
        <pt x="381" y="1317" on="0"/>
        <pt x="379" y="1338" on="0"/>
        <pt x="377" y="1348" on="1"/>
        <pt x="377" y="1352" on="0"/>
        <pt x="369" y="1360" on="0"/>
        <pt x="356" y="1367" on="0"/>
        <pt x="342" y="1372" on="0"/>
        <pt x="321" y="1375" on="0"/>
        <pt x="305" y="1378" on="0"/>
        <pt x="283" y="1380" on="0"/>
        <pt x="271" y="1382" on="0"/>
        <pt x="253" y="1383" on="0"/>
        <pt x="251" y="1383" on="1"/>
        <pt x="248" y="1392" on="0"/>
        <pt x="252" y="1424" on="0"/>
        <pt x="263" y="1459" on="0"/>
        <pt x="269" y="1465" on="1"/>
        <pt x="360" y="1459" on="0"/>
        <pt x="562" y="1459" on="1"/>
        <pt x="711" y="1459" on="0"/>
        <pt x="855" y="1474" on="1"/>
        <pt x="860" y="1464" on="0"/>
        <pt x="849" y="1403" on="0"/>
        <pt x="839" y="1392" on="1"/>
        <pt x="715" y="1382" on="0"/>
        <pt x="699" y="1352" on="1"/>
        <pt x="673" y="1305" on="0"/>
        <pt x="646" y="1154" on="1"/>
        <pt x="646" y="1130" on="0"/>
        <pt x="650" y="1130" on="1"/>
        <pt x="653" y="1130" on="0"/>
        <pt x="659" y="1132" on="0"/>
        <pt x="662" y="1132" on="1"/>
        <pt x="693" y="1139" on="0"/>
        <pt x="808" y="1139" on="1"/>
        <pt x="905" y="1139" on="0"/>
        <pt x="1071" y="1069" on="0"/>
        <pt x="1179" y="952" on="0"/>
        <pt x="1225" y="791" on="0"/>
        <pt x="1208" y="704" on="1"/>
        <pt x="1195" y="639" on="0"/>
        <pt x="1135" y="524" on="0"/>
        <pt x="1052" y="437" on="0"/>
        <pt x="951" y="367" on="0"/>
        <pt x="841" y="323" on="0"/>
        <pt x="730" y="300" on="0"/>
        <pt x="677" y="300" on="1"/>
        <pt x="594" y="300" on="0"/>
        <pt x="564" y="342" on="1"/>
        <pt x="561" y="346" on="0"/>
        <pt x="555" y="366" on="0"/>
        <pt x="553" y="385" on="0"/>
        <pt x="553" y="391" on="1"/>
        <pt x="553" y="397" on="0"/>
        <pt x="558" y="406" on="0"/>
        <pt x="562" y="406" on="1"/>
        <pt x="588" y="397" on="0"/>
        <pt x="628" y="397" on="1"/>
        <pt x="707" y="397" on="0"/>
        <pt x="873" y="565" on="0"/>
        <pt x="895" y="673" on="1"/>
        <pt x="910" y="747" on="0"/>
        <pt x="900" y="883" on="0"/>
        <pt x="863" y="986" on="0"/>
        <pt x="787" y="1048" on="0"/>
        <pt x="737" y="1048" on="1"/>
        <pt x="657" y="1048" on="0"/>
        <pt x="630" y="1012" on="1"/>
        <pt x="619" y="997" on="0"/>
        <pt x="606" y="951" on="0"/>
        <pt x="596" y="901" on="1"/>
        <pt x="595" y="897" on="0"/>
        <pt x="594" y="894" on="0"/>
        <pt x="593" y="888" on="0"/>
        <pt x="593" y="886" on="1"/>
        <pt x="484" y="322" on="1"/>
        <pt x="482" y="310" on="0"/>
        <pt x="472" y="256" on="0"/>
        <pt x="468" y="235" on="0"/>
        <pt x="461" y="194" on="0"/>
        <pt x="459" y="173" on="0"/>
        <pt x="456" y="143" on="0"/>
        <pt x="458" y="123" on="0"/>
        <pt x="460" y="113" on="1"/>
        <pt x="464" y="83" on="0"/>
        <pt x="584" y="73" on="1"/>
        <pt x="589" y="62" on="0"/>
        <pt x="577" y="1" on="0"/>
        <pt x="568" y="-9" on="1"/>
        <pt x="432" y="7" on="0"/>
        <pt x="275" y="7" on="1"/>
        <pt x="124" y="7" on="0"/>
      </contour>
    </TTGlyph>
    <TTGlyph name="U" xMin="189" yMin="-20" xMax="1683" yMax="1470">
      <contour>
        <pt x="190" y="376" on="1"/>
        <pt x="189" y="390" on="0"/>
        <pt x="190" y="405" on="1"/>
        <pt x="190" y="516" on="0"/>
        <pt x="220" y="668" on="1"/>
        <pt x="311" y="1139" on="1"/>
        <pt x="313" y="1150" on="0"/>
        <pt x="323" y="1204" on="0"/>
        <pt x="327" y="1225" on="0"/>
        <pt x="334" y="1267" on="0"/>
        <pt x="336" y="1288" on="0"/>
        <pt x="338" y="1317" on="0"/>
        <pt x="337" y="1338" on="0"/>
        <pt x="335" y="1348" on="1"/>
        <pt x="331" y="1378" on="0"/>
        <pt x="211" y="1388" on="1"/>
        <pt x="208" y="1397" on="0"/>
        <pt x="211" y="1429" on="0"/>
        <pt x="221" y="1463" on="0"/>
        <pt x="226" y="1470" on="1"/>
        <pt x="362" y="1454" on="0"/>
        <pt x="519" y="1454" on="1"/>
        <pt x="669" y="1454" on="0"/>
        <pt x="813" y="1470" on="1"/>
        <pt x="818" y="1459" on="0"/>
        <pt x="807" y="1399" on="0"/>
        <pt x="797" y="1388" on="1"/>
        <pt x="673" y="1377" on="0"/>
        <pt x="657" y="1348" on="1"/>
        <pt x="629" y="1296" on="0"/>
        <pt x="599" y="1139" on="1"/>
        <pt x="522" y="733" on="1"/>
        <pt x="509" y="666" on="0"/>
        <pt x="496" y="582" on="0"/>
        <pt x="491" y="532" on="1"/>
        <pt x="488" y="499" on="0"/>
        <pt x="488" y="468" on="1"/>
        <pt x="488" y="453" on="0"/>
        <pt x="488" y="439" on="1"/>
        <pt x="490" y="396" on="0"/>
        <pt x="500" y="353" on="1"/>
        <pt x="543" y="140" on="0"/>
        <pt x="773" y="140" on="1"/>
        <pt x="823" y="140" on="0"/>
        <pt x="925" y="178" on="0"/>
        <pt x="1028" y="263" on="0"/>
        <pt x="1116" y="388" on="0"/>
        <pt x="1190" y="573" on="0"/>
        <pt x="1212" y="686" on="1"/>
        <pt x="1285" y="1063" on="1"/>
        <pt x="1295" y="1113" on="0"/>
        <pt x="1302" y="1166" on="1"/>
        <pt x="1310" y="1220" on="0"/>
        <pt x="1312" y="1266" on="1"/>
        <pt x="1313" y="1284" on="0"/>
        <pt x="1312" y="1298" on="1"/>
        <pt x="1312" y="1321" on="0"/>
        <pt x="1310" y="1334" on="1"/>
        <pt x="1301" y="1376" on="0"/>
        <pt x="1166" y="1388" on="1"/>
        <pt x="1161" y="1399" on="0"/>
        <pt x="1173" y="1459" on="0"/>
        <pt x="1181" y="1470" on="1"/>
        <pt x="1348" y="1454" on="0"/>
        <pt x="1436" y="1454" on="1"/>
        <pt x="1489" y="1454" on="0"/>
        <pt x="1655" y="1468" on="0"/>
        <pt x="1681" y="1470" on="1"/>
        <pt x="1683" y="1465" on="0"/>
        <pt x="1683" y="1455" on="1"/>
        <pt x="1682" y="1444" on="0"/>
        <pt x="1680" y="1429" on="1"/>
        <pt x="1674" y="1399" on="0"/>
        <pt x="1665" y="1388" on="1"/>
        <pt x="1664" y="1387" on="0"/>
        <pt x="1643" y="1386" on="0"/>
        <pt x="1629" y="1385" on="0"/>
        <pt x="1602" y="1382" on="0"/>
        <pt x="1582" y="1378" on="0"/>
        <pt x="1556" y="1372" on="0"/>
        <pt x="1536" y="1364" on="0"/>
        <pt x="1515" y="1355" on="0"/>
        <pt x="1501" y="1342" on="0"/>
        <pt x="1496" y="1334" on="1"/>
        <pt x="1478" y="1301" on="0"/>
        <pt x="1427" y="1136" on="0"/>
        <pt x="1414" y="1066" on="1"/>
        <pt x="1330" y="635" on="1"/>
        <pt x="1304" y="503" on="0"/>
        <pt x="1201" y="284" on="0"/>
        <pt x="1066" y="133" on="0"/>
        <pt x="902" y="28" on="0"/>
        <pt x="728" y="-20" on="0"/>
        <pt x="637" y="-20" on="1"/>
        <pt x="549" y="-20" on="0"/>
        <pt x="398" y="21" on="0"/>
        <pt x="276" y="110" on="0"/>
        <pt x="240" y="175" on="1"/>
        <pt x="194" y="256" on="0"/>
      </contour>
    </TTGlyph>
    <TTGlyph name="Uacute" xMin="186" yMin="-20" xMax="1686" yMax="1849">
      <contour>
        <pt x="195" y="256" on="0"/>
        <pt x="186" y="496" on="0"/>
        <pt x="220" y="668" on="1"/>
        <pt x="311" y="1139" on="1"/>
        <pt x="313" y="1150" on="0"/>
        <pt x="323" y="1204" on="0"/>
        <pt x="327" y="1225" on="0"/>
        <pt x="334" y="1267" on="0"/>
        <pt x="336" y="1288" on="0"/>
        <pt x="338" y="1317" on="0"/>
        <pt x="337" y="1338" on="0"/>
        <pt x="335" y="1348" on="1"/>
        <pt x="331" y="1378" on="0"/>
        <pt x="211" y="1388" on="1"/>
        <pt x="208" y="1397" on="0"/>
        <pt x="211" y="1429" on="0"/>
        <pt x="221" y="1463" on="0"/>
        <pt x="226" y="1470" on="1"/>
        <pt x="362" y="1454" on="0"/>
        <pt x="519" y="1454" on="1"/>
        <pt x="669" y="1454" on="0"/>
        <pt x="813" y="1470" on="1"/>
        <pt x="818" y="1459" on="0"/>
        <pt x="807" y="1399" on="0"/>
        <pt x="797" y="1388" on="1"/>
        <pt x="673" y="1377" on="0"/>
        <pt x="657" y="1348" on="1"/>
        <pt x="629" y="1296" on="0"/>
        <pt x="599" y="1139" on="1"/>
        <pt x="522" y="733" on="1"/>
        <pt x="509" y="666" on="0"/>
        <pt x="496" y="582" on="0"/>
        <pt x="486" y="482" on="0"/>
        <pt x="491" y="396" on="0"/>
        <pt x="500" y="353" on="1"/>
        <pt x="543" y="140" on="0"/>
        <pt x="773" y="140" on="1"/>
        <pt x="823" y="140" on="0"/>
        <pt x="925" y="178" on="0"/>
        <pt x="1028" y="263" on="0"/>
        <pt x="1116" y="388" on="0"/>
        <pt x="1190" y="573" on="0"/>
        <pt x="1212" y="686" on="1"/>
        <pt x="1285" y="1063" on="1"/>
        <pt x="1295" y="1113" on="0"/>
        <pt x="1309" y="1219" on="0"/>
        <pt x="1314" y="1312" on="0"/>
        <pt x="1310" y="1334" on="1"/>
        <pt x="1301" y="1376" on="0"/>
        <pt x="1166" y="1388" on="1"/>
        <pt x="1161" y="1399" on="0"/>
        <pt x="1173" y="1459" on="0"/>
        <pt x="1181" y="1470" on="1"/>
        <pt x="1348" y="1454" on="0"/>
        <pt x="1436" y="1454" on="1"/>
        <pt x="1489" y="1454" on="0"/>
        <pt x="1655" y="1468" on="0"/>
        <pt x="1681" y="1470" on="1"/>
        <pt x="1686" y="1459" on="0"/>
        <pt x="1675" y="1399" on="0"/>
        <pt x="1665" y="1388" on="1"/>
        <pt x="1664" y="1387" on="0"/>
        <pt x="1643" y="1386" on="0"/>
        <pt x="1629" y="1385" on="0"/>
        <pt x="1602" y="1382" on="0"/>
        <pt x="1582" y="1378" on="0"/>
        <pt x="1556" y="1372" on="0"/>
        <pt x="1536" y="1364" on="0"/>
        <pt x="1515" y="1355" on="0"/>
        <pt x="1501" y="1342" on="0"/>
        <pt x="1496" y="1334" on="1"/>
        <pt x="1478" y="1301" on="0"/>
        <pt x="1427" y="1136" on="0"/>
        <pt x="1414" y="1066" on="1"/>
        <pt x="1330" y="635" on="1"/>
        <pt x="1304" y="503" on="0"/>
        <pt x="1201" y="284" on="0"/>
        <pt x="1066" y="133" on="0"/>
        <pt x="902" y="28" on="0"/>
        <pt x="728" y="-20" on="0"/>
        <pt x="637" y="-20" on="1"/>
        <pt x="549" y="-20" on="0"/>
        <pt x="398" y="21" on="0"/>
        <pt x="276" y="110" on="0"/>
        <pt x="240" y="175" on="1"/>
      </contour>
      <contour>
        <pt x="948" y="1616" on="1"/>
        <pt x="962" y="1639" on="0"/>
        <pt x="1123" y="1795" on="0"/>
        <pt x="1183" y="1832" on="1"/>
        <pt x="1197" y="1839" on="0"/>
        <pt x="1260" y="1849" on="0"/>
        <pt x="1285" y="1849" on="1"/>
        <pt x="1314" y="1849" on="0"/>
        <pt x="1367" y="1837" on="0"/>
        <pt x="1410" y="1803" on="0"/>
        <pt x="1410" y="1753" on="0"/>
        <pt x="1324" y="1697" on="0"/>
        <pt x="1203" y="1651" on="0"/>
        <pt x="1072" y="1611" on="0"/>
        <pt x="981" y="1589" on="0"/>
        <pt x="968" y="1587" on="1"/>
        <pt x="948" y="1602" on="0"/>
      </contour>
    </TTGlyph>
    <TTGlyph name="Ucircumflex" xMin="186" yMin="-20" xMax="1686" yMax="1931">
      <contour>
        <pt x="195" y="256" on="0"/>
        <pt x="186" y="496" on="0"/>
        <pt x="220" y="668" on="1"/>
        <pt x="311" y="1139" on="1"/>
        <pt x="313" y="1150" on="0"/>
        <pt x="323" y="1204" on="0"/>
        <pt x="327" y="1225" on="0"/>
        <pt x="334" y="1267" on="0"/>
        <pt x="336" y="1288" on="0"/>
        <pt x="338" y="1317" on="0"/>
        <pt x="337" y="1338" on="0"/>
        <pt x="335" y="1348" on="1"/>
        <pt x="331" y="1378" on="0"/>
        <pt x="211" y="1388" on="1"/>
        <pt x="208" y="1397" on="0"/>
        <pt x="211" y="1429" on="0"/>
        <pt x="221" y="1463" on="0"/>
        <pt x="226" y="1470" on="1"/>
        <pt x="362" y="1454" on="0"/>
        <pt x="519" y="1454" on="1"/>
        <pt x="669" y="1454" on="0"/>
        <pt x="813" y="1470" on="1"/>
        <pt x="818" y="1459" on="0"/>
        <pt x="807" y="1399" on="0"/>
        <pt x="797" y="1388" on="1"/>
        <pt x="673" y="1377" on="0"/>
        <pt x="657" y="1348" on="1"/>
        <pt x="629" y="1296" on="0"/>
        <pt x="599" y="1139" on="1"/>
        <pt x="522" y="733" on="1"/>
        <pt x="509" y="666" on="0"/>
        <pt x="496" y="582" on="0"/>
        <pt x="486" y="482" on="0"/>
        <pt x="491" y="396" on="0"/>
        <pt x="500" y="353" on="1"/>
        <pt x="543" y="140" on="0"/>
        <pt x="773" y="140" on="1"/>
        <pt x="823" y="140" on="0"/>
        <pt x="925" y="178" on="0"/>
        <pt x="1028" y="263" on="0"/>
        <pt x="1116" y="388" on="0"/>
        <pt x="1190" y="573" on="0"/>
        <pt x="1212" y="686" on="1"/>
        <pt x="1285" y="1063" on="1"/>
        <pt x="1295" y="1113" on="0"/>
        <pt x="1309" y="1219" on="0"/>
        <pt x="1314" y="1312" on="0"/>
        <pt x="1310" y="1334" on="1"/>
        <pt x="1301" y="1376" on="0"/>
        <pt x="1166" y="1388" on="1"/>
        <pt x="1161" y="1399" on="0"/>
        <pt x="1173" y="1459" on="0"/>
        <pt x="1181" y="1470" on="1"/>
        <pt x="1348" y="1454" on="0"/>
        <pt x="1436" y="1454" on="1"/>
        <pt x="1489" y="1454" on="0"/>
        <pt x="1655" y="1468" on="0"/>
        <pt x="1681" y="1470" on="1"/>
        <pt x="1686" y="1459" on="0"/>
        <pt x="1675" y="1399" on="0"/>
        <pt x="1665" y="1388" on="1"/>
        <pt x="1664" y="1387" on="0"/>
        <pt x="1643" y="1386" on="0"/>
        <pt x="1629" y="1385" on="0"/>
        <pt x="1602" y="1382" on="0"/>
        <pt x="1582" y="1378" on="0"/>
        <pt x="1556" y="1372" on="0"/>
        <pt x="1536" y="1364" on="0"/>
        <pt x="1515" y="1355" on="0"/>
        <pt x="1501" y="1342" on="0"/>
        <pt x="1496" y="1334" on="1"/>
        <pt x="1478" y="1301" on="0"/>
        <pt x="1427" y="1136" on="0"/>
        <pt x="1414" y="1066" on="1"/>
        <pt x="1330" y="635" on="1"/>
        <pt x="1304" y="503" on="0"/>
        <pt x="1201" y="284" on="0"/>
        <pt x="1066" y="133" on="0"/>
        <pt x="902" y="28" on="0"/>
        <pt x="728" y="-20" on="0"/>
        <pt x="637" y="-20" on="1"/>
        <pt x="549" y="-20" on="0"/>
        <pt x="398" y="21" on="0"/>
        <pt x="276" y="110" on="0"/>
        <pt x="240" y="175" on="1"/>
      </contour>
      <contour>
        <pt x="719" y="1656" on="1"/>
        <pt x="808" y="1726" on="0"/>
        <pt x="995" y="1880" on="0"/>
        <pt x="1026" y="1909" on="1"/>
        <pt x="1048" y="1931" on="0"/>
        <pt x="1057" y="1931" on="1"/>
        <pt x="1059" y="1931" on="0"/>
        <pt x="1064" y="1929" on="0"/>
        <pt x="1069" y="1924" on="0"/>
        <pt x="1073" y="1920" on="0"/>
        <pt x="1080" y="1911" on="0"/>
        <pt x="1081" y="1909" on="1"/>
        <pt x="1099" y="1885" on="0"/>
        <pt x="1157" y="1814" on="0"/>
        <pt x="1217" y="1743" on="0"/>
        <pt x="1276" y="1675" on="0"/>
        <pt x="1294" y="1656" on="1"/>
        <pt x="1291" y="1628" on="0"/>
        <pt x="1268" y="1621" on="1"/>
        <pt x="1247" y="1626" on="0"/>
        <pt x="1067" y="1723" on="0"/>
        <pt x="1026" y="1754" on="1"/>
        <pt x="989" y="1733" on="0"/>
        <pt x="862" y="1672" on="0"/>
        <pt x="752" y="1625" on="0"/>
        <pt x="735" y="1621" on="1"/>
        <pt x="728" y="1624" on="0"/>
        <pt x="718" y="1646" on="0"/>
      </contour>
    </TTGlyph>
</ttFont>
